OpenSans-CondensedSemiBoldItalic.ufo
<glyph name="exclam" format="2">
  <advance width="492.0655737704918"/>
  <unicode hex="0021"/>
  <outline>
    <contour>
      <point x="123.22950819672131" y="432.344262295082" type="line"/>
      <point x="287.639344262295" y="432.344262295082" type="line"/>
      <point x="542.0983606557378" y="1462.0" type="line"/>
      <point x="313.16393442622945" y="1462.0" type="line"/>
    </contour>
    <contour>
      <point x="115.29508196721312" y="-17.770491803278695" type="curve" smooth="yes"/>
      <point x="198.14754098360655" y="-17.770491803278695"/>
      <point x="265.655737704918" y="57.426229508196734"/>
      <point x="265.655737704918" y="162.2622950819672" type="curve" smooth="yes"/>
      <point x="265.655737704918" y="225.34426229508196"/>
      <point x="229.34426229508196" y="263.88524590163934"/>
      <point x="170.16393442622947" y="263.88524590163934" type="curve" smooth="yes"/>
      <point x="67.99999999999999" y="263.88524590163934"/>
      <point x="12.032786885245898" y="177.0327868852459"/>
      <point x="12.032786885245898" y="81.73770491803279" type="curve" smooth="yes"/>
      <point x="12.032786885245898" y="15.770491803278691"/>
      <point x="51.45901639344262" y="-17.770491803278695"/>
    </contour>
  </outline>
</glyph>
<glyph name="dollar" format="2">
  <advance width="839.9508196721312"/>
  <unicode hex="0024"/>
  <outline>
    <contour>
      <point x="222.68852459016392" y="-119.88524590163935" type="line"/>
      <point x="310.2295081967213" y="-119.0" type="line"/>
      <point x="354.34426229508205" y="91.80327868852459" type="line"/>
      <point x="565.3442622950819" y="111.47540983606558"/>
      <point x="725.8360655737704" y="245.34426229508196"/>
      <point x="725.8360655737704" y="488.49180327868856" type="curve" smooth="yes"/>
      <point x="725.8360655737704" y="660.4590163934427"/>
      <point x="623.8852459016393" y="745.5737704918032"/>
      <point x="510.21311475409834" y="828.2622950819673" type="curve"/>
      <point x="594.2459016393442" y="1223.7704918032787" type="line"/>
      <point x="668.032786885246" y="1216.8852459016393"/>
      <point x="729.8032786885246" y="1188.672131147541"/>
      <point x="788.5737704918032" y="1147.2459016393443" type="curve"/>
      <point x="877.8360655737706" y="1314.7704918032787" type="line"/>
      <point x="816.0655737704917" y="1353.5409836065576"/>
      <point x="745.295081967213" y="1386.639344262295"/>
      <point x="631.4426229508197" y="1393.5245901639344" type="curve"/>
      <point x="664.2295081967213" y="1555.1147540983607" type="line"/>
      <point x="577.8032786885245" y="1555.1147540983607" type="line"/>
      <point x="542.5737704918033" y="1393.5245901639344" type="line"/>
      <point x="340.016393442623" y="1378.4098360655735"/>
      <point x="178.4262295081967" y="1256.5245901639344"/>
      <point x="178.4262295081967" y="1006.0491803278688" type="curve" smooth="yes"/>
      <point x="178.4262295081967" y="842.0819672131148"/>
      <point x="288.60655737704917" y="755.4262295081967"/>
      <point x="392.2622950819672" y="680.9672131147541" type="curve"/>
      <point x="305.11475409836066" y="263.22950819672127" type="line"/>
      <point x="195.88524590163934" y="270.11475409836066"/>
      <point x="101.22950819672133" y="316.4262295081968"/>
      <point x="38.14754098360656" y="367.8360655737705" type="curve"/>
      <point x="6.196721311475418" y="166.88524590163934" type="line"/>
      <point x="64.06557377049182" y="127.45901639344262"/>
      <point x="149.18032786885243" y="95.8032786885246"/>
      <point x="267.91803278688525" y="91.80327868852459" type="curve"/>
    </contour>
    <contour>
      <point x="391.86885245901647" y="270.11475409836066" type="curve"/>
      <point x="466.13114754098365" y="624.1967213114755" type="line"/>
      <point x="528.1803278688525" y="565.2622950819673"/>
      <point x="548.967213114754" y="521.5737704918032"/>
      <point x="548.967213114754" y="455.4262295081967" type="curve" smooth="yes"/>
      <point x="548.967213114754" y="359.4918032786885"/>
      <point x="499.8360655737705" y="286.1147540983606"/>
    </contour>
    <contour>
      <point x="436.34426229508193" y="886.1475409836065" type="line"/>
      <point x="376.5245901639344" y="939.9672131147541"/>
      <point x="353.29508196721315" y="981.4262295081969"/>
      <point x="353.29508196721315" y="1036.4590163934427" type="curve" smooth="yes"/>
      <point x="353.29508196721315" y="1134.6229508196723"/>
      <point x="403.77049180327873" y="1206.655737704918"/>
      <point x="507.04918032786884" y="1221.7704918032787" type="curve"/>
    </contour>
  </outline>
</glyph>
<glyph name="quotesingle" format="2">
  <advance width="407.34426229508193"/>
  <unicode hex="0027"/>
  <outline>
    <contour>
      <point x="205.68852459016395" y="934.0" type="line"/>
      <point x="361.65573770491807" y="934.0" type="line"/>
      <point x="502.8688524590164" y="1462.0" type="line"/>
      <point x="287.9180327868852" y="1462.0" type="line"/>
    </contour>
  </outline>
</glyph>
<glyph name="parenleft" format="2">
  <advance width="537.9508196721312"/>
  <unicode hex="0028"/>
  <outline>
    <contour>
      <point x="130.60655737704917" y="-324.0" type="curve"/>
      <point x="296.1311475409836" y="-324.0" type="line"/>
      <point x="242.2295081967213" y="-174.0"/>
      <point x="220.0983606557377" y="15.04918032786884"/>
      <point x="220.0983606557377" y="196.16393442622953" type="curve" smooth="yes"/>
      <point x="220.0983606557377" y="649.032786885246"/>
      <point x="406.18032786885243" y="1127.262295081967"/>
      <point x="680.0163934426231" y="1480.0819672131147" type="curve"/>
      <point x="511.1475409836066" y="1480.0819672131147" type="line"/>
      <point x="216.11475409836063" y="1154.4918032786886"/>
      <point x="34.34426229508197" y="644.7540983606558"/>
      <point x="34.34426229508197" y="194.6229508196721" type="curve" smooth="yes"/>
      <point x="34.34426229508197" y="22.819672131147538"/>
      <point x="66.47540983606558" y="-195.52459016393445"/>
    </contour>
  </outline>
</glyph>
<glyph name="parenright" format="2">
  <advance width="537.9508196721312"/>
  <unicode hex="0029"/>
  <outline>
    <contour>
      <point x="-153.54098360655738" y="-324.0" type="curve"/>
      <point x="15.885245901639347" y="-324.0" type="line"/>
      <point x="306.2622950819672" y="-3.7377049180327973"/>
      <point x="490.68852459016404" y="495.8032786885246"/>
      <point x="490.68852459016404" y="960.5737704918033" type="curve" smooth="yes"/>
      <point x="490.68852459016404" y="1143.9180327868853"/>
      <point x="463.4426229508197" y="1332.967213114754"/>
      <point x="396.4262295081967" y="1480.0819672131147" type="curve"/>
      <point x="228.34426229508196" y="1480.0819672131147" type="line"/>
      <point x="282.3606557377049" y="1340.5245901639341"/>
      <point x="304.3770491803279" y="1133.2622950819673"/>
      <point x="304.3770491803279" y="959.032786885246" type="curve" smooth="yes"/>
      <point x="304.3770491803279" y="507.0491803278689"/>
      <point x="119.96721311475407" y="28.81967213114754"/>
    </contour>
  </outline>
</glyph>
<glyph name="asterisk" format="2">
  <advance width="777.0655737704918"/>
  <unicode hex="002A"/>
  <outline>
    <contour>
      <point x="600.3934426229509" y="819.9180327868851" type="line"/>
      <point x="762.8360655737705" y="910.1639344262295" type="line"/>
      <point x="615.4262295081967" y="1148.8196721311476" type="line"/>
      <point x="859.9508196721312" y="1152.590163934426" type="line"/>
      <point x="844.4098360655737" y="1335.229508196721" type="line"/>
      <point x="602.2131147540983" y="1279.1475409836064" type="line"/>
      <point x="664.8688524590166" y="1543.1147540983607" type="line"/>
      <point x="476.1147540983606" y="1567.655737704918" type="line"/>
      <point x="467.8852459016393" y="1293.8032786885244" type="line"/>
      <point x="247.344262295082" y="1411.885245901639" type="line"/>
      <point x="186.3934426229508" y="1239.016393442623" type="line"/>
      <point x="419.80327868852464" y="1171.2459016393443" type="line"/>
      <point x="217.72131147540986" y="979.4754098360655" type="line"/>
      <point x="352.18032786885243" y="851.4754098360656" type="line"/>
      <point x="509.73770491803276" y="1073.1147540983604" type="line"/>
    </contour>
  </outline>
</glyph>
<glyph name="plus" format="2">
  <advance width="919.9508196721312"/>
  <unicode hex="002B"/>
  <outline>
    <contour>
      <point x="568.0655737704917" y="809.8196721311476" type="line"/>
      <point x="568.0655737704917" y="1209.7540983606557" type="line"/>
      <point x="391.655737704918" y="1209.7540983606557" type="line"/>
      <point x="391.655737704918" y="809.8196721311476" type="line"/>
      <point x="84.65573770491804" y="809.8196721311476" type="line"/>
      <point x="84.65573770491804" y="635.7377049180328" type="line"/>
      <point x="391.655737704918" y="635.7377049180328" type="line"/>
      <point x="391.655737704918" y="239.1311475409836" type="line"/>
      <point x="568.0655737704917" y="239.1311475409836" type="line"/>
      <point x="568.0655737704917" y="635.7377049180328" type="line"/>
      <point x="874.0655737704918" y="635.7377049180328" type="line"/>
      <point x="874.0655737704918" y="809.8196721311476" type="line"/>
    </contour>
  </outline>
</glyph>
<glyph name="comma" format="2">
  <advance width="441.0"/>
  <unicode hex="002C"/>
  <outline>
    <contour>
      <point x="-98.19672131147543" y="-272.65573770491807" type="curve"/>
      <point x="58.885245901639365" y="-272.65573770491807" type="line"/>
      <point x="146.0" y="-125.65573770491802"/>
      <point x="230.00000000000003" y="47.65573770491803"/>
      <point x="295.2131147540984" y="224.4918032786885" type="curve"/>
      <point x="289.2131147540984" y="245.37704918032787" type="line"/>
      <point x="88.68852459016394" y="245.37704918032787" type="line"/>
      <point x="47.91803278688524" y="92.85245901639344"/>
      <point x="-39.42622950819673" y="-126.80327868852459"/>
    </contour>
  </outline>
</glyph>
<glyph name="hyphen" format="2">
  <advance width="553.9016393442623"/>
  <unicode hex="002D"/>
  <outline>
    <contour>
      <point x="28.34426229508196" y="455.9672131147541" type="line"/>
      <point x="478.0327868852459" y="455.9672131147541" type="line"/>
      <point x="517.3278688524589" y="647.3770491803278" type="line"/>
      <point x="66.75409836065573" y="647.3770491803278" type="line"/>
    </contour>
  </outline>
</glyph>
<glyph name="period" format="2">
  <advance width="440.11475409836066"/>
  <unicode hex="002E"/>
  <outline>
    <contour>
      <point x="118.73770491803278" y="-17.770491803278695" type="curve" smooth="yes"/>
      <point x="199.03278688524588" y="-17.770491803278695"/>
      <point x="268.54098360655735" y="57.42622950819672"/>
      <point x="268.54098360655735" y="162.2622950819672" type="curve" smooth="yes"/>
      <point x="268.54098360655735" y="225.34426229508196"/>
      <point x="232.22950819672133" y="263.88524590163934"/>
      <point x="171.04918032786884" y="263.88524590163934" type="curve" smooth="yes"/>
      <point x="70.88524590163934" y="263.88524590163934"/>
      <point x="15.47540983606557" y="177.0327868852459"/>
      <point x="15.47540983606557" y="81.73770491803279" type="curve" smooth="yes"/>
      <point x="15.47540983606557" y="15.770491803278691"/>
      <point x="54.34426229508196" y="-17.770491803278695"/>
    </contour>
  </outline>
</glyph>
<glyph name="two" format="2">
  <advance width="839.9508196721312"/>
  <unicode hex="0032"/>
  <outline>
    <contour>
      <point x="-64.90163934426229" y="0.0" type="line"/>
      <point x="611.0655737704918" y="0.0" type="line"/>
      <point x="649.5901639344262" y="180.4098360655738" type="line"/>
      <point x="208.21311475409834" y="180.4098360655738" type="line"/>
      <point x="208.21311475409834" y="186.96721311475412" type="line"/>
      <point x="492.37704918032784" y="515.5081967213115" type="line" smooth="yes"/>
      <point x="688.8360655737705" y="737.655737704918"/>
      <point x="839.2950819672133" y="955.2459016393442"/>
      <point x="839.2950819672133" y="1190.688524590164" type="curve" smooth="yes"/>
      <point x="839.2950819672133" y="1370.4590163934424"/>
      <point x="724.9836065573771" y="1483.0"/>
      <point x="553.672131147541" y="1483.0" type="curve" smooth="yes"/>
      <point x="420.2622950819672" y="1483.0"/>
      <point x="311.19672131147536" y="1427.1311475409834"/>
      <point x="212.5737704918033" y="1324.983606557377" type="curve"/>
      <point x="285.1967213114754" y="1178.983606557377" type="line"/>
      <point x="355.3114754098361" y="1239.0819672131147"/>
      <point x="428.16393442622945" y="1301.590163934426"/>
      <point x="509.2786885245901" y="1301.590163934426" type="curve" smooth="yes"/>
      <point x="589.7704918032788" y="1301.590163934426"/>
      <point x="629.688524590164" y="1248.7868852459017"/>
      <point x="629.688524590164" y="1153.0655737704917" type="curve" smooth="yes"/>
      <point x="629.688524590164" y="951.7704918032787"/>
      <point x="478.7704918032787" y="762.8524590163935"/>
      <point x="319.1803278688524" y="569.5737704918032" type="curve" smooth="yes"/>
      <point x="-36.147540983606554" y="148.0" type="line"/>
    </contour>
  </outline>
</glyph>
<glyph name="three" format="2">
  <advance width="839.9508196721312"/>
  <unicode hex="0033"/>
  <outline>
    <contour>
      <point x="234.26229508196724" y="-20.0" type="curve" smooth="yes"/>
      <point x="537.0" y="-20.0"/>
      <point x="716.4918032786885" y="208.57377049180332"/>
      <point x="716.4918032786885" y="474.54098360655735" type="curve" smooth="yes"/>
      <point x="716.4918032786885" y="630.7704918032786"/>
      <point x="643.3770491803278" y="724.7704918032787"/>
      <point x="531.1803278688524" y="758.8852459016393" type="curve"/>
      <point x="532.295081967213" y="764.8852459016393" type="line"/>
      <point x="725.1803278688524" y="821.1967213114754"/>
      <point x="848.8360655737704" y="993.8852459016395"/>
      <point x="848.8360655737704" y="1201.3442622950818" type="curve" smooth="yes"/>
      <point x="848.8360655737704" y="1385.5245901639344"/>
      <point x="725.672131147541" y="1483.0"/>
      <point x="548.7868852459017" y="1483.0" type="curve" smooth="yes"/>
      <point x="422.24590163934425" y="1483.0"/>
      <point x="323.37704918032784" y="1444.655737704918"/>
      <point x="222.31147540983608" y="1367.5737704918033" type="curve"/>
      <point x="274.4098360655738" y="1211.5901639344263" type="line"/>
      <point x="354.83606557377055" y="1272.245901639344"/>
      <point x="432.37704918032784" y="1304.918032786885"/>
      <point x="506.62295081967204" y="1304.918032786885" type="curve" smooth="yes"/>
      <point x="596.655737704918" y="1304.918032786885"/>
      <point x="640.344262295082" y="1249.885245901639"/>
      <point x="640.344262295082" y="1153.950819672131" type="curve" smooth="yes"/>
      <point x="640.344262295082" y="975.688524590164"/>
      <point x="521.7704918032788" y="840.4918032786885"/>
      <point x="334.39344262295083" y="840.4918032786885" type="curve" smooth="yes"/>
      <point x="264.8524590163934" y="840.4918032786885" type="line"/>
      <point x="227.65573770491804" y="665.8524590163935" type="line"/>
      <point x="298.3114754098361" y="665.8524590163935" type="line" smooth="yes"/>
      <point x="436.4262295081968" y="665.8524590163935"/>
      <point x="505.11475409836066" y="598.4918032786885"/>
      <point x="505.11475409836066" y="460.5409836065574" type="curve" smooth="yes"/>
      <point x="505.11475409836066" y="288.37704918032784"/>
      <point x="404.75409836065575" y="157.52459016393445"/>
      <point x="230.91803278688525" y="157.52459016393445" type="curve" smooth="yes"/>
      <point x="148.68852459016398" y="157.52459016393445"/>
      <point x="46.50819672131148" y="181.52459016393445"/>
      <point x="-28.36065573770492" y="240.8360655737705" type="curve"/>
      <point x="-28.36065573770492" y="41.42622950819673" type="line"/>
      <point x="50.491803278688536" y="-1.9999999999999991"/>
      <point x="122.27868852459014" y="-20.0"/>
    </contour>
  </outline>
</glyph>
<glyph name="four" format="2">
  <advance width="839.9508196721312"/>
  <unicode hex="0034"/>
  <outline>
    <contour>
      <point x="344.655737704918" y="0.0" type="line"/>
      <point x="543.6065573770492" y="0.0" type="line"/>
      <point x="608.8360655737704" y="311.0327868852459" type="line"/>
      <point x="745.0655737704919" y="311.0327868852459" type="line"/>
      <point x="781.704918032787" y="484.4590163934427" type="line"/>
      <point x="646.4754098360656" y="484.4590163934427" type="line"/>
      <point x="855.7213114754097" y="1471.9016393442623" type="line"/>
      <point x="646.9672131147543" y="1471.9016393442623" type="line"/>
      <point x="1.508196721311485" y="472.4590163934426" type="line"/>
      <point x="-32.57377049180327" y="311.0327868852459" type="line"/>
      <point x="412.0" y="311.0327868852459" type="line"/>
    </contour>
    <contour>
      <point x="170.1803278688525" y="484.4590163934427" type="line"/>
      <point x="507.7704918032787" y="1026.9344262295083" type="line" smooth="yes"/>
      <point x="535.0163934426229" y="1069.3114754098358"/>
      <point x="557.0327868852459" y="1110.7868852459017"/>
      <point x="602.4918032786884" y="1197.3770491803277" type="curve"/>
      <point x="609.0491803278688" y="1197.3770491803277" type="line"/>
      <point x="595.3770491803278" y="1142.016393442623"/>
      <point x="576.9344262295083" y="1076.0"/>
      <point x="564.1475409836065" y="1022.967213114754" type="curve" smooth="yes"/>
      <point x="448.6393442622951" y="484.4590163934427" type="line"/>
    </contour>
  </outline>
</glyph>
<glyph name="five" format="2">
  <advance width="839.9508196721312"/>
  <unicode hex="0035"/>
  <outline>
    <contour>
      <point x="240.00000000000003" y="-20.0" type="curve" smooth="yes"/>
      <point x="593.688524590164" y="-20.0"/>
      <point x="742.049180327869" y="275.0327868852459"/>
      <point x="742.049180327869" y="557.1639344262295" type="curve" smooth="yes"/>
      <point x="742.049180327869" y="783.7213114754097"/>
      <point x="637.6065573770492" y="912.7213114754098"/>
      <point x="464.9180327868852" y="912.7213114754098" type="curve" smooth="yes"/>
      <point x="429.016393442623" y="912.7213114754098"/>
      <point x="391.78688524590166" y="907.6065573770492"/>
      <point x="353.016393442623" y="897.1639344262295" type="curve"/>
      <point x="459.4098360655737" y="1278.4754098360656" type="line"/>
      <point x="822.5245901639344" y="1278.4754098360656" type="line"/>
      <point x="862.6065573770491" y="1462.0" type="line"/>
      <point x="321.1803278688525" y="1462.0" type="line"/>
      <point x="135.19672131147541" y="770.2950819672132" type="line"/>
      <point x="197.49180327868854" y="703.3114754098361" type="line"/>
      <point x="251.04918032786884" y="723.3114754098361"/>
      <point x="300.04918032786884" y="738.0819672131146"/>
      <point x="352.6065573770492" y="738.0819672131146" type="curve" smooth="yes"/>
      <point x="471.42622950819674" y="738.0819672131146"/>
      <point x="529.1147540983607" y="659.8196721311475"/>
      <point x="529.1147540983607" y="518.1967213114755" type="curve" smooth="yes"/>
      <point x="529.1147540983607" y="331.344262295082"/>
      <point x="427.96721311475403" y="157.52459016393445"/>
      <point x="241.11475409836066" y="157.52459016393445" type="curve" smooth="yes"/>
      <point x="141.34426229508202" y="157.52459016393445"/>
      <point x="53.14754098360655" y="191.1803278688525"/>
      <point x="-8.393442622950815" y="243.72131147540983" type="curve"/>
      <point x="-8.393442622950815" y="32.77049180327869" type="line"/>
      <point x="46.03278688524591" y="3.114754098360655"/>
      <point x="131.80327868852459" y="-20.0"/>
    </contour>
  </outline>
</glyph>
<glyph name="six" format="2">
  <advance width="839.9508196721312"/>
  <unicode hex="0036"/>
  <outline>
    <contour>
      <point x="341.7868852459016" y="-20.0" type="curve" smooth="yes"/>
      <point x="647.1803278688525" y="-20.0"/>
      <point x="775.4918032786884" y="353.77049180327873"/>
      <point x="775.4918032786884" y="620.2131147540983" type="curve" smooth="yes"/>
      <point x="775.4918032786884" y="802.0819672131147"/>
      <point x="708.2622950819673" y="935.5081967213115"/>
      <point x="554.9508196721313" y="935.5081967213115" type="curve" smooth="yes"/>
      <point x="454.49180327868856" y="935.5081967213115"/>
      <point x="369.1475409836065" y="878.6065573770492"/>
      <point x="310.4754098360656" y="788.1475409836065" type="curve"/>
      <point x="304.0327868852459" y="788.1475409836065" type="line"/>
      <point x="391.83606557377044" y="1127.737704918033"/>
      <point x="527.1967213114755" y="1306.688524590164"/>
      <point x="714.327868852459" y="1306.688524590164" type="curve" smooth="yes"/>
      <point x="762.2131147540985" y="1306.688524590164"/>
      <point x="808.9836065573772" y="1298.245901639344"/>
      <point x="852.1803278688526" y="1283.3606557377047" type="curve"/>
      <point x="894.4918032786886" y="1462.0" type="line"/>
      <point x="846.1803278688526" y="1475.8852459016393"/>
      <point x="791.639344262295" y="1483.0"/>
      <point x="713.4426229508197" y="1483.0" type="curve" smooth="yes"/>
      <point x="537.6557377049181" y="1483.0"/>
      <point x="402.8852459016393" y="1367.2786885245903"/>
      <point x="312.688524590164" y="1242.262295081967" type="curve" smooth="yes"/>
      <point x="148.52459016393445" y="1025.2622950819673"/>
      <point x="53.655737704918025" y="665.8360655737705"/>
      <point x="53.655737704918025" y="366.1475409836066" type="curve" smooth="yes"/>
      <point x="53.655737704918025" y="133.4262295081967"/>
      <point x="139.40983606557373" y="-20.0"/>
    </contour>
    <contour>
      <point x="354.11475409836066" y="159.52459016393445" type="curve" smooth="yes"/>
      <point x="291.1803278688525" y="159.52459016393445"/>
      <point x="252.37704918032787" y="226.22950819672133"/>
      <point x="252.37704918032787" y="351.0655737704918" type="curve" smooth="yes"/>
      <point x="252.37704918032787" y="448.8688524590164"/>
      <point x="269.4754098360656" y="556.5081967213116"/>
      <point x="304.016393442623" y="618.1803278688525" type="curve" smooth="yes"/>
      <point x="334.14754098360663" y="697.4754098360655"/>
      <point x="392.5245901639345" y="759.1967213114755"/>
      <point x="472.2622950819672" y="759.1967213114755" type="curve" smooth="yes"/>
      <point x="534.4098360655738" y="759.1967213114755"/>
      <point x="570.7704918032787" y="702.1639344262295"/>
      <point x="570.7704918032787" y="601.1147540983607" type="curve" smooth="yes"/>
      <point x="570.7704918032787" y="453.26229508196724"/>
      <point x="511.73770491803276" y="159.52459016393445"/>
    </contour>
  </outline>
</glyph>
<glyph name="eight" format="2">
  <advance width="839.9508196721312"/>
  <unicode hex="0038"/>
  <outline>
    <contour>
      <point x="331.5737704918033" y="-20.0" type="curve" smooth="yes"/>
      <point x="576.655737704918" y="-20.0"/>
      <point x="733.6065573770493" y="184.63934426229508"/>
      <point x="733.6065573770493" y="407.83606557377044" type="curve" smooth="yes"/>
      <point x="733.6065573770493" y="542.967213114754"/>
      <point x="686.3770491803278" y="654.7540983606557"/>
      <point x="572.4754098360656" y="764.8852459016393" type="curve"/>
      <point x="756.6065573770491" y="866.8852459016392"/>
      <point x="864.8360655737705" y="1016.2295081967213"/>
      <point x="864.8360655737705" y="1199.5737704918033" type="curve" smooth="yes"/>
      <point x="864.8360655737705" y="1375.7704918032787"/>
      <point x="752.6393442622951" y="1483.0"/>
      <point x="576.2295081967212" y="1483.0" type="curve" smooth="yes"/>
      <point x="335.27868852459017" y="1483.0"/>
      <point x="192.6393442622951" y="1308.5737704918033"/>
      <point x="192.6393442622951" y="1084.2786885245903" type="curve" smooth="yes"/>
      <point x="192.6393442622951" y="968.8032786885245"/>
      <point x="232.98360655737702" y="862.6885245901641"/>
      <point x="315.8852459016394" y="770.2295081967214" type="curve"/>
      <point x="112.54098360655738" y="653.4590163934427"/>
      <point x="-6.032786885245901" y="512.4590163934427"/>
      <point x="-6.032786885245901" y="297.42622950819674" type="curve" smooth="yes"/>
      <point x="-6.032786885245901" y="98.0"/>
      <point x="117.72131147540983" y="-20.0"/>
    </contour>
    <contour>
      <point x="334.9016393442623" y="147.54098360655738" type="curve" smooth="yes"/>
      <point x="244.18032786885246" y="147.54098360655738"/>
      <point x="190.59016393442624" y="220.0327868852459"/>
      <point x="190.59016393442624" y="312.5245901639344" type="curve" smooth="yes"/>
      <point x="190.59016393442624" y="481.81967213114746"/>
      <point x="289.4098360655738" y="587.3934426229508"/>
      <point x="420.0327868852459" y="664.0819672131148" type="curve"/>
      <point x="492.0655737704919" y="586.0491803278688"/>
      <point x="539.4262295081967" y="500.45901639344265"/>
      <point x="539.4262295081967" y="397.18032786885243" type="curve" smooth="yes"/>
      <point x="536.8688524590164" y="264.5737704918033"/>
      <point x="470.7377049180327" y="147.54098360655738"/>
    </contour>
    <contour>
      <point x="470.327868852459" y="869.9180327868853" type="curve"/>
      <point x="417.0655737704918" y="931.5081967213115"/>
      <point x="383.60655737704917" y="1002.983606557377"/>
      <point x="383.60655737704917" y="1091.8196721311476" type="curve" smooth="yes"/>
      <point x="383.60655737704917" y="1228.655737704918"/>
      <point x="448.311475409836" y="1315.016393442623"/>
      <point x="551.0327868852459" y="1315.016393442623" type="curve" smooth="yes"/>
      <point x="622.4098360655737" y="1315.016393442623"/>
      <point x="668.8852459016393" y="1264.311475409836"/>
      <point x="668.8852459016393" y="1169.8196721311476" type="curve" smooth="yes"/>
      <point x="668.8852459016393" y="1050.5409836065573"/>
      <point x="603.5081967213115" y="945.4918032786885"/>
    </contour>
  </outline>
</glyph>
<glyph name="colon" format="2">
  <advance width="446.7704918032787"/>
  <unicode hex="003A"/>
  <outline>
    <contour>
      <point x="287.9508196721311" y="834.967213114754" type="curve" smooth="yes"/>
      <point x="370.80327868852453" y="834.967213114754"/>
      <point x="437.4262295081967" y="910.2786885245902"/>
      <point x="437.4262295081967" y="1015.1147540983605" type="curve" smooth="yes"/>
      <point x="437.4262295081967" y="1074.0819672131147"/>
      <point x="402.2295081967214" y="1115.7377049180327"/>
      <point x="340.81967213114757" y="1115.7377049180327" type="curve" smooth="yes"/>
      <point x="240.88524590163937" y="1115.7377049180327"/>
      <point x="184.68852459016395" y="1028.0"/>
      <point x="184.68852459016395" y="934.032786885246" type="curve" smooth="yes"/>
      <point x="184.68852459016395" y="868.6229508196722"/>
      <point x="224.11475409836066" y="834.967213114754"/>
    </contour>
    <contour>
      <point x="105.49180327868852" y="-17.770491803278695" type="curve" smooth="yes"/>
      <point x="186.34426229508196" y="-17.770491803278695"/>
      <point x="255.29508196721312" y="57.42622950819672"/>
      <point x="255.29508196721312" y="162.2622950819672" type="curve" smooth="yes"/>
      <point x="255.29508196721312" y="225.34426229508196"/>
      <point x="218.98360655737704" y="263.88524590163934"/>
      <point x="157.8032786885246" y="263.88524590163934" type="curve" smooth="yes"/>
      <point x="57.639344262295076" y="263.88524590163934"/>
      <point x="2.2295081967213104" y="177.0327868852459"/>
      <point x="2.2295081967213104" y="81.73770491803279" type="curve" smooth="yes"/>
      <point x="2.2295081967213104" y="15.770491803278691"/>
      <point x="41.65573770491803" y="-17.770491803278695"/>
    </contour>
  </outline>
</glyph>
<glyph name="semicolon" format="2">
  <advance width="446.7704918032787"/>
  <unicode hex="003B"/>
  <outline>
    <contour>
      <point x="-105.98360655737704" y="-272.65573770491807" type="curve"/>
      <point x="50.09836065573772" y="-272.65573770491807" type="line"/>
      <point x="139.7704918032787" y="-123.65573770491804"/>
      <point x="222.8852459016394" y="49.65573770491803"/>
      <point x="288.9836065573771" y="224.4918032786885" type="curve"/>
      <point x="281.8688524590164" y="245.37704918032787" type="line"/>
      <point x="82.45901639344261" y="245.37704918032787" type="line"/>
      <point x="34.80327868852459" y="76.42622950819673"/>
      <point x="-32.31147540983606" y="-101.11475409836065"/>
    </contour>
    <contour>
      <point x="296.73770491803276" y="834.967213114754" type="curve" smooth="yes"/>
      <point x="379.0327868852459" y="834.967213114754"/>
      <point x="445.655737704918" y="910.2786885245902"/>
      <point x="445.655737704918" y="1015.1147540983605" type="curve" smooth="yes"/>
      <point x="445.655737704918" y="1074.0819672131147"/>
      <point x="410.45901639344265" y="1115.7377049180327"/>
      <point x="349.49180327868856" y="1115.7377049180327" type="curve" smooth="yes"/>
      <point x="248.00000000000003" y="1115.7377049180327"/>
      <point x="193.47540983606555" y="1028.0"/>
      <point x="193.47540983606555" y="934.032786885246" type="curve" smooth="yes"/>
      <point x="193.47540983606555" y="868.6229508196722"/>
      <point x="232.9016393442623" y="834.967213114754"/>
    </contour>
  </outline>
</glyph>
<glyph name="question" format="2">
  <advance width="632.7213114754098"/>
  <unicode hex="003F"/>
  <outline>
    <contour>
      <point x="139.60655737704917" y="432.344262295082" type="curve"/>
      <point x="304.2459016393443" y="432.344262295082" type="line"/>
      <point x="334.80327868852464" y="594.3934426229508"/>
      <point x="367.40983606557387" y="649.4590163934427"/>
      <point x="487.08196721311486" y="779.0491803278688" type="curve" smooth="yes"/>
      <point x="615.1803278688525" y="913.8524590163935"/>
      <point x="721.3770491803278" y="1046.3934426229507"/>
      <point x="721.3770491803278" y="1232.1475409836064" type="curve" smooth="yes"/>
      <point x="721.3770491803278" y="1389.016393442623"/>
      <point x="628.950819672131" y="1483.0"/>
      <point x="459.4426229508196" y="1483.0" type="curve" smooth="yes"/>
      <point x="363.03278688524586" y="1483.0"/>
      <point x="264.8524590163935" y="1448.4590163934427"/>
      <point x="171.11475409836066" y="1377.049180327869" type="curve"/>
      <point x="208.11475409836066" y="1221.950819672131" type="line"/>
      <point x="269.5409836065574" y="1264.934426229508"/>
      <point x="336.62295081967216" y="1302.918032786885"/>
      <point x="412.7213114754097" y="1302.918032786885" type="curve" smooth="yes"/>
      <point x="482.0655737704918" y="1302.918032786885"/>
      <point x="522.1967213114755" y="1265.4590163934427"/>
      <point x="522.1967213114755" y="1185.4262295081967" type="curve" smooth="yes"/>
      <point x="522.1967213114755" y="1036.1639344262296"/>
      <point x="436.42622950819674" y="965.4590163934427"/>
      <point x="322.06557377049177" y="832.295081967213" type="curve" smooth="yes"/>
      <point x="218.50819672131146" y="714.3770491803278"/>
      <point x="180.60655737704914" y="631.6721311475411"/>
    </contour>
    <contour>
      <point x="141.34426229508196" y="-17.770491803278695" type="curve" smooth="yes"/>
      <point x="222.52459016393442" y="-17.770491803278695"/>
      <point x="290.0327868852459" y="57.42622950819672"/>
      <point x="290.0327868852459" y="162.2622950819672" type="curve" smooth="yes"/>
      <point x="290.0327868852459" y="225.34426229508196"/>
      <point x="253.72131147540983" y="263.88524590163934"/>
      <point x="194.54098360655743" y="263.88524590163934" type="curve" smooth="yes"/>
      <point x="92.37704918032787" y="263.88524590163934"/>
      <point x="36.9672131147541" y="177.0327868852459"/>
      <point x="36.9672131147541" y="81.73770491803279" type="curve" smooth="yes"/>
      <point x="36.9672131147541" y="15.770491803278691"/>
      <point x="75.83606557377051" y="-17.770491803278695"/>
    </contour>
  </outline>
</glyph>
<glyph name="at" format="2">
  <advance width="1256.2131147540986"/>
  <unicode hex="0040"/>
  <outline>
    <contour>
      <point x="489.0655737704919" y="-168.45901639344262" type="curve" smooth="yes"/>
      <point x="587.2622950819672" y="-168.45901639344262"/>
      <point x="697.8688524590165" y="-139.91803278688525"/>
      <point x="790.9344262295083" y="-94.49180327868852" type="curve"/>
      <point x="790.9344262295083" y="32.98360655737706" type="line"/>
      <point x="694.7868852459015" y="-14.655737704918032"/>
      <point x="592.1475409836066" y="-38.655737704918025"/>
      <point x="490.4098360655737" y="-38.655737704918025" type="curve" smooth="yes"/>
      <point x="276.7704918032787" y="-38.655737704918025"/>
      <point x="191.68852459016398" y="115.0327868852459"/>
      <point x="191.68852459016398" y="334.2622950819673" type="curve" smooth="yes"/>
      <point x="191.68852459016398" y="802.7377049180327"/>
      <point x="428.21311475409834" y="1345.8524590163936"/>
      <point x="821.7704918032787" y="1345.8524590163936" type="curve" smooth="yes"/>
      <point x="1000.1967213114754" y="1345.8524590163936"/>
      <point x="1098.8360655737706" y="1224.622950819672"/>
      <point x="1098.8360655737706" y="980.6065573770492" type="curve" smooth="yes"/>
      <point x="1098.8360655737706" y="789.327868852459"/>
      <point x="1012.5737704918034" y="362.1475409836066"/>
      <point x="873.4754098360655" y="362.1475409836066" type="curve" smooth="yes"/>
      <point x="843.2295081967212" y="362.1475409836066"/>
      <point x="828.4426229508198" y="385.37704918032784"/>
      <point x="828.4426229508198" y="436.1803278688525" type="curve" smooth="yes"/>
      <point x="828.4426229508198" y="459.19672131147547"/>
      <point x="834.672131147541" y="498.00000000000006"/>
      <point x="847.4590163934427" y="547.2622950819672" type="curve" smooth="yes"/>
      <point x="967.672131147541" y="1039.5409836065573" type="line"/>
      <point x="913.3606557377051" y="1067.1967213114754"/>
      <point x="843.9508196721312" y="1084.295081967213"/>
      <point x="758.4426229508197" y="1084.295081967213" type="curve" smooth="yes"/>
      <point x="488.4918032786886" y="1084.295081967213"/>
      <point x="355.0655737704918" y="678.1639344262295"/>
      <point x="355.0655737704918" y="449.95081967213116" type="curve" smooth="yes"/>
      <point x="355.0655737704918" y="304.3114754098361"/>
      <point x="410.49180327868845" y="231.88524590163934"/>
      <point x="523.6557377049181" y="231.88524590163934" type="curve" smooth="yes"/>
      <point x="592.4426229508196" y="231.88524590163934"/>
      <point x="660.8852459016395" y="292.57377049180326"/>
      <point x="708.7540983606557" y="386.1475409836066" type="curve"/>
      <point x="711.6393442622951" y="386.1475409836066" type="line"/>
      <point x="723.1803278688525" y="292.5737704918033"/>
      <point x="754.8360655737706" y="234.672131147541"/>
      <point x="862.360655737705" y="234.672131147541" type="curve" smooth="yes"/>
      <point x="1091.0983606557377" y="234.672131147541"/>
      <point x="1240.409836065574" y="685.8360655737705"/>
      <point x="1240.409836065574" y="994.9344262295082" type="curve" smooth="yes"/>
      <point x="1240.409836065574" y="1285.1147540983607"/>
      <point x="1086.7049180327867" y="1476.7704918032787"/>
      <point x="834.6557377049181" y="1476.7704918032787" type="curve" smooth="yes"/>
      <point x="354.3770491803279" y="1476.7704918032787"/>
      <point x="48.11475409836065" y="883.688524590164"/>
      <point x="48.11475409836065" y="320.49180327868845" type="curve" smooth="yes"/>
      <point x="48.11475409836065" y="27.42622950819672"/>
      <point x="198.60655737704917" y="-168.45901639344262"/>
    </contour>
    <contour>
      <point x="560.5245901639344" y="363.0327868852459" type="curve" smooth="yes"/>
      <point x="524.4098360655738" y="363.0327868852459"/>
      <point x="505.2950819672131" y="395.37704918032784"/>
      <point x="505.2950819672131" y="468.27868852459017" type="curve" smooth="yes"/>
      <point x="505.2950819672131" y="631.622950819672"/>
      <point x="593.5245901639344" y="955.9344262295082"/>
      <point x="738.0" y="955.9344262295082" type="curve" smooth="yes"/>
      <point x="762.4426229508198" y="955.9344262295082"/>
      <point x="780.1147540983604" y="953.9344262295082"/>
      <point x="796.1147540983608" y="947.377049180328" type="curve"/>
      <point x="722.3278688524591" y="658.9016393442622" type="line" smooth="yes"/>
      <point x="669.7540983606557" y="459.72131147540983"/>
      <point x="619.639344262295" y="363.0327868852459"/>
    </contour>
  </outline>
</glyph>
<glyph name="A" format="2">
  <advance width="887.1967213114757"/>
  <unicode hex="0041"/>
  <anchor x="329.0983606557378" y="0.0" name="bottom"/>
  <anchor x="620.0655737704918" y="1464.8852459016393" name="top"/>
  <anchor x="1042.754098360656" y="1462.0" name="topright"/>
  <outline>
    <contour>
      <point x="-130.34426229508196" y="0.0" type="line"/>
      <point x="93.24590163934428" y="0.0" type="line"/>
      <point x="264.77049180327873" y="424.27868852459017" type="line"/>
      <point x="545.9180327868853" y="424.27868852459017" type="line"/>
      <point x="542.1475409836066" y="0.0" type="line"/>
      <point x="756.8524590163935" y="0.0" type="line"/>
      <point x="746.8688524590164" y="1468.0" type="line"/>
      <point x="486.5245901639344" y="1468.0" type="line"/>
    </contour>
    <contour>
      <point x="333.4918032786885" y="606.9180327868853" type="line"/>
      <point x="514.4426229508197" y="1092.1475409836064" type="line" smooth="yes"/>
      <point x="539.2295081967213" y="1160.8196721311476"/>
      <point x="556.5573770491803" y="1217.8196721311476"/>
      <point x="568.2295081967213" y="1271.1311475409836" type="curve"/>
      <point x="574.2295081967212" y="1271.1311475409836" type="line"/>
      <point x="568.2295081967214" y="1214.934426229508"/>
      <point x="566.2295081967213" y="1155.9344262295083"/>
      <point x="565.3442622950819" y="1089.934426229508" type="curve" smooth="yes"/>
      <point x="555.016393442623" y="606.9180327868853" type="line"/>
    </contour>
  </outline>
</glyph>
<glyph name="C" format="2">
  <advance width="830.8360655737705"/>
  <unicode hex="0043"/>
  <anchor x="333.9836065573771" y="0.0" name="bottom"/>
  <anchor x="644.983606557377" y="1462.0" name="top"/>
  <anchor x="985.8360655737705" y="1462.0" name="topright"/>
  <outline>
    <contour>
      <point x="411.1803278688525" y="-20.0" type="curve" smooth="yes"/>
      <point x="496.0327868852459" y="-20.0"/>
      <point x="589.7540983606557" y="-4.22950819672131"/>
      <point x="671.9508196721313" y="33.19672131147541" type="curve"/>
      <point x="671.9508196721313" y="217.6065573770492" type="line"/>
      <point x="598.4098360655738" y="185.0655737704918"/>
      <point x="529.655737704918" y="162.40983606557378"/>
      <point x="461.9016393442622" y="162.40983606557378" type="curve" smooth="yes"/>
      <point x="341.9508196721312" y="162.40983606557378"/>
      <point x="287.37704918032784" y="252.90163934426235"/>
      <point x="287.37704918032784" y="465.0" type="curve" smooth="yes"/>
      <point x="287.37704918032784" y="720.4262295081967"/>
      <point x="421.7540983606558" y="1300.4754098360654"/>
      <point x="713.9508196721312" y="1300.4754098360654" type="curve" smooth="yes"/>
      <point x="771.5081967213116" y="1300.4754098360654"/>
      <point x="823.8360655737704" y="1280.7049180327867"/>
      <point x="873.2622950819673" y="1239.0491803278687" type="curve"/>
      <point x="976.5245901639345" y="1403.918032786885" type="line"/>
      <point x="904.2295081967214" y="1460.2295081967213"/>
      <point x="813.1639344262295" y="1484.1147540983607"/>
      <point x="712.967213114754" y="1484.1147540983607" type="curve" smooth="yes"/>
      <point x="289.8524590163935" y="1484.1147540983607"/>
      <point x="73.11475409836066" y="875.2622950819672"/>
      <point x="73.11475409836066" y="451.00000000000006" type="curve" smooth="yes"/>
      <point x="73.11475409836066" y="144.75409836065577"/>
      <point x="187.98360655737707" y="-20.0"/>
    </contour>
  </outline>
</glyph>
<glyph name="D" format="2">
  <advance width="988.2950819672133"/>
  <unicode hex="0044"/>
  <anchor x="380.1475409836065" y="0.0" name="bottom"/>
  <anchor x="551.9016393442623" y="731.0" name="center"/>
  <anchor x="690.1475409836065" y="1462.0" name="top"/>
  <anchor x="1141.1803278688526" y="1462.0" name="topright"/>
  <outline>
    <contour>
      <point x="-1.7704918032786878" y="0.0" type="line"/>
      <point x="270.7704918032787" y="0.0" type="line" smooth="yes"/>
      <point x="772.4098360655737" y="0.0"/>
      <point x="966.2622950819672" y="575.8196721311475"/>
      <point x="966.2622950819672" y="1022.9180327868852" type="curve" smooth="yes"/>
      <point x="966.2622950819672" y="1308.3606557377047"/>
      <point x="826.8524590163934" y="1462.0"/>
      <point x="568.9180327868852" y="1462.0" type="curve" smooth="yes"/>
      <point x="307.2295081967213" y="1462.0" type="line"/>
    </contour>
    <contour>
      <point x="241.03278688524594" y="184.96721311475412" type="line"/>
      <point x="472.983606557377" y="1278.4754098360654" type="line"/>
      <point x="547.2622950819672" y="1278.4754098360654" type="line" smooth="yes"/>
      <point x="682.1967213114754" y="1278.4754098360654"/>
      <point x="749.7704918032786" y="1194.672131147541"/>
      <point x="749.7704918032786" y="1006.2786885245902" type="curve" smooth="yes"/>
      <point x="749.7704918032786" y="677.7868852459017"/>
      <point x="619.7213114754098" y="184.96721311475412"/>
      <point x="300.5245901639345" y="184.96721311475412" type="curve" smooth="yes"/>
    </contour>
  </outline>
</glyph>
<glyph name="E" format="2">
  <advance width="775.2295081967213"/>
  <unicode hex="0045"/>
  <anchor x="273.95081967213116" y="0.0" name="bottom"/>
  <anchor x="582.9508196721312" y="1462.0" name="top"/>
  <anchor x="929.7868852459017" y="1462.0" name="topright"/>
  <outline>
    <contour>
      <point x="-1.7704918032786878" y="0.0" type="line"/>
      <point x="559.2131147540985" y="0.0" type="line"/>
      <point x="597.295081967213" y="181.52459016393445" type="line"/>
      <point x="240.1475409836066" y="181.52459016393445" type="line"/>
      <point x="344.4098360655738" y="670.9672131147541" type="line"/>
      <point x="676.672131147541" y="670.9672131147541" type="line"/>
      <point x="715.8688524590164" y="852.1639344262295" type="line"/>
      <point x="383.60655737704917" y="852.1639344262295" type="line"/>
      <point x="473.86885245901647" y="1281.3606557377047" type="line"/>
      <point x="830.6885245901641" y="1281.3606557377047" type="line"/>
      <point x="868.7704918032788" y="1462.0" type="line"/>
      <point x="307.2295081967213" y="1462.0" type="line"/>
    </contour>
  </outline>
</glyph>
<glyph name="F" format="2">
  <advance width="735.7704918032788"/>
  <unicode hex="0046"/>
  <anchor x="254.16393442622953" y="0.0" name="bottom"/>
  <anchor x="563.6065573770493" y="1462.0" name="top"/>
  <anchor x="889.2131147540985" y="1462.0" name="topright"/>
  <outline>
    <contour>
      <point x="-1.7704918032786878" y="0.0" type="line"/>
      <point x="202.95081967213116" y="0.0" type="line"/>
      <point x="332.40983606557376" y="614.6229508196722" type="line"/>
      <point x="664.4590163934427" y="614.6229508196722" type="line"/>
      <point x="703.4262295081968" y="795.2622950819672" type="line"/>
      <point x="371.6065573770492" y="795.2622950819672" type="line"/>
      <point x="473.86885245901647" y="1281.3606557377047" type="line"/>
      <point x="830.6885245901641" y="1281.3606557377047" type="line"/>
      <point x="869.0000000000001" y="1462.0" type="line"/>
      <point x="307.2295081967213" y="1462.0" type="line"/>
    </contour>
  </outline>
</glyph>
<glyph name="G" format="2">
  <advance width="1033.2295081967213"/>
  <unicode hex="0047"/>
  <anchor x="401.8360655737706" y="0.0" name="bottom"/>
  <anchor x="710.8360655737704" y="1462.0" name="top"/>
  <anchor x="1186.4426229508197" y="1462.0" name="topright"/>
  <outline>
    <contour>
      <point x="478.72131147540983" y="-20.0" type="curve" smooth="yes"/>
      <point x="576.7213114754098" y="-20.0"/>
      <point x="696.5737704918033" y="3.77049180327869"/>
      <point x="814.5245901639346" y="49.196721311475414" type="curve"/>
      <point x="972.2950819672133" y="791.0327868852459" type="line"/>
      <point x="597.311475409836" y="791.0327868852459" type="line"/>
      <point x="560.1147540983605" y="613.2786885245902" type="line"/>
      <point x="731.2622950819671" y="613.2786885245902" type="line"/>
      <point x="641.0" y="184.31147540983608" type="line"/>
      <point x="594.4262295081968" y="169.52459016393442"/>
      <point x="546.7377049180327" y="162.40983606557378"/>
      <point x="496.2622950819672" y="162.40983606557378" type="curve" smooth="yes"/>
      <point x="356.08196721311475" y="162.40983606557378"/>
      <point x="286.49180327868856" y="254.21311475409837"/>
      <point x="286.49180327868856" y="461.8524590163934" type="curve" smooth="yes"/>
      <point x="286.49180327868856" y="846.0819672131148"/>
      <point x="466.7540983606557" y="1300.4754098360654"/>
      <point x="746.4918032786885" y="1300.4754098360654" type="curve" smooth="yes"/>
      <point x="832.4918032786884" y="1300.4754098360654"/>
      <point x="909.1475409836066" y="1274.7049180327867"/>
      <point x="987.377049180328" y="1216.9180327868853" type="curve"/>
      <point x="1083.5409836065571" y="1392.1147540983607" type="line"/>
      <point x="1005.5409836065572" y="1447.1147540983607"/>
      <point x="891.6721311475409" y="1484.1147540983607"/>
      <point x="765.3606557377049" y="1484.1147540983607" type="curve" smooth="yes"/>
      <point x="343.60655737704917" y="1484.1147540983607"/>
      <point x="74.0" y="994.7704918032787"/>
      <point x="74.0" y="447.09836065573774" type="curve" smooth="yes"/>
      <point x="74.0" y="142.5409836065574"/>
      <point x="204.54098360655738" y="-20.0"/>
    </contour>
  </outline>
</glyph>
<glyph name="H" format="2">
  <advance width="1027.065573770492"/>
  <unicode hex="0048"/>
  <anchor x="400.0327868852459" y="0.0" name="bottom"/>
  <anchor x="571.3442622950819" y="731.0" name="center"/>
  <anchor x="709.0327868852459" y="1462.0" name="top"/>
  <anchor x="1181.0655737704917" y="1462.0" name="topright"/>
  <outline>
    <contour>
      <point x="-1.7704918032787091" y="0.0" type="line"/>
      <point x="202.95081967213116" y="0.0" type="line"/>
      <point x="344.4098360655738" y="671.8524590163935" type="line"/>
      <point x="707.655737704918" y="671.8524590163935" type="line"/>
      <point x="565.1967213114755" y="0.0" type="line"/>
      <point x="769.9180327868853" y="0.0" type="line"/>
      <point x="1081.360655737705" y="1462.0" type="line"/>
      <point x="876.6393442622953" y="1462.0" type="line"/>
      <point x="747.1803278688525" y="856.3770491803278" type="line"/>
      <point x="383.6065573770492" y="856.3770491803278" type="line"/>
      <point x="511.95081967213116" y="1462.0" type="line"/>
      <point x="307.2295081967212" y="1462.0" type="line"/>
    </contour>
  </outline>
</glyph>
<glyph name="J" format="2">
  <advance width="448.5245901639344"/>
  <unicode hex="004A"/>
  <anchor x="-156.47540983606555" y="-407.6065573770491" name="bottom"/>
  <anchor x="418.26229508196724" y="1462.0" name="top"/>
  <anchor x="601.5245901639345" y="1462.0" name="topright"/>
  <outline>
    <contour>
      <point x="-156.47540983606555" y="-407.6065573770491" type="curve" smooth="yes"/>
      <point x="23.688524590163933" y="-407.6065573770491"/>
      <point x="143.18032786885246" y="-292.0819672131148"/>
      <point x="202.49180327868854" y="-11.737704918032783" type="curve" smooth="yes"/>
      <point x="513.9508196721312" y="1462.0" type="line"/>
      <point x="309.2295081967213" y="1462.0" type="line"/>
      <point x="4.6557377049180335" y="21.688524590163947" type="line" smooth="yes"/>
      <point x="-25.245901639344257" y="-118.36065573770487"/>
      <point x="-65.36065573770492" y="-226.9672131147541"/>
      <point x="-164.4590163934426" y="-226.9672131147541" type="curve" smooth="yes"/>
      <point x="-198.34426229508196" y="-226.9672131147541"/>
      <point x="-230.34426229508193" y="-217.85245901639345"/>
      <point x="-263.1147540983607" y="-201.9672131147541" type="curve"/>
      <point x="-306.3114754098361" y="-383.16393442622956" type="line"/>
      <point x="-267.7704918032786" y="-399.60655737704917"/>
      <point x="-222.11475409836066" y="-407.6065573770491"/>
    </contour>
  </outline>
</glyph>
<glyph name="K" format="2">
  <advance width="879.9016393442623"/>
  <unicode hex="004B"/>
  <anchor x="325.34426229508205" y="0.0" name="bottom"/>
  <anchor x="635.6721311475411" y="1462.0" name="top"/>
  <anchor x="1033.9016393442623" y="1462.0" name="topright"/>
  <outline>
    <contour>
      <point x="-1.7704918032786878" y="0.0" type="line"/>
      <point x="202.95081967213116" y="0.0" type="line"/>
      <point x="316.8524590163935" y="539.2786885245902" type="line"/>
      <point x="417.7868852459016" y="637.0163934426229" type="line"/>
      <point x="535.0655737704918" y="0.0" type="line"/>
      <point x="758.2131147540985" y="0.0" type="line"/>
      <point x="595.639344262295" y="788.1311475409836" type="line"/>
      <point x="1056.0819672131147" y="1462.0" type="line"/>
      <point x="832.4918032786884" y="1462.0" type="line"/>
      <point x="468.29508196721315" y="932.9016393442622" type="line"/>
      <point x="364.59016393442624" y="766.8688524590165" type="line"/>
      <point x="511.9508196721313" y="1462.0" type="line"/>
      <point x="307.2295081967213" y="1462.0" type="line"/>
    </contour>
  </outline>
</glyph>
<glyph name="L" format="2">
  <advance width="720.0983606557376"/>
  <unicode hex="004C"/>
  <anchor x="244.49180327868854" y="0.0" name="bottom"/>
  <anchor x="416.9180327868852" y="731.0" name="center"/>
  <anchor x="555.1639344262295" y="1462.0" name="top"/>
  <anchor x="757.9836065573771" y="1462.0" name="topright"/>
  <outline>
    <contour>
      <point x="-1.7704918032786878" y="0.0" type="line"/>
      <point x="559.4098360655738" y="0.0" type="line"/>
      <point x="595.4918032786885" y="181.52459016393445" type="line"/>
      <point x="240.1475409836066" y="181.52459016393445" type="line"/>
      <point x="511.9508196721313" y="1462.0" type="line"/>
      <point x="307.2295081967213" y="1462.0" type="line"/>
    </contour>
  </outline>
</glyph>
<glyph name="M" format="2">
  <advance width="1369.2622950819673"/>
  <unicode hex="004D"/>
  <anchor x="570.688524590164" y="0.0" name="bottom"/>
  <anchor x="879.6885245901641" y="1462.0" name="top"/>
  <anchor x="1523.262295081967" y="1462.0" name="topright"/>
  <outline>
    <contour>
      <point x="-1.7704918032786914" y="0.0" type="line"/>
      <point x="192.29508196721312" y="0.0" type="line"/>
      <point x="376.1475409836066" y="869.9016393442623" type="line" smooth="yes"/>
      <point x="391.1475409836066" y="937.6885245901639"/>
      <point x="401.14754098360663" y="1008.5737704918031"/>
      <point x="416.2622950819673" y="1092.5737704918033" type="curve"/>
      <point x="421.14754098360663" y="1092.5737704918033" type="line"/>
      <point x="459.6229508196721" y="0.0" type="line"/>
      <point x="649.1803278688525" y="0.0" type="line"/>
      <point x="1146.3442622950818" y="1096.3442622950818" type="line"/>
      <point x="1150.3442622950818" y="1096.3442622950818" type="line"/>
      <point x="1135.2295081967213" y="1033.4426229508197"/>
      <point x="1119.344262295082" y="975.0983606557376"/>
      <point x="1106.2295081967213" y="915.7540983606557" type="curve" smooth="yes"/>
      <point x="911.6065573770493" y="0.0" type="line"/>
      <point x="1112.55737704918" y="0.0" type="line"/>
      <point x="1423.5573770491806" y="1462.0" type="line"/>
      <point x="1125.7704918032787" y="1462.0" type="line"/>
      <point x="628.4918032786885" y="347.0" type="line"/>
      <point x="623.6065573770491" y="347.0" type="line"/>
      <point x="585.9180327868852" y="1462.0" type="line"/>
      <point x="307.2295081967213" y="1462.0" type="line"/>
    </contour>
  </outline>
</glyph>
<glyph name="O" format="2">
  <advance width="1052.295081967213"/>
  <unicode hex="004F"/>
  <anchor x="411.1475409836066" y="0.0" name="bottom"/>
  <anchor x="582.4590163934427" y="731.0" name="center"/>
  <anchor x="720.1475409836065" y="1462.0" name="top"/>
  <anchor x="1205.295081967213" y="1462.0" name="topright"/>
  <outline>
    <contour>
      <point x="415.344262295082" y="-20.0" type="curve" smooth="yes"/>
      <point x="855.0655737704918" y="-20.0"/>
      <point x="1028.377049180328" y="664.967213114754"/>
      <point x="1028.377049180328" y="1050.8524590163936" type="curve" smooth="yes"/>
      <point x="1028.377049180328" y="1340.4754098360656"/>
      <point x="921.9508196721309" y="1483.8852459016393"/>
      <point x="689.9180327868853" y="1483.8852459016393" type="curve" smooth="yes"/>
      <point x="279.0655737704918" y="1483.8852459016393"/>
      <point x="72.0" y="871.032786885246"/>
      <point x="72.0" y="425.0491803278689" type="curve" smooth="yes"/>
      <point x="72.0" y="120.54098360655739"/>
      <point x="183.52459016393442" y="-20.0"/>
    </contour>
    <contour>
      <point x="431.32786885245895" y="164.4098360655738" type="curve" smooth="yes"/>
      <point x="335.0655737704918" y="164.4098360655738"/>
      <point x="285.37704918032784" y="235.34426229508202"/>
      <point x="285.37704918032784" y="423.04918032786895" type="curve" smooth="yes"/>
      <point x="285.37704918032784" y="679.7377049180328"/>
      <point x="397.8196721311475" y="1300.4754098360654"/>
      <point x="672.2622950819672" y="1300.4754098360654" type="curve" smooth="yes"/>
      <point x="769.311475409836" y="1300.4754098360654"/>
      <point x="817.8852459016396" y="1222.2295081967213"/>
      <point x="817.8852459016396" y="1054.6229508196723" type="curve" smooth="yes"/>
      <point x="817.8852459016396" y="748.7540983606557"/>
      <point x="689.0819672131148" y="164.4098360655738"/>
    </contour>
  </outline>
</glyph>
<glyph name="Q" format="2">
  <advance width="1052.295081967213"/>
  <unicode hex="0051"/>
  <anchor x="337.1475409836065" y="-348.0" name="bottom"/>
  <anchor x="720.1475409836065" y="1462.0" name="top"/>
  <anchor x="1205.295081967213" y="1462.0" name="topright"/>
  <outline>
    <contour>
      <point x="491.63934426229514" y="-348.0" type="line"/>
      <point x="727.5573770491803" y="-348.0" type="line"/>
      <point x="603.2459016393443" y="26.40983606557377" type="line"/>
      <point x="906.7049180327868" y="177.49180327868854"/>
      <point x="1028.377049180328" y="724.6065573770492"/>
      <point x="1028.377049180328" y="1050.8524590163936" type="curve" smooth="yes"/>
      <point x="1028.377049180328" y="1340.4754098360656"/>
      <point x="921.9508196721309" y="1483.8852459016393"/>
      <point x="689.9180327868853" y="1483.8852459016393" type="curve" smooth="yes"/>
      <point x="279.0655737704918" y="1483.8852459016393"/>
      <point x="72.0" y="871.032786885246"/>
      <point x="72.0" y="425.0491803278689" type="curve" smooth="yes"/>
      <point x="72.0" y="141.18032786885246"/>
      <point x="167.77049180327867" y="-0.9180327868852416"/>
      <point x="366.40983606557376" y="-16.229508196721312" type="curve" smooth="yes"/>
      <point x="378.08196721311475" y="-17.114754098360656"/>
      <point x="388.08196721311475" y="-17.114754098360656"/>
      <point x="400.5245901639344" y="-16.0" type="curve"/>
    </contour>
    <contour>
      <point x="431.32786885245895" y="164.4098360655738" type="curve" smooth="yes"/>
      <point x="335.0655737704918" y="164.4098360655738"/>
      <point x="285.37704918032784" y="235.34426229508202"/>
      <point x="285.37704918032784" y="423.04918032786895" type="curve" smooth="yes"/>
      <point x="285.37704918032784" y="679.7377049180328"/>
      <point x="397.8196721311475" y="1300.4754098360654"/>
      <point x="672.2622950819672" y="1300.4754098360654" type="curve" smooth="yes"/>
      <point x="769.311475409836" y="1300.4754098360654"/>
      <point x="817.8852459016396" y="1222.2295081967213"/>
      <point x="817.8852459016396" y="1054.6229508196723" type="curve" smooth="yes"/>
      <point x="817.8852459016396" y="748.7540983606557"/>
      <point x="689.0819672131147" y="164.4098360655738"/>
    </contour>
  </outline>
</glyph>
<glyph name="S" format="2">
  <advance width="798.3278688524591"/>
  <unicode hex="0053"/>
  <anchor x="285.72131147540983" y="0.0" name="bottom"/>
  <anchor x="595.2786885245902" y="1462.0" name="top"/>
  <anchor x="953.0" y="1462.0" name="topright"/>
  <outline>
    <contour>
      <point x="251.1475409836066" y="-20.0" type="curve" smooth="yes"/>
      <point x="542.5245901639345" y="-20.0"/>
      <point x="695.0655737704918" y="176.60655737704917"/>
      <point x="695.0655737704918" y="431.72131147540983" type="curve" smooth="yes"/>
      <point x="695.0655737704918" y="590.4918032786884"/>
      <point x="646.0655737704917" y="694.1475409836065"/>
      <point x="535.6393442622951" y="798.3770491803278" type="curve" smooth="yes"/>
      <point x="420.4098360655738" y="909.4098360655738"/>
      <point x="372.26229508196724" y="970.3114754098362"/>
      <point x="372.26229508196724" y="1073.2622950819673" type="curve" smooth="yes"/>
      <point x="372.26229508196724" y="1212.6557377049182"/>
      <point x="464.52459016393436" y="1291.8196721311474"/>
      <point x="580.032786885246" y="1291.8196721311474" type="curve" smooth="yes"/>
      <point x="647.6065573770492" y="1291.8196721311474"/>
      <point x="717.4918032786885" y="1261.0491803278685"/>
      <point x="785.9180327868853" y="1212.7377049180327" type="curve"/>
      <point x="881.1803278688524" y="1399.032786885246" type="line"/>
      <point x="809.4426229508197" y="1450.0"/>
      <point x="692.3442622950819" y="1483.0"/>
      <point x="592.9180327868852" y="1483.0" type="curve" smooth="yes"/>
      <point x="319.0" y="1483.0"/>
      <point x="157.77049180327867" y="1307.049180327869"/>
      <point x="157.77049180327867" y="1051.27868852459" type="curve" smooth="yes"/>
      <point x="157.77049180327867" y="886.6229508196722"/>
      <point x="221.22950819672133" y="790.8524590163935"/>
      <point x="334.655737704918" y="681.8524590163935" type="curve" smooth="yes"/>
      <point x="452.1311475409836" y="564.8032786885245"/>
      <point x="478.8032786885246" y="508.45901639344265"/>
      <point x="478.8032786885246" y="410.5245901639344" type="curve" smooth="yes"/>
      <point x="478.8032786885246" y="253.3606557377049"/>
      <point x="383.2295081967213" y="173.06557377049185"/>
      <point x="254.81967213114754" y="173.06557377049185" type="curve" smooth="yes"/>
      <point x="159.14754098360658" y="173.06557377049185"/>
      <point x="60.721311475409856" y="214.2622950819672"/>
      <point x="-10.393442622950815" y="266.3606557377049" type="curve"/>
      <point x="-45.22950819672131" y="53.19672131147541" type="line"/>
      <point x="25.295081967213118" y="4.0"/>
      <point x="126.50819672131146" y="-20.0"/>
    </contour>
  </outline>
</glyph>
<glyph name="T" format="2">
  <advance width="744.8360655737705"/>
  <unicode hex="0054"/>
  <anchor x="257.91803278688525" y="0.0" name="bottom"/>
  <anchor x="429.5573770491804" y="731.0" name="center"/>
  <anchor x="567.8032786885246" y="1462.0" name="top"/>
  <anchor x="897.8360655737705" y="1462.0" name="topright"/>
  <outline>
    <contour>
      <point x="138.5409836065574" y="0.0" type="line"/>
      <point x="343.2622950819673" y="0.0" type="line"/>
      <point x="615.1803278688525" y="1278.4754098360654" type="line"/>
      <point x="862.639344262295" y="1278.4754098360654" type="line"/>
      <point x="902.72131147541" y="1462.0" type="line"/>
      <point x="202.08196721311472" y="1462.0" type="line"/>
      <point x="162.0" y="1278.4754098360654" type="line"/>
      <point x="410.45901639344254" y="1278.4754098360654" type="line"/>
    </contour>
  </outline>
</glyph>
<glyph name="U" format="2">
  <advance width="1000.1967213114754"/>
  <unicode hex="0055"/>
  <anchor x="385.3770491803278" y="0.0" name="bottom"/>
  <anchor x="695.2622950819673" y="1462.0" name="top"/>
  <anchor x="1152.5245901639346" y="1462.0" name="topright"/>
  <outline>
    <contour>
      <point x="381.2459016393443" y="-20.0" type="curve" smooth="yes"/>
      <point x="656.4262295081968" y="-20.0"/>
      <point x="783.0491803278687" y="159.57377049180326"/>
      <point x="845.4918032786884" y="456.1147540983606" type="curve" smooth="yes"/>
      <point x="1061.6065573770493" y="1462.0" type="line"/>
      <point x="856.8852459016393" y="1462.0" type="line"/>
      <point x="645.6557377049181" y="480.08196721311475" type="line" smooth="yes"/>
      <point x="597.967213114754" y="258.672131147541"/>
      <point x="533.7213114754098" y="164.4098360655738"/>
      <point x="408.00000000000006" y="164.4098360655738" type="curve" smooth="yes"/>
      <point x="322.1803278688525" y="164.4098360655738"/>
      <point x="275.9344262295082" y="216.09836065573774"/>
      <point x="275.9344262295082" y="326.91803278688525" type="curve" smooth="yes"/>
      <point x="275.9344262295082" y="365.2622950819672"/>
      <point x="281.6065573770493" y="413.60655737704917"/>
      <point x="292.49180327868856" y="463.39344262295083" type="curve" smooth="yes"/>
      <point x="504.8360655737705" y="1462.0" type="line"/>
      <point x="300.11475409836066" y="1462.0" type="line"/>
      <point x="88.88524590163934" y="470.5081967213114" type="line" smooth="yes"/>
      <point x="75.77049180327867" y="408.95081967213116"/>
      <point x="68.88524590163937" y="346.6229508196721"/>
      <point x="68.88524590163937" y="297.62295081967216" type="curve" smooth="yes"/>
      <point x="68.88524590163937" y="96.42622950819671"/>
      <point x="185.29508196721315" y="-20.0"/>
    </contour>
  </outline>
</glyph>
<glyph name="V" format="2">
  <advance width="881.4426229508197"/>
  <unicode hex="0056"/>
  <anchor x="326.00000000000006" y="0.0" name="bottom"/>
  <anchor x="635.4426229508198" y="1462.0" name="top"/>
  <anchor x="1035.4426229508197" y="1462.0" name="topright"/>
  <outline>
    <contour>
      <point x="192.40983606557378" y="0.0" type="line"/>
      <point x="428.32786885245895" y="0.0" type="line"/>
      <point x="1053.8688524590164" y="1462.0" type="line"/>
      <point x="834.4918032786885" y="1462.0" type="line"/>
      <point x="462.0655737704919" y="549.8032786885248" type="line" smooth="yes"/>
      <point x="418.8360655737705" y="444.32786885245906"/>
      <point x="388.4918032786885" y="353.8688524590164"/>
      <point x="367.6065573770492" y="277.2131147540984" type="curve"/>
      <point x="363.60655737704917" y="277.2131147540984" type="line"/>
      <point x="374.4918032786885" y="400.01639344262304"/>
      <point x="378.4918032786885" y="489.72131147540983"/>
      <point x="379.3770491803279" y="581.0655737704919" type="curve" smooth="yes"/>
      <point x="389.1475409836066" y="1462.0" type="line"/>
      <point x="179.5409836065574" y="1462.0" type="line"/>
    </contour>
  </outline>
</glyph>
<glyph name="W" format="2">
  <advance width="1379.934426229508"/>
  <unicode hex="0057"/>
  <anchor x="575.8032786885246" y="0.0" name="bottom"/>
  <anchor x="884.8032786885248" y="1462.0" name="top"/>
  <anchor x="1534.6065573770493" y="1462.0" name="topright"/>
  <outline>
    <contour>
      <point x="141.22950819672127" y="0.0" type="line"/>
      <point x="377.6065573770491" y="0.0" type="line"/>
      <point x="705.7540983606558" y="847.4918032786884" type="line" smooth="yes"/>
      <point x="730.3114754098361" y="910.6065573770491"/>
      <point x="752.4262295081967" y="976.950819672131"/>
      <point x="773.5409836065575" y="1042.0655737704917" type="curve"/>
      <point x="777.5409836065573" y="1042.0655737704917" type="line"/>
      <point x="771.5409836065572" y="968.0655737704917"/>
      <point x="765.5409836065573" y="892.950819672131"/>
      <point x="764.4262295081968" y="832.8360655737705" type="curve" smooth="yes"/>
      <point x="735.1803278688525" y="0.0" type="line"/>
      <point x="974.0000000000001" y="0.0" type="line"/>
      <point x="1548.1311475409836" y="1462.0" type="line"/>
      <point x="1340.295081967213" y="1462.0" type="line"/>
      <point x="1017.0655737704917" y="626.2786885245902" type="line" smooth="yes"/>
      <point x="980.2950819672133" y="529.1803278688525"/>
      <point x="947.0655737704919" y="441.6065573770493"/>
      <point x="911.8196721311476" y="337.672131147541" type="curve"/>
      <point x="907.8196721311476" y="337.672131147541" type="line"/>
      <point x="913.8196721311475" y="426.78688524590166"/>
      <point x="920.606557377049" y="511.9344262295082"/>
      <point x="925.4918032786886" y="635.8524590163936" type="curve" smooth="yes"/>
      <point x="954.1639344262295" y="1462.0" type="line"/>
      <point x="774.6229508196723" y="1462.0" type="line"/>
      <point x="441.85245901639354" y="614.4918032786885" type="line" smooth="yes"/>
      <point x="405.2950819672131" y="521.1475409836066"/>
      <point x="370.0655737704918" y="428.1311475409836"/>
      <point x="337.95081967213116" y="336.78688524590166" type="curve"/>
      <point x="333.95081967213116" y="336.78688524590166" type="line"/>
      <point x="340.83606557377044" y="406.13114754098365"/>
      <point x="346.8360655737705" y="497.47540983606564"/>
      <point x="351.72131147540983" y="614.4918032786885" type="curve" smooth="yes"/>
      <point x="379.6065573770492" y="1462.0" type="line"/>
      <point x="180.65573770491804" y="1462.0" type="line"/>
    </contour>
  </outline>
</glyph>
<glyph name="Y" format="2">
  <advance width="791.4098360655738"/>
  <unicode hex="0059"/>
  <anchor x="282.9836065573771" y="0.0" name="bottom"/>
  <anchor x="591.983606557377" y="1462.0" name="top"/>
  <anchor x="946.2950819672132" y="1462.0" name="topright"/>
  <outline>
    <contour>
      <point x="164.16393442622953" y="0.0" type="line"/>
      <point x="368.32786885245906" y="0.0" type="line"/>
      <point x="489.32786885245906" y="566.1147540983605" type="line"/>
      <point x="971.3934426229508" y="1462.0" type="line"/>
      <point x="752.688524590164" y="1462.0" type="line"/>
      <point x="438.81967213114746" y="832.2459016393443" type="line"/>
      <point x="390.47540983606564" y="1462.0" type="line"/>
      <point x="177.54098360655738" y="1462.0" type="line"/>
      <point x="281.72131147540983" y="560.3442622950819" type="line"/>
    </contour>
  </outline>
</glyph>
<glyph name="backslash" format="2">
  <advance width="723.4426229508197"/>
  <unicode hex="005C"/>
  <outline>
    <contour>
      <point x="390.7704918032787" y="-9.54098360655738" type="line"/>
      <point x="570.1967213114755" y="-9.54098360655738" type="line"/>
      <point x="382.09836065573774" y="1471.9836065573772" type="line"/>
      <point x="205.2295081967213" y="1471.9836065573772" type="line"/>
    </contour>
  </outline>
</glyph>
<glyph name="asciicircum" format="2">
  <advance width="847.7540983606557"/>
  <unicode hex="005E"/>
  <outline>
    <contour>
      <point x="7.508196721311473" y="636.3934426229509" type="line"/>
      <point x="198.14754098360658" y="636.3934426229509" type="line"/>
      <point x="524.8360655737704" y="1184.360655737705" type="line"/>
      <point x="665.7704918032788" y="636.3934426229509" type="line"/>
      <point x="846.4098360655738" y="636.3934426229509" type="line"/>
      <point x="635.6393442622951" y="1462.0" type="line"/>
      <point x="513.2622950819673" y="1462.0" type="line"/>
    </contour>
  </outline>
</glyph>
<glyph name="underscore" format="2">
  <advance width="659.9508196721312"/>
  <unicode hex="005F"/>
  <outline>
    <contour>
      <point x="-182.42622950819674" y="-314.0327868852459" type="line"/>
      <point x="478.5245901639345" y="-314.0327868852459" type="line"/>
      <point x="509.72131147540983" y="-161.14754098360655" type="line"/>
      <point x="-153.11475409836066" y="-161.14754098360655" type="line"/>
    </contour>
  </outline>
</glyph>
<glyph name="c" format="2">
  <advance width="687.0655737704918"/>
  <unicode hex="0063"/>
  <anchor x="227.14754098360652" y="0.0" name="bottom"/>
  <anchor x="461.9180327868852" y="1105.9672131147543" name="top"/>
  <anchor x="763.9508196721312" y="1105.9672131147543" name="topright"/>
  <outline>
    <contour>
      <point x="324.95081967213116" y="-20.0" type="curve" smooth="yes"/>
      <point x="410.688524590164" y="-20.0"/>
      <point x="495.7540983606557" y="9.311475409836067"/>
      <point x="553.1803278688525" y="46.73770491803279" type="curve"/>
      <point x="553.1803278688525" y="218.49180327868854" type="line"/>
      <point x="486.4262295081968" y="174.4098360655738"/>
      <point x="425.5573770491804" y="151.75409836065572"/>
      <point x="373.4590163934426" y="151.75409836065572" type="curve" smooth="yes"/>
      <point x="292.7540983606558" y="151.75409836065572"/>
      <point x="251.06557377049182" y="213.21311475409837"/>
      <point x="251.06557377049182" y="344.3770491803278" type="curve" smooth="yes"/>
      <point x="251.06557377049182" y="571.1639344262295"/>
      <point x="341.5573770491804" y="953.7704918032786"/>
      <point x="542.377049180328" y="953.7704918032786" type="curve" smooth="yes"/>
      <point x="585.1475409836065" y="953.7704918032786"/>
      <point x="632.8032786885246" y="936.672131147541"/>
      <point x="669.5737704918033" y="909.0163934426231" type="curve"/>
      <point x="749.9508196721312" y="1069.2295081967213" type="line"/>
      <point x="689.983606557377" y="1108.4262295081967"/>
      <point x="623.4590163934427" y="1126.409836065574"/>
      <point x="542.6065573770492" y="1126.409836065574" type="curve" smooth="yes"/>
      <point x="188.22950819672133" y="1126.409836065574"/>
      <point x="48.34426229508197" y="647.8360655737704"/>
      <point x="48.34426229508197" y="319.4098360655738" type="curve" smooth="yes"/>
      <point x="48.34426229508197" y="100.6393442622951"/>
      <point x="146.0983606557377" y="-20.0"/>
    </contour>
  </outline>
</glyph>
<glyph name="e" format="2">
  <advance width="818.295081967213"/>
  <unicode hex="0065"/>
  <anchor x="294.1475409836066" y="0.0" name="bottom"/>
  <anchor x="524.1475409836066" y="1083.8852459016396" name="top"/>
  <anchor x="891.1803278688525" y="1083.8852459016396" name="topright"/>
  <outline>
    <contour>
      <point x="352.3770491803279" y="-20.0" type="curve" smooth="yes"/>
      <point x="452.5737704918033" y="-20.0"/>
      <point x="542.0983606557377" y="-1.114754098360656"/>
      <point x="625.6065573770492" y="51.852459016393446" type="curve"/>
      <point x="625.6065573770492" y="210.52459016393442" type="line"/>
      <point x="537.639344262295" y="161.09836065573774"/>
      <point x="479.54098360655746" y="142.655737704918"/>
      <point x="400.2295081967213" y="142.655737704918" type="curve" smooth="yes"/>
      <point x="293.8688524590164" y="142.655737704918"/>
      <point x="241.52459016393442" y="203.45901639344265"/>
      <point x="241.52459016393442" y="347.72131147540983" type="curve" smooth="yes"/>
      <point x="241.52459016393442" y="393.1967213114754"/>
      <point x="246.6393442622951" y="441.11475409836066"/>
      <point x="255.75409836065575" y="486.4754098360656" type="curve"/>
      <point x="271.1967213114754" y="486.4754098360656" type="line" smooth="yes"/>
      <point x="592.4098360655738" y="486.4754098360656"/>
      <point x="790.4918032786885" y="632.3934426229509"/>
      <point x="790.4918032786885" y="883.4754098360655" type="curve" smooth="yes"/>
      <point x="790.4918032786885" y="1039.1147540983607"/>
      <point x="693.4262295081968" y="1125.5245901639346"/>
      <point x="545.0327868852461" y="1125.5245901639346" type="curve" smooth="yes"/>
      <point x="241.16393442622945" y="1125.5245901639346"/>
      <point x="46.34426229508197" y="746.9344262295082"/>
      <point x="46.34426229508197" y="325.18032786885243" type="curve" smooth="yes"/>
      <point x="46.34426229508197" y="105.75409836065575"/>
      <point x="161.31147540983602" y="-20.0"/>
    </contour>
    <contour>
      <point x="284.0655737704918" y="633.2622950819672" type="line"/>
      <point x="332.40983606557376" y="832.327868852459"/>
      <point x="421.78688524590166" y="965.0819672131147"/>
      <point x="517.7213114754098" y="965.0819672131147" type="curve" smooth="yes"/>
      <point x="577.4098360655738" y="965.0819672131147"/>
      <point x="605.9672131147541" y="927.8524590163934"/>
      <point x="605.9672131147541" y="869.2786885245902" type="curve" smooth="yes"/>
      <point x="605.9672131147541" y="730.0819672131148"/>
      <point x="518.5737704918033" y="633.2622950819672"/>
      <point x="290.0655737704918" y="633.2622950819672" type="curve" smooth="yes"/>
    </contour>
  </outline>
</glyph>
<glyph name="g" format="2">
  <advance width="846.9016393442624"/>
  <unicode hex="0067"/>
  <note>
g
</note>
  <anchor x="194.0491803278689" y="-492.0" name="bottom"/>
  <anchor x="530.8032786885245" y="1105.9672131147543" name="top"/>
  <anchor x="947.7540983606558" y="1098.754098360656" name="topright"/>
  <outline>
    <contour>
      <point x="200.9344262295082" y="-492.0" type="curve" smooth="yes"/>
      <point x="313.3606557377049" y="-491.0"/>
      <point x="420.4590163934426" y="-460.77049180327873"/>
      <point x="504.00000000000006" y="-403.8688524590164" type="curve" smooth="yes"/>
      <point x="625.3934426229509" y="-327.0983606557377"/>
      <point x="703.4754098360655" y="-195.78688524590166"/>
      <point x="703.4754098360655" y="-33.06557377049179" type="curve" smooth="yes"/>
      <point x="703.4754098360655" y="105.91803278688526"/>
      <point x="636.3934426229508" y="194.26229508196718"/>
      <point x="477.1639344262295" y="194.70491803278688" type="curve"/>
      <point x="314.09836065573774" y="194.7049180327869" type="line"/>
      <point x="284.88524590163934" y="195.2622950819672"/>
      <point x="263.0" y="197.81967213114754"/>
      <point x="249.00000000000006" y="203.93442622950818" type="curve" smooth="yes"/>
      <point x="229.88524590163934" y="212.16393442622953"/>
      <point x="221.7704918032787" y="227.5081967213115"/>
      <point x="221.7704918032787" y="247.9672131147541" type="curve" smooth="yes"/>
      <point x="221.7704918032787" y="288.7540983606558"/>
      <point x="254.4426229508197" y="342.32786885245895"/>
      <point x="321.91803278688525" y="372.90163934426226" type="curve"/>
      <point x="332.4754098360656" y="377.4590163934426"/>
      <point x="355.70491803278696" y="377.90163934426226"/>
      <point x="393.67213114754094" y="377.90163934426226" type="curve" smooth="yes"/>
      <point x="510.19672131147547" y="377.9016393442622"/>
      <point x="605.5081967213115" y="424.6885245901639"/>
      <point x="675.049180327869" y="504.6885245901639" type="curve" smooth="yes"/>
      <point x="747.2622950819672" y="590.4754098360656"/>
      <point x="794.032786885246" y="724.2459016393443"/>
      <point x="794.032786885246" y="836.9180327868853" type="curve" smooth="yes"/>
      <point x="794.0327868852459" y="879.6065573770491"/>
      <point x="787.3606557377049" y="917.7377049180328"/>
      <point x="773.016393442623" y="945.9672131147541" type="curve"/>
      <point x="906.2295081967214" y="977.8360655737704" type="line"/>
      <point x="931.0983606557377" y="1098.754098360656" type="line"/>
      <point x="655.0983606557377" y="1098.754098360656" type="line"/>
      <point x="627.4426229508196" y="1110.754098360656"/>
      <point x="583.016393442623" y="1125.081967213115"/>
      <point x="518.3770491803277" y="1125.081967213115" type="curve" smooth="yes"/>
      <point x="441.4918032786885" y="1125.081967213115"/>
      <point x="365.8360655737705" y="1097.4098360655737"/>
      <point x="308.0655737704918" y="1052.950819672131" type="curve" smooth="yes"/>
      <point x="184.0983606557377" y="964.72131147541"/>
      <point x="117.0" y="803.7213114754098"/>
      <point x="117.0" y="652.1803278688525" type="curve" smooth="yes"/>
      <point x="117.0" y="549.0655737704917"/>
      <point x="151.55737704918033" y="469.0819672131148"/>
      <point x="203.67213114754097" y="435.639344262295" type="curve"/>
      <point x="104.21311475409837" y="367.0819672131147"/>
      <point x="51.78688524590164" y="298.8524590163934"/>
      <point x="51.78688524590164" y="222.98360655737704" type="curve" smooth="yes"/>
      <point x="51.78688524590164" y="163.44262295081967"/>
      <point x="82.32786885245902" y="114.67213114754097"/>
      <point x="123.7704918032787" y="95.11475409836066" type="curve"/>
      <point x="-38.000000000000014" y="34.655737704918025"/>
      <point x="-135.655737704918" y="-84.68852459016395"/>
      <point x="-137.21311475409834" y="-232.34426229508193" type="curve" smooth="yes"/>
      <point x="-138.77049180327867" y="-406.016393442623"/>
      <point x="-21.557377049180328" y="-493.55737704918033"/>
    </contour>
    <contour>
      <point x="208.26229508196718" y="-340.44262295081967" type="curve" smooth="yes"/>
      <point x="108.11475409836068" y="-342.55737704918033"/>
      <point x="50.75409836065576" y="-311.86885245901635"/>
      <point x="50.75409836065576" y="-216.24590163934423" type="curve" smooth="yes"/>
      <point x="50.75409836065576" y="-113.18032786885246"/>
      <point x="154.70491803278688" y="16.18032786885245"/>
      <point x="244.73770491803276" y="16.18032786885245" type="curve"/>
      <point x="379.4918032786885" y="16.18032786885246" type="line"/>
      <point x="429.6065573770491" y="15.065573770491802"/>
      <point x="463.2786885245902" y="6.393442622950817"/>
      <point x="481.39344262295094" y="-8.950819672131148" type="curve" smooth="yes"/>
      <point x="502.1803278688525" y="-27.524590163934437"/>
      <point x="508.7377049180328" y="-53.65573770491803"/>
      <point x="508.7377049180328" y="-83.90163934426229" type="curve" smooth="yes"/>
      <point x="508.7377049180328" y="-160.91803278688525"/>
      <point x="468.18032786885254" y="-231.8360655737705"/>
      <point x="409.6229508196722" y="-275.4098360655738" type="curve" smooth="yes"/>
      <point x="355.95081967213116" y="-317.54098360655735"/>
      <point x="283.04918032786884" y="-339.88524590163934"/>
    </contour>
    <contour>
      <point x="394.672131147541" y="520.2459016393442" type="curve" smooth="yes"/>
      <point x="359.7704918032787" y="520.2459016393442"/>
      <point x="338.75409836065575" y="535.4754098360656"/>
      <point x="326.63934426229514" y="564.3770491803278" type="curve" smooth="yes"/>
      <point x="314.5245901639345" y="590.4918032786885"/>
      <point x="312.73770491803276" y="628.6065573770492"/>
      <point x="317.50819672131155" y="675.9344262295083" type="curve" smooth="yes"/>
      <point x="328.6065573770492" y="809.655737704918"/>
      <point x="408.77049180327873" y="983.7377049180328"/>
      <point x="520.2459016393443" y="983.7377049180328" type="curve" smooth="yes"/>
      <point x="544.1475409836066" y="983.7377049180328"/>
      <point x="561.377049180328" y="975.7377049180328"/>
      <point x="573.1639344262296" y="962.9508196721313" type="curve" smooth="yes"/>
      <point x="595.5081967213114" y="939.1639344262295"/>
      <point x="600.7377049180328" y="894.3770491803278"/>
      <point x="593.9672131147541" y="831.7213114754098" type="curve" smooth="yes"/>
      <point x="578.5409836065573" y="658.5573770491803"/>
      <point x="499.1639344262295" y="520.2459016393442"/>
    </contour>
  </outline>
</glyph>
<glyph name="i" format="2">
  <advance width="421.32786885245906"/>
  <unicode hex="0069"/>
  <anchor x="96.60655737704917" y="0.0" name="bottom"/>
  <anchor x="419.14754098360663" y="1527.1475409836066" name="top"/>
  <anchor x="588.8688524590162" y="1527.1475409836066" name="topright"/>
  <outline>
    <contour>
      <point x="-6.426229508196725" y="0.0" type="line"/>
      <point x="190.08196721311478" y="0.0" type="line"/>
      <point x="424.4098360655737" y="1105.9672131147543" type="line"/>
      <point x="228.34426229508196" y="1105.9672131147543" type="line"/>
    </contour>
    <contour>
      <point x="368.83606557377044" y="1273.1475409836066" type="curve" smooth="yes"/>
      <point x="451.22950819672127" y="1273.1475409836066"/>
      <point x="505.5245901639345" y="1348.2295081967213"/>
      <point x="505.5245901639345" y="1440.1967213114751" type="curve" smooth="yes"/>
      <point x="505.5245901639345" y="1499.606557377049"/>
      <point x="471.44262295081967" y="1527.1475409836066"/>
      <point x="411.3770491803279" y="1527.1475409836066" type="curve" smooth="yes"/>
      <point x="317.88524590163934" y="1527.1475409836066"/>
      <point x="274.1311475409836" y="1441.9672131147543"/>
      <point x="274.1311475409836" y="1363.770491803279" type="curve" smooth="yes"/>
      <point x="274.1311475409836" y="1303.245901639344"/>
      <point x="305.8852459016393" y="1273.1475409836066"/>
    </contour>
  </outline>
</glyph>
<glyph name="n" format="2">
  <advance width="879.1803278688525"/>
  <unicode hex="006E"/>
  <anchor x="329.8032786885246" y="0.0" name="bottom"/>
  <anchor x="561.8032786885246" y="1103.3770491803282" name="top"/>
  <anchor x="951.0655737704918" y="1097.6065573770493" name="topright"/>
  <outline>
    <contour>
      <point x="-7.3114754098360635" y="0.0" type="line"/>
      <point x="191.1967213114754" y="0.0" type="line"/>
      <point x="315.3114754098361" y="589.1147540983607" type="line" smooth="yes"/>
      <point x="363.88524590163934" y="814.0983606557376"/>
      <point x="430.80327868852453" y="946.4426229508196"/>
      <point x="541.295081967213" y="946.4426229508196" type="curve" smooth="yes"/>
      <point x="596.4262295081967" y="946.4426229508196"/>
      <point x="621.8852459016393" y="913.655737704918"/>
      <point x="621.8852459016393" y="855.7540983606557" type="curve" smooth="yes"/>
      <point x="621.8852459016393" y="805.7377049180327"/>
      <point x="607.7704918032787" y="735.1639344262295"/>
      <point x="594.655737704918" y="670.0491803278688" type="curve" smooth="yes"/>
      <point x="453.4262295081966" y="0.0" type="line"/>
      <point x="649.3770491803278" y="0.0" type="line"/>
      <point x="800.2622950819673" y="708.5409836065575" type="line" smooth="yes"/>
      <point x="814.2622950819672" y="780.4262295081967"/>
      <point x="826.9344262295082" y="852.2295081967212"/>
      <point x="826.9344262295082" y="905.6885245901639" type="curve" smooth="yes"/>
      <point x="826.9344262295082" y="1063.8524590163936"/>
      <point x="732.7540983606557" y="1126.4098360655737"/>
      <point x="618.5409836065575" y="1126.4098360655737" type="curve" smooth="yes"/>
      <point x="520.8688524590165" y="1126.4098360655737"/>
      <point x="437.42622950819674" y="1066.9672131147543"/>
      <point x="376.983606557377" y="961.9508196721312" type="curve"/>
      <point x="370.98360655737713" y="961.9508196721312" type="line"/>
      <point x="386.55737704918033" y="1105.967213114754" type="line"/>
      <point x="227.4590163934426" y="1105.967213114754" type="line"/>
    </contour>
  </outline>
</glyph>
<glyph name="o" format="2">
  <advance width="867.1967213114754"/>
  <unicode hex="006F"/>
  <anchor x="319.3770491803279" y="0.0" name="bottom"/>
  <anchor x="487.96721311475414" y="543.0000000000001" name="center"/>
  <anchor x="548.377049180328" y="1083.8852459016396" name="top"/>
  <anchor x="940.6393442622951" y="1083.8852459016396" name="topright"/>
  <outline>
    <contour>
      <point x="331.14754098360663" y="-20.0" type="curve" smooth="yes"/>
      <point x="670.4098360655738" y="-20.0"/>
      <point x="819.1803278688525" y="444.0"/>
      <point x="819.1803278688525" y="777.5737704918033" type="curve" smooth="yes"/>
      <point x="819.1803278688525" y="997.8852459016392"/>
      <point x="715.2131147540983" y="1126.4098360655737"/>
      <point x="538.3770491803278" y="1126.4098360655737" type="curve" smooth="yes"/>
      <point x="175.7704918032787" y="1126.4098360655737"/>
      <point x="47.459016393442624" y="608.1475409836065"/>
      <point x="47.459016393442624" y="324.72131147540983" type="curve" smooth="yes"/>
      <point x="47.459016393442624" y="103.52459016393443"/>
      <point x="151.8688524590164" y="-20.0"/>
    </contour>
    <contour>
      <point x="353.45901639344265" y="149.54098360655738" type="curve" smooth="yes"/>
      <point x="281.8688524590164" y="149.54098360655738"/>
      <point x="246.4098360655738" y="211.67213114754102"/>
      <point x="246.4098360655738" y="322.72131147540983" type="curve" smooth="yes"/>
      <point x="246.4098360655738" y="527.7704918032786"/>
      <point x="331.9836065573771" y="957.5409836065573"/>
      <point x="512.622950819672" y="957.5409836065573" type="curve" smooth="yes"/>
      <point x="585.5409836065575" y="957.5409836065573"/>
      <point x="619.6721311475411" y="892.6229508196722"/>
      <point x="619.6721311475411" y="780.688524590164" type="curve" smooth="yes"/>
      <point x="619.6721311475411" y="547.4918032786886"/>
      <point x="521.311475409836" y="149.54098360655738"/>
    </contour>
  </outline>
</glyph>
<glyph name="q" format="2">
  <advance width="894.9836065573769"/>
  <unicode hex="0071"/>
  <anchor x="229.6065573770492" y="-489.0" name="bottom"/>
  <anchor x="562.4918032786885" y="1083.8852459016396" name="top"/>
  <anchor x="968.9836065573771" y="1083.8852459016396" name="topright"/>
  <outline>
    <contour>
      <point x="363.01639344262287" y="-489.0" type="line"/>
      <point x="559.4098360655737" y="-489.0" type="line"/>
      <point x="898.0655737704918" y="1105.9672131147543" type="line"/>
      <point x="727.655737704918" y="1105.9672131147543" type="line"/>
      <point x="683.7704918032787" y="966.4098360655738" type="line"/>
      <point x="679.7704918032787" y="966.4098360655738" type="line"/>
      <point x="653.0" y="1072.7377049180327"/>
      <point x="596.8852459016393" y="1126.409836065574"/>
      <point x="491.78688524590166" y="1126.409836065574" type="curve" smooth="yes"/>
      <point x="183.344262295082" y="1126.409836065574"/>
      <point x="43.68852459016394" y="582.4262295081967"/>
      <point x="43.68852459016394" y="285.19672131147547" type="curve" smooth="yes"/>
      <point x="43.68852459016394" y="85.54098360655736"/>
      <point x="123.22950819672133" y="-20.0"/>
      <point x="257.1147540983606" y="-20.0" type="curve" smooth="yes"/>
      <point x="352.2295081967214" y="-20.0"/>
      <point x="428.688524590164" y="28.360655737704928"/>
      <point x="498.688524590164" y="132.37704918032784" type="curve"/>
      <point x="503.5737704918033" y="132.37704918032784" type="line"/>
      <point x="485.36065573770503" y="70.27868852459017"/>
      <point x="468.8032786885245" y="8.622950819672113"/>
      <point x="460.80327868852453" y="-28.37704918032788" type="curve" smooth="yes"/>
    </contour>
    <contour>
      <point x="340.0163934426229" y="152.63934426229505" type="curve" smooth="yes"/>
      <point x="277.4262295081967" y="152.63934426229505"/>
      <point x="248.4098360655738" y="203.21311475409837"/>
      <point x="248.4098360655738" y="314.03278688524597" type="curve" smooth="yes"/>
      <point x="248.4098360655738" y="538.1147540983608"/>
      <point x="348.2131147540984" y="952.655737704918"/>
      <point x="515.967213114754" y="952.655737704918" type="curve" smooth="yes"/>
      <point x="582.8852459016392" y="952.655737704918"/>
      <point x="620.1311475409836" y="902.0819672131148"/>
      <point x="620.1311475409836" y="811.2622950819673" type="curve" smooth="yes"/>
      <point x="620.1311475409836" y="592.4262295081967"/>
      <point x="520.1967213114755" y="152.63934426229505"/>
    </contour>
  </outline>
</glyph>
<glyph name="r" format="2">
  <advance width="600.4098360655738"/>
  <unicode hex="0072"/>
  <anchor x="186.14754098360655" y="0.0" name="bottom"/>
  <anchor x="415.14754098360663" y="1083.8852459016396" name="top"/>
  <anchor x="674.4098360655737" y="1083.8852459016396" name="topright"/>
  <outline>
    <contour>
      <point x="-6.199508196721312" y="0.0" type="line"/>
      <point x="190.31147540983608" y="0.0" type="line"/>
      <point x="311.311475409836" y="572.1147540983607" type="line" smooth="yes"/>
      <point x="345.09836065573774" y="736.2786885245902"/>
      <point x="422.672131147541" y="916.5901639344262"/>
      <point x="558.9180327868853" y="916.5901639344262" type="curve" smooth="yes"/>
      <point x="588.6885245901639" y="916.5901639344262"/>
      <point x="614.344262295082" y="911.7049180327868"/>
      <point x="638.5573770491803" y="901.7049180327867" type="curve"/>
      <point x="697.0655737704917" y="1113.0819672131147" type="line"/>
      <point x="668.4098360655737" y="1122.4098360655737"/>
      <point x="643.4098360655737" y="1126.4098360655737"/>
      <point x="617.4098360655737" y="1126.4098360655737" type="curve" smooth="yes"/>
      <point x="507.75409836065575" y="1126.4098360655737"/>
      <point x="433.5245901639344" y="1063.6229508196723"/>
      <point x="369.8688524590164" y="929.5081967213114" type="curve"/>
      <point x="362.5409836065574" y="929.5081967213114" type="line"/>
      <point x="381.44262295081967" y="1105.9672131147543" type="line"/>
      <point x="227.45901639344262" y="1105.9672131147543" type="line"/>
    </contour>
  </outline>
</glyph>
<glyph name="s" format="2">
  <advance width="680.639344262295"/>
  <unicode hex="0073"/>
  <anchor x="223.37704918032787" y="0.0" name="bottom"/>
  <anchor x="458.1475409836065" y="1105.9672131147543" name="top"/>
  <anchor x="757.5245901639344" y="1105.9672131147543" name="topright"/>
  <outline>
    <contour>
      <point x="225.80327868852459" y="-20.0" type="curve" smooth="yes"/>
      <point x="444.311475409836" y="-20.0"/>
      <point x="570.2786885245902" y="124.50819672131148"/>
      <point x="570.2786885245902" y="329.83606557377044" type="curve" smooth="yes"/>
      <point x="570.2786885245902" y="474.03278688524597"/>
      <point x="522.1803278688524" y="536.5737704918032"/>
      <point x="416.8360655737705" y="641.1639344262294" type="curve" smooth="yes"/>
      <point x="332.1803278688525" y="721.3934426229508"/>
      <point x="314.2786885245901" y="763.0819672131147"/>
      <point x="314.2786885245901" y="828.1147540983605" type="curve" smooth="yes"/>
      <point x="314.2786885245901" y="909.1639344262295"/>
      <point x="365.86885245901647" y="961.311475409836"/>
      <point x="447.0327868852459" y="961.311475409836" type="curve" smooth="yes"/>
      <point x="502.72131147540983" y="961.311475409836"/>
      <point x="572.0327868852459" y="938.8688524590164"/>
      <point x="626.5737704918033" y="894.3278688524589" type="curve"/>
      <point x="709.4098360655738" y="1048.7704918032787" type="line"/>
      <point x="644.0983606557376" y="1095.311475409836"/>
      <point x="548.8032786885244" y="1126.409836065574"/>
      <point x="439.49180327868856" y="1126.409836065574" type="curve" smooth="yes"/>
      <point x="230.7704918032787" y="1126.409836065574"/>
      <point x="113.0" y="981.8852459016393"/>
      <point x="113.0" y="799.9180327868853" type="curve" smooth="yes"/>
      <point x="113.0" y="688.2295081967213"/>
      <point x="153.36065573770492" y="607.5737704918034"/>
      <point x="250.88524590163934" y="514.9180327868853" type="curve" smooth="yes"/>
      <point x="341.99999999999994" y="424.2295081967213"/>
      <point x="362.78688524590166" y="378.1147540983606"/>
      <point x="362.78688524590166" y="310.29508196721315" type="curve" smooth="yes"/>
      <point x="362.78688524590166" y="207.9016393442623"/>
      <point x="300.7704918032787" y="153.75409836065575"/>
      <point x="202.60655737704917" y="153.75409836065575" type="curve" smooth="yes"/>
      <point x="130.49180327868854" y="153.75409836065575"/>
      <point x="38.50819672131148" y="185.42622950819668"/>
      <point x="-18.131147540983605" y="228.85245901639345" type="curve"/>
      <point x="-18.131147540983605" y="34.54098360655737" type="line"/>
      <point x="35.39344262295083" y="2.0000000000000018"/>
      <point x="117.85245901639344" y="-20.0"/>
    </contour>
  </outline>
</glyph>
<glyph name="t" format="2">
  <advance width="536.1311475409835"/>
  <unicode hex="0074"/>
  <anchor x="174.34426229508193" y="0.0" name="bottom"/>
  <anchor x="266.1967213114754" y="543.0000000000001" name="center"/>
  <anchor x="440.34426229508205" y="1350.655737704918" name="top"/>
  <anchor x="689.8360655737705" y="1350.655737704918" name="topright"/>
  <outline>
    <contour>
      <point x="234.2295081967213" y="-20.0" type="curve" smooth="yes"/>
      <point x="286.7540983606558" y="-20.0"/>
      <point x="360.3606557377049" y="-9.114754098360654"/>
      <point x="412.44262295081967" y="15.75409836065574" type="curve"/>
      <point x="412.44262295081967" y="175.29508196721312" type="line"/>
      <point x="378.688524590164" y="160.6393442622951"/>
      <point x="337.26229508196724" y="154.63934426229508"/>
      <point x="314.4754098360655" y="154.63934426229508" type="curve" smooth="yes"/>
      <point x="270.3606557377049" y="154.63934426229508"/>
      <point x="253.9180327868853" y="174.86885245901644"/>
      <point x="253.9180327868853" y="220.98360655737707" type="curve" smooth="yes"/>
      <point x="253.9180327868853" y="245.327868852459"/>
      <point x="261.0327868852459" y="280.5737704918033"/>
      <point x="268.59016393442624" y="317.1475409836066" type="curve" smooth="yes"/>
      <point x="400.8524590163935" y="939.0983606557378" type="line"/>
      <point x="564.704918032787" y="939.0983606557378" type="line"/>
      <point x="599.9016393442624" y="1105.9672131147543" type="line"/>
      <point x="435.4918032786885" y="1105.9672131147543" type="line"/>
      <point x="488.04918032786884" y="1350.655737704918" type="line"/>
      <point x="347.4918032786885" y="1350.655737704918" type="line"/>
      <point x="252.85245901639345" y="1102.1967213114754" type="line"/>
      <point x="127.0" y="1047.2459016393443" type="line"/>
      <point x="105.01639344262296" y="939.0983606557378" type="line"/>
      <point x="204.34426229508196" y="939.0983606557378" type="line"/>
      <point x="75.96721311475412" y="336.44262295081967" type="line" smooth="yes"/>
      <point x="62.52459016393443" y="273.68852459016387"/>
      <point x="56.52459016393442" y="223.8032786885246"/>
      <point x="56.52459016393442" y="182.14754098360655" type="curve" smooth="yes"/>
      <point x="56.52459016393442" y="59.18032786885246"/>
      <point x="107.0655737704918" y="-20.0"/>
    </contour>
  </outline>
</glyph>
<glyph name="w" format="2">
  <advance width="1175.295081967213"/>
  <unicode hex="0077"/>
  <anchor x="473.86885245901647" y="0.0" name="bottom"/>
  <anchor x="703.4262295081967" y="1083.8852459016396" name="top"/>
  <anchor x="1249.295081967213" y="1083.8852459016396" name="topright"/>
  <outline>
    <contour>
      <point x="107.672131147541" y="1.1102230246251565e-16" type="line"/>
      <point x="328.83606557377044" y="1.1102230246251565e-16" type="line"/>
      <point x="586.6885245901639" y="677.622950819672" type="line" smooth="yes"/>
      <point x="606.8032786885245" y="731.5081967213115"/>
      <point x="624.8032786885245" y="781.6229508196722"/>
      <point x="642.6885245901639" y="838.0655737704917" type="curve"/>
      <point x="646.688524590164" y="838.0655737704917" type="line"/>
      <point x="641.016393442623" y="771.3934426229508"/>
      <point x="636.1311475409836" y="705.1639344262294"/>
      <point x="632.8032786885246" y="641.0491803278688" type="curve" smooth="yes"/>
      <point x="605.0327868852459" y="1.1102230246251565e-16" type="line"/>
      <point x="833.2950819672132" y="1.1102230246251565e-16" type="line"/>
      <point x="1277.2786885245903" y="1105.9672131147543" type="line"/>
      <point x="1079.770491803279" y="1105.9672131147543" type="line"/>
      <point x="872.7868852459017" y="563.2950819672132" type="line" smooth="yes"/>
      <point x="838.6721311475411" y="475.0655737704918"/>
      <point x="810.6721311475408" y="387.5245901639345"/>
      <point x="780.5573770491803" y="299.29508196721315" type="curve"/>
      <point x="776.5573770491803" y="299.29508196721315" type="line"/>
      <point x="780.5573770491802" y="377.19672131147547"/>
      <point x="788.5573770491803" y="463.19672131147547"/>
      <point x="791.4426229508196" y="539.4098360655737" type="curve" smooth="yes"/>
      <point x="813.327868852459" y="1105.9672131147543" type="line"/>
      <point x="590.622950819672" y="1105.9672131147543" type="line"/>
      <point x="363.18032786885243" y="520.2622950819673" type="line" smooth="yes"/>
      <point x="339.2950819672131" y="457.39344262295083"/>
      <point x="310.2950819672131" y="376.5081967213115"/>
      <point x="291.1803278688525" y="309.95081967213116" type="curve"/>
      <point x="286.29508196721315" y="309.95081967213116" type="line"/>
      <point x="292.2950819672131" y="381.16393442622956"/>
      <point x="299.1803278688525" y="458.93442622950823"/>
      <point x="302.9508196721312" y="541.8196721311476" type="curve" smooth="yes"/>
      <point x="321.9508196721312" y="1105.9672131147543" type="line"/>
      <point x="129.88524590163934" y="1105.9672131147543" type="line"/>
    </contour>
  </outline>
</glyph>
<glyph name="braceleft" format="2">
  <advance width="679.0819672131148"/>
  <unicode hex="007B"/>
  <outline>
    <contour>
      <point x="443.2622950819672" y="-324.0" type="curve" smooth="yes"/>
      <point x="455.9180327868853" y="-324.0" type="line"/>
      <point x="459.0327868852459" y="-156.80327868852459" type="line"/>
      <point x="361.22950819672127" y="-154.80327868852459"/>
      <point x="327.9836065573771" y="-119.01639344262293"/>
      <point x="327.9836065573771" y="-35.54098360655737" type="curve" smooth="yes"/>
      <point x="327.9836065573771" y="-17.311475409836053"/>
      <point x="329.9836065573771" y="7.918032786885257"/>
      <point x="335.0983606557377" y="37.262295081967224" type="curve" smooth="yes"/>
      <point x="385.9016393442624" y="278.1639344262295" type="line" smooth="yes"/>
      <point x="394.4590163934426" y="318.0491803278689"/>
      <point x="398.4590163934426" y="353.1475409836066"/>
      <point x="398.4590163934426" y="381.91803278688525" type="curve" smooth="yes"/>
      <point x="398.4590163934426" y="473.9180327868853"/>
      <point x="350.57377049180326" y="537.0163934426231"/>
      <point x="242.26229508196718" y="565.0" type="curve"/>
      <point x="243.14754098360655" y="571.0" type="line"/>
      <point x="397.344262295082" y="594.0"/>
      <point x="474.327868852459" y="679.7704918032788"/>
      <point x="502.44262295081967" y="814.1147540983607" type="curve" smooth="yes"/>
      <point x="567.5737704918033" y="1123.311475409836" type="line" smooth="yes"/>
      <point x="594.032786885246" y="1252.1147540983607"/>
      <point x="645.377049180328" y="1293.360655737705"/>
      <point x="775.0819672131147" y="1295.360655737705" type="curve"/>
      <point x="813.1639344262296" y="1462.0" type="line"/>
      <point x="807.1639344262295" y="1462.0" type="line" smooth="yes"/>
      <point x="561.0" y="1462.0"/>
      <point x="432.4918032786885" y="1409.1967213114754"/>
      <point x="379.5081967213115" y="1168.7049180327867" type="curve" smooth="yes"/>
      <point x="311.81967213114757" y="850.3934426229507" type="line" smooth="yes"/>
      <point x="283.7049180327869" y="715.2622950819672"/>
      <point x="211.91803278688525" y="656.9180327868853"/>
      <point x="74.22950819672131" y="656.032786885246" type="curve"/>
      <point x="38.147540983606554" y="489.6229508196721" type="line"/>
      <point x="162.2622950819672" y="489.6229508196721"/>
      <point x="202.3934426229508" y="449.5081967213115"/>
      <point x="202.3934426229508" y="362.1639344262295" type="curve" smooth="yes"/>
      <point x="202.3934426229508" y="335.1639344262295"/>
      <point x="197.50819672131146" y="310.04918032786884"/>
      <point x="192.39344262295083" y="286.81967213114757" type="curve" smooth="yes"/>
      <point x="140.70491803278688" y="38.049180327868854" type="line" smooth="yes"/>
      <point x="133.26229508196724" y="-0.9508196721311464"/>
      <point x="127.26229508196722" y="-38.606557377049185"/>
      <point x="127.26229508196722" y="-74.04918032786884" type="curve" smooth="yes"/>
      <point x="127.26229508196722" y="-235.13114754098362"/>
      <point x="219.45901639344262" y="-322.88524590163934"/>
    </contour>
  </outline>
</glyph>
<glyph name="bar" format="2">
  <advance width="761.5081967213114"/>
  <unicode hex="007C"/>
  <outline>
    <contour>
      <point x="288.8196721311475" y="-481.45901639344265" type="line"/>
      <point x="465.016393442623" y="-481.45901639344265" type="line"/>
      <point x="465.016393442623" y="1567.6557377049182" type="line"/>
      <point x="288.8196721311475" y="1567.6557377049182" type="line"/>
    </contour>
  </outline>
</glyph>
<glyph name="braceright" format="2">
  <advance width="677.967213114754"/>
  <unicode hex="007D"/>
  <outline>
    <contour>
      <point x="-122.11475409836065" y="-324.0" type="line"/>
      <point x="-117.0" y="-324.0" type="line" smooth="yes"/>
      <point x="126.93442622950822" y="-324.0"/>
      <point x="241.8032786885246" y="-265.3114754098361"/>
      <point x="292.7868852459016" y="-29.704918032786882" type="curve" smooth="yes"/>
      <point x="361.0327868852459" y="288.16393442622945" type="line" smooth="yes"/>
      <point x="388.26229508196724" y="418.9672131147541"/>
      <point x="460.1475409836065" y="482.08196721311475"/>
      <point x="598.622950819672" y="482.9672131147541" type="curve"/>
      <point x="634.1475409836066" y="649.3770491803277" type="line"/>
      <point x="511.0327868852459" y="649.3770491803277"/>
      <point x="469.9016393442623" y="689.4918032786886"/>
      <point x="469.9016393442623" y="776.8360655737705" type="curve" smooth="yes"/>
      <point x="469.9016393442623" y="803.3934426229508"/>
      <point x="474.45901639344265" y="826.9508196721313"/>
      <point x="480.45901639344265" y="851.7377049180328" type="curve" smooth="yes"/>
      <point x="532.1475409836066" y="1099.6229508196723" type="line" smooth="yes"/>
      <point x="540.1475409836066" y="1139.5081967213116"/>
      <point x="544.1475409836066" y="1188.2622950819673"/>
      <point x="544.1475409836066" y="1222.5901639344265" type="curve" smooth="yes"/>
      <point x="544.1475409836066" y="1381.1147540983607"/>
      <point x="466.27868852459017" y="1462.0"/>
      <point x="251.80327868852459" y="1462.0" type="curve" smooth="yes"/>
      <point x="239.36065573770495" y="1462.0" type="line"/>
      <point x="204.39344262295083" y="1295.360655737705" type="line"/>
      <point x="301.6393442622951" y="1293.360655737705"/>
      <point x="344.8688524590164" y="1255.4590163934427"/>
      <point x="344.8688524590164" y="1174.5409836065573" type="curve" smooth="yes"/>
      <point x="344.8688524590164" y="1153.8688524590164"/>
      <point x="342.86885245901647" y="1129.081967213115"/>
      <point x="337.1967213114754" y="1100.737704918033" type="curve" smooth="yes"/>
      <point x="286.3934426229508" y="860.8360655737705" type="line" smooth="yes"/>
      <point x="277.50819672131155" y="822.0655737704918"/>
      <point x="273.50819672131144" y="787.295081967213"/>
      <point x="273.50819672131144" y="757.0819672131148" type="curve" smooth="yes"/>
      <point x="273.50819672131144" y="663.4098360655738"/>
      <point x="322.27868852459017" y="601.5409836065573"/>
      <point x="430.03278688524597" y="573.0" type="curve"/>
      <point x="429.1475409836066" y="567.0" type="line"/>
      <point x="275.5081967213115" y="545.0"/>
      <point x="197.96721311475412" y="459.22950819672127"/>
      <point x="169.85245901639342" y="324.8852459016394" type="curve" smooth="yes"/>
      <point x="105.27868852459017" y="15.688524590163942" type="line" smooth="yes"/>
      <point x="78.04918032786885" y="-109.11475409836066"/>
      <point x="16.819672131147534" y="-156.8032786885246"/>
      <point x="-121.0" y="-156.80327868852459" type="curve"/>
    </contour>
  </outline>
</glyph>
<glyph name="exclamdown" format="2">
  <advance width="492.06557377049177"/>
  <unicode hex="00A1"/>
  <outline>
    <contour>
      <point x="-60.262295081967224" y="-376.344262295082" type="line"/>
      <point x="168.67213114754097" y="-376.344262295082" type="line"/>
      <point x="360.1475409836065" y="669.6229508196722" type="line"/>
      <point x="195.9672131147541" y="669.6229508196722" type="line"/>
    </contour>
    <contour>
      <point x="315.2295081967213" y="838.9672131147541" type="curve" smooth="yes"/>
      <point x="416.72131147540983" y="838.9672131147541"/>
      <point x="472.9180327868853" y="924.9344262295081"/>
      <point x="472.9180327868853" y="1020.2295081967213" type="curve" smooth="yes"/>
      <point x="472.9180327868853" y="1085.639344262295"/>
      <point x="433.49180327868856" y="1120.1803278688524"/>
      <point x="368.5409836065574" y="1120.1803278688524" type="curve" smooth="yes"/>
      <point x="286.80327868852453" y="1120.1803278688524"/>
      <point x="220.73770491803276" y="1043.983606557377"/>
      <point x="220.73770491803276" y="939.1475409836065" type="curve" smooth="yes"/>
      <point x="220.73770491803276" y="876.622950819672"/>
      <point x="256.4918032786885" y="838.9672131147541"/>
    </contour>
  </outline>
</glyph>
<glyph name="cent" format="2">
  <advance width="839.9508196721312"/>
  <unicode hex="00A2"/>
  <outline>
    <contour>
      <point x="273.0655737704918" y="-20.0" type="line"/>
      <point x="400.8852459016394" y="-20.0" type="line"/>
      <point x="443.8852459016393" y="179.34426229508196" type="line"/>
      <point x="508.2131147540984" y="186.2295081967213"/>
      <point x="596.8360655737705" y="207.88524590163934"/>
      <point x="656.4754098360656" y="253.7377049180328" type="curve"/>
      <point x="606.4098360655738" y="399.311475409836" type="line"/>
      <point x="555.2131147540985" y="366.7704918032787"/>
      <point x="502.44262295081967" y="346.44262295081967"/>
      <point x="448.99999999999994" y="346.44262295081967" type="curve" smooth="yes"/>
      <point x="370.5245901639344" y="346.44262295081967"/>
      <point x="330.83606557377055" y="402.2295081967213"/>
      <point x="330.83606557377055" y="534.8360655737704" type="curve" smooth="yes"/>
      <point x="330.83606557377055" y="783.4754098360655"/>
      <point x="436.63934426229514" y="1147.9016393442625"/>
      <point x="626.8032786885245" y="1147.9016393442625" type="curve" smooth="yes"/>
      <point x="664.0327868852459" y="1147.9016393442625"/>
      <point x="713.4590163934427" y="1128.2459016393443"/>
      <point x="748.4590163934427" y="1102.7049180327867" type="curve"/>
      <point x="829.1639344262296" y="1265.360655737705" type="line"/>
      <point x="792.0655737704918" y="1288.4590163934427"/>
      <point x="742.1967213114755" y="1309.8852459016393"/>
      <point x="686.2131147540983" y="1316.7704918032787" type="curve"/>
      <point x="720.327868852459" y="1483.0" type="line"/>
      <point x="593.5081967213114" y="1483.0" type="line"/>
      <point x="558.5081967213115" y="1315.655737704918" type="line"/>
      <point x="257.5409836065574" y="1263.5409836065576"/>
      <point x="128.11475409836066" y="813.8524590163935"/>
      <point x="128.11475409836066" y="524.1803278688524" type="curve" smooth="yes"/>
      <point x="128.11475409836066" y="322.0"/>
      <point x="186.8852459016393" y="213.45901639344265"/>
      <point x="318.06557377049177" y="183.5737704918033" type="curve"/>
    </contour>
  </outline>
</glyph>
<glyph name="sterling" format="2">
  <advance width="841.0655737704918"/>
  <unicode hex="00A3"/>
  <outline>
    <contour>
      <point x="-42.57377049180327" y="0.0" type="line"/>
      <point x="641.8360655737705" y="0.0" type="line"/>
      <point x="679.9180327868853" y="181.52459016393448" type="line"/>
      <point x="208.26229508196724" y="181.52459016393448" type="line"/>
      <point x="288.91803278688525" y="233.29508196721312"/>
      <point x="349.016393442623" y="318.1967213114754"/>
      <point x="376.91803278688525" y="451.6885245901639" type="curve" smooth="yes"/>
      <point x="420.8360655737705" y="658.7049180327868" type="line"/>
      <point x="649.6065573770492" y="658.7049180327868" type="line"/>
      <point x="682.8032786885245" y="817.1475409836066" type="line"/>
      <point x="453.1475409836066" y="817.1475409836066" type="line"/>
      <point x="511.95081967213116" y="1095.3934426229507" type="line" smooth="yes"/>
      <point x="541.4098360655738" y="1231.672131147541"/>
      <point x="583.7540983606558" y="1299.590163934426"/>
      <point x="677.7868852459015" y="1299.590163934426" type="curve" smooth="yes"/>
      <point x="733.8032786885248" y="1299.590163934426"/>
      <point x="786.5737704918033" y="1276.4754098360656"/>
      <point x="832.4590163934425" y="1236.3606557377047" type="curve"/>
      <point x="922.4098360655737" y="1400.1147540983607" type="line"/>
      <point x="853.5245901639345" y="1455.1147540983607"/>
      <point x="769.7868852459015" y="1483.0"/>
      <point x="675.8032786885246" y="1483.0" type="curve" smooth="yes"/>
      <point x="468.9672131147541" y="1483.0"/>
      <point x="368.7704918032787" y="1345.360655737705"/>
      <point x="319.00000000000006" y="1126.1639344262294" type="curve" smooth="yes"/>
      <point x="254.19672131147541" y="817.1475409836066" type="line"/>
      <point x="123.62295081967211" y="817.1475409836066" type="line"/>
      <point x="90.42622950819673" y="658.7049180327868" type="line"/>
      <point x="221.8852459016394" y="658.7049180327868" type="line"/>
      <point x="177.9672131147541" y="450.5737704918032" type="line" smooth="yes"/>
      <point x="145.18032786885246" y="299.86885245901635"/>
      <point x="87.27868852459015" y="216.06557377049182"/>
      <point x="-5.6065573770491755" y="168.6393442622951" type="curve"/>
    </contour>
  </outline>
</glyph>
<glyph name="yen" format="2">
  <advance width="834.8360655737705"/>
  <unicode hex="00A5"/>
  <outline>
    <contour>
      <point x="184.42622950819674" y="0.0" type="line"/>
      <point x="384.2622950819672" y="0.0" type="line"/>
      <point x="438.83606557377044" y="256.72131147540983" type="line"/>
      <point x="651.5901639344262" y="256.72131147540983" type="line"/>
      <point x="679.4590163934427" y="395.40983606557376" type="line"/>
      <point x="467.1475409836066" y="395.40983606557376" type="line"/>
      <point x="503.49180327868856" y="559.6885245901639" type="line"/>
      <point x="714.9180327868853" y="559.6885245901639" type="line"/>
      <point x="743.7868852459017" y="697.4918032786886" type="line"/>
      <point x="562.9016393442623" y="697.4918032786886" type="line"/>
      <point x="955.2131147540983" y="1462.0" type="line"/>
      <point x="745.8360655737706" y="1462.0" type="line"/>
      <point x="463.63934426229497" y="849.688524590164" type="line"/>
      <point x="437.5245901639344" y="1462.0" type="line"/>
      <point x="233.5901639344262" y="1462.0" type="line"/>
      <point x="301.655737704918" y="697.4918032786886" type="line"/>
      <point x="125.65573770491802" y="697.4918032786886" type="line"/>
      <point x="95.34426229508198" y="559.6885245901639" type="line"/>
      <point x="302.54098360655735" y="559.6885245901639" type="line"/>
      <point x="268.1967213114754" y="395.40983606557376" type="line"/>
      <point x="59.88524590163934" y="395.40983606557376" type="line"/>
      <point x="31.459016393442628" y="256.72131147540983" type="line"/>
      <point x="239.77049180327867" y="256.72131147540983" type="line"/>
    </contour>
  </outline>
</glyph>
<glyph name="brokenbar" format="2">
  <advance width="761.5081967213115"/>
  <unicode hex="00A6"/>
  <outline>
    <contour>
      <point x="288.8196721311475" y="785.983606557377" type="line"/>
      <point x="465.016393442623" y="785.983606557377" type="line"/>
      <point x="465.016393442623" y="1566.5409836065573" type="line"/>
      <point x="288.8196721311475" y="1566.5409836065573" type="line"/>
    </contour>
    <contour>
      <point x="288.8196721311475" y="-481.4590163934426" type="line"/>
      <point x="465.016393442623" y="-481.4590163934426" type="line"/>
      <point x="465.016393442623" y="298.54098360655735" type="line"/>
      <point x="288.8196721311475" y="298.54098360655735" type="line"/>
    </contour>
  </outline>
</glyph>
<glyph name="section" format="2">
  <advance width="752.1475409836066"/>
  <unicode hex="00A7"/>
  <outline>
    <contour>
      <point x="254.21311475409837" y="38.426229508196705" type="curve" smooth="yes"/>
      <point x="454.95081967213116" y="38.426229508196705"/>
      <point x="593.7213114754098" y="182.3934426229508"/>
      <point x="593.7213114754098" y="369.04918032786884" type="curve" smooth="yes"/>
      <point x="593.7213114754098" y="451.4754098360656"/>
      <point x="562.7213114754097" y="512.9180327868852"/>
      <point x="520.3770491803278" y="558.1475409836065" type="curve"/>
      <point x="637.377049180328" y="638.8032786885245"/>
      <point x="703.4754098360656" y="724.8032786885246"/>
      <point x="703.4754098360656" y="857.3442622950819" type="curve" smooth="yes"/>
      <point x="703.4754098360656" y="950.0"/>
      <point x="653.5901639344263" y="1020.8852459016392"/>
      <point x="524.8360655737705" y="1110.4262295081967" type="curve" smooth="yes"/>
      <point x="454.72131147540983" y="1160.5409836065573"/>
      <point x="409.26229508196724" y="1202.0"/>
      <point x="409.26229508196724" y="1270.032786885246" type="curve" smooth="yes"/>
      <point x="409.26229508196724" y="1356.967213114754"/>
      <point x="473.40983606557387" y="1414.0983606557377"/>
      <point x="556.5573770491804" y="1414.0983606557377" type="curve" smooth="yes"/>
      <point x="621.8852459016393" y="1414.0983606557377"/>
      <point x="686.8688524590165" y="1391.7704918032787"/>
      <point x="743.0819672131147" y="1346.1147540983607" type="curve"/>
      <point x="819.5901639344263" y="1482.3442622950822" type="line"/>
      <point x="747.0655737704919" y="1531.1147540983607"/>
      <point x="657.5409836065573" y="1557.327868852459"/>
      <point x="550.7868852459017" y="1557.327868852459" type="curve" smooth="yes"/>
      <point x="351.95081967213116" y="1550.8852459016393"/>
      <point x="230.9508196721312" y="1414.377049180328"/>
      <point x="230.9508196721312" y="1263.590163934426" type="curve" smooth="yes"/>
      <point x="230.9508196721312" y="1178.27868852459"/>
      <point x="255.50819672131144" y="1118.4918032786884"/>
      <point x="313.1803278688525" y="1062.3770491803277" type="curve"/>
      <point x="187.9508196721311" y="1000.0491803278687"/>
      <point x="115.29508196721311" y="913.1639344262295"/>
      <point x="115.29508196721311" y="781.967213114754" type="curve" smooth="yes"/>
      <point x="115.29508196721311" y="660.967213114754"/>
      <point x="193.98360655737704" y="585.1967213114755"/>
      <point x="290.9672131147541" y="517.9836065573771" type="curve" smooth="yes"/>
      <point x="362.21311475409834" y="464.8524590163935"/>
      <point x="413.967213114754" y="422.5081967213115"/>
      <point x="413.967213114754" y="353.27868852459017" type="curve" smooth="yes"/>
      <point x="413.967213114754" y="252.68852459016395"/>
      <point x="343.2622950819672" y="183.77049180327873"/>
      <point x="242.22950819672133" y="183.77049180327873" type="curve" smooth="yes"/>
      <point x="171.327868852459" y="183.77049180327873"/>
      <point x="80.672131147541" y="209.88524590163937"/>
      <point x="8.377049180327866" y="269.2950819672131" type="curve"/>
      <point x="8.377049180327866" y="101.73770491803278" type="line"/>
      <point x="63.803278688524586" y="62.31147540983605"/>
      <point x="152.22950819672133" y="38.426229508196705"/>
    </contour>
    <contour>
      <point x="433.0" y="633.8852459016393" type="curve"/>
      <point x="335.5245901639345" y="697.5737704918033"/>
      <point x="288.95081967213116" y="748.2459016393443"/>
      <point x="288.95081967213116" y="821.0327868852459" type="curve" smooth="yes"/>
      <point x="288.95081967213116" y="894.6229508196722"/>
      <point x="327.75409836065575" y="957.7377049180329"/>
      <point x="403.8032786885246" y="992.0819672131148" type="curve"/>
      <point x="498.26229508196724" y="925.622950819672"/>
      <point x="527.7213114754098" y="884.6229508196722"/>
      <point x="527.7213114754098" y="815.4918032786884" type="curve" smooth="yes"/>
      <point x="527.7213114754098" y="742.4754098360655"/>
      <point x="492.26229508196724" y="677.5737704918033"/>
    </contour>
  </outline>
</glyph>
<glyph name="dieresis" format="2">
  <advance width="943.0819672131148"/>
  <unicode hex="00A8"/>
  <outline>
    <contour>
      <point x="743.8360655737705" y="1284.032786885246" type="curve" smooth="yes"/>
      <point x="811.8032786885248" y="1284.032786885246"/>
      <point x="865.655737704918" y="1346.901639344262"/>
      <point x="865.655737704918" y="1436.1967213114756" type="curve" smooth="yes"/>
      <point x="865.655737704918" y="1488.5081967213114"/>
      <point x="836.2295081967213" y="1516.4918032786886"/>
      <point x="786.1475409836065" y="1516.4918032786886" type="curve" smooth="yes"/>
      <point x="705.7540983606557" y="1516.4918032786886"/>
      <point x="659.0" y="1445.967213114754"/>
      <point x="659.0" y="1368.8852459016393" type="curve" smooth="yes"/>
      <point x="659.0" y="1312.5737704918033"/>
      <point x="688.4262295081967" y="1284.032786885246"/>
    </contour>
    <contour>
      <point x="418.68852459016404" y="1284.032786885246" type="curve" smooth="yes"/>
      <point x="486.7704918032787" y="1284.032786885246"/>
      <point x="539.0655737704918" y="1346.901639344262"/>
      <point x="539.0655737704918" y="1436.1967213114756" type="curve" smooth="yes"/>
      <point x="539.0655737704918" y="1488.5081967213114"/>
      <point x="510.19672131147547" y="1516.4918032786886"/>
      <point x="462.1147540983607" y="1516.4918032786886" type="curve" smooth="yes"/>
      <point x="380.60655737704917" y="1516.4918032786886"/>
      <point x="334.96721311475414" y="1445.967213114754"/>
      <point x="334.96721311475414" y="1368.8852459016393" type="curve" smooth="yes"/>
      <point x="334.96721311475414" y="1312.5737704918033"/>
      <point x="364.39344262295083" y="1284.032786885246"/>
    </contour>
  </outline>
</glyph>
<glyph name="guillemotleft" format="2">
  <advance width="913.327868852459"/>
  <unicode hex="00AB"/>
  <outline>
    <contour>
      <point x="248.655737704918" y="110.39344262295081" type="line"/>
      <point x="404.1803278688525" y="178.0" type="line"/>
      <point x="257.9836065573771" y="542.3114754098361" type="line"/>
      <point x="534.7704918032787" y="892.7377049180327" type="line"/>
      <point x="398.1147540983606" y="978.327868852459" type="line"/>
      <point x="52.80327868852459" y="560.3114754098359" type="line"/>
      <point x="49.68852459016393" y="534.6393442622951" type="line"/>
    </contour>
    <contour>
      <point x="634.9836065573771" y="110.39344262295081" type="line"/>
      <point x="789.1803278688525" y="178.0" type="line"/>
      <point x="644.8688524590165" y="542.311475409836" type="line"/>
      <point x="919.9836065573769" y="892.7377049180327" type="line"/>
      <point x="783.8852459016393" y="978.3278688524589" type="line"/>
      <point x="438.57377049180326" y="560.311475409836" type="line"/>
      <point x="434.57377049180326" y="534.6393442622951" type="line"/>
    </contour>
  </outline>
</glyph>
<glyph name="registered" format="2">
  <advance width="1696.4590163934427"/>
  <unicode hex="00AE"/>
  <outline>
    <contour>
      <point x="560.967213114754" y="301.42622950819674" type="line"/>
      <point x="735.1803278688525" y="301.42622950819674" type="line"/>
      <point x="735.1803278688525" y="642.3442622950819" type="line"/>
      <point x="849.6065573770492" y="642.3442622950819" type="line"/>
      <point x="1010.9672131147541" y="301.42622950819674" type="line"/>
      <point x="1201.950819672131" y="301.42622950819674" type="line"/>
      <point x="1004.9508196721312" y="677.1147540983607" type="line"/>
      <point x="1104.3934426229507" y="723.0"/>
      <point x="1149.622950819672" y="801.8852459016393"/>
      <point x="1149.622950819672" y="918.0" type="curve" smooth="yes"/>
      <point x="1149.622950819672" y="1093.7704918032787"/>
      <point x="1032.8524590163934" y="1179.5409836065573"/>
      <point x="817.2295081967213" y="1179.5409836065573" type="curve" smooth="yes"/>
      <point x="560.967213114754" y="1179.5409836065573" type="line"/>
    </contour>
    <contour>
      <point x="734.0655737704918" y="770.1639344262295" type="line"/>
      <point x="734.0655737704918" y="1039.7377049180327" type="line"/>
      <point x="808.344262295082" y="1039.7377049180327" type="line" smooth="yes"/>
      <point x="920.9344262295083" y="1039.7377049180327"/>
      <point x="969.7377049180328" y="1000.9344262295082"/>
      <point x="969.7377049180328" y="910.1147540983607" type="curve" smooth="yes"/>
      <point x="969.7377049180328" y="812.9672131147541"/>
      <point x="908.0491803278688" y="770.1639344262295"/>
      <point x="807.4590163934425" y="770.1639344262295" type="curve" smooth="yes"/>
    </contour>
    <contour>
      <point x="844.688524590164" y="-20.000000000000004" type="curve" smooth="yes"/>
      <point x="1280.2295081967213" y="-20.000000000000004"/>
      <point x="1603.7704918032787" y="292.344262295082"/>
      <point x="1603.7704918032787" y="729.2295081967213" type="curve" smooth="yes"/>
      <point x="1603.7704918032787" y="1155.655737704918"/>
      <point x="1291.344262295082" y="1483.0"/>
      <point x="849.1147540983607" y="1483.0" type="curve" smooth="yes"/>
      <point x="427.5737704918033" y="1483.0"/>
      <point x="92.68852459016394" y="1177.9999999999998"/>
      <point x="92.68852459016394" y="730.1147540983607" type="curve" smooth="yes"/>
      <point x="92.68852459016394" y="315.59016393442624"/>
      <point x="386.11475409836066" y="-20.000000000000004"/>
    </contour>
    <contour>
      <point x="850.8852459016393" y="99.95081967213115" type="curve" smooth="yes"/>
      <point x="498.1967213114754" y="99.95081967213115"/>
      <point x="224.95081967213113" y="350.4262295081967"/>
      <point x="224.95081967213113" y="728.344262295082" type="curve" smooth="yes"/>
      <point x="224.95081967213113" y="1085.360655737705"/>
      <point x="475.42622950819674" y="1362.4918032786884"/>
      <point x="847.344262295082" y="1362.4918032786884" type="curve" smooth="yes"/>
      <point x="1203.3770491803277" y="1362.4918032786884"/>
      <point x="1469.5081967213116" y="1102.2295081967216"/>
      <point x="1469.5081967213116" y="729.2295081967213" type="curve" smooth="yes"/>
      <point x="1469.5081967213116" y="369.2295081967213"/>
      <point x="1217.9344262295083" y="99.95081967213115"/>
    </contour>
  </outline>
</glyph>
<glyph name="plusminus" format="2">
  <advance width="919.9508196721312"/>
  <unicode hex="00B1"/>
  <outline>
    <contour>
      <point x="84.65573770491804" y="-1.1102230246251565e-16" type="line"/>
      <point x="875.1803278688525" y="-1.1102230246251565e-16" type="line"/>
      <point x="875.1803278688525" y="173.52459016393445" type="line"/>
      <point x="84.65573770491804" y="173.52459016393445" type="line"/>
    </contour>
    <component base="plus" yOffset="60.45901639344263"/>
  </outline>
</glyph>
<glyph name="threesuperior" format="2">
  <advance width="592.016393442623"/>
  <unicode hex="00B3"/>
  <outline>
    <contour>
      <point x="297.9016393442623" y="836.0" type="curve" smooth="yes"/>
      <point x="490.00000000000006" y="836.0"/>
      <point x="611.4262295081968" y="949.5737704918033"/>
      <point x="611.4262295081968" y="1126.8852459016393" type="curve" smooth="yes"/>
      <point x="611.4262295081968" y="1222.7704918032787"/>
      <point x="567.5409836065573" y="1276.8852459016393"/>
      <point x="503.9836065573771" y="1304.9999999999998" type="curve"/>
      <point x="505.9836065573771" y="1313.0" type="line"/>
      <point x="622.5245901639345" y="1353.7704918032787"/>
      <point x="684.8688524590164" y="1440.885245901639"/>
      <point x="684.8688524590164" y="1553.344262295082" type="curve" smooth="yes"/>
      <point x="684.8688524590164" y="1667.2295081967213"/>
      <point x="617.4262295081967" y="1750.1147540983607"/>
      <point x="474.688524590164" y="1750.1147540983607" type="curve" smooth="yes"/>
      <point x="387.5737704918033" y="1750.1147540983607"/>
      <point x="304.49180327868856" y="1720.0"/>
      <point x="234.29508196721306" y="1660.8032786885246" type="curve"/>
      <point x="291.2622950819672" y="1554.4262295081967" type="line"/>
      <point x="344.14754098360663" y="1595.1967213114754"/>
      <point x="390.26229508196724" y="1617.1967213114754"/>
      <point x="443.72131147540983" y="1617.1967213114754" type="curve" smooth="yes"/>
      <point x="496.5245901639345" y="1617.1967213114754"/>
      <point x="528.8688524590165" y="1585.622950819672"/>
      <point x="528.8688524590165" y="1525.8196721311476" type="curve" smooth="yes"/>
      <point x="528.8688524590165" y="1435.344262295082"/>
      <point x="469.62295081967216" y="1363.311475409836"/>
      <point x="361.9180327868853" y="1363.311475409836" type="curve" smooth="yes"/>
      <point x="296.9344262295082" y="1363.311475409836" type="line"/>
      <point x="271.95081967213116" y="1241.4918032786886" type="line"/>
      <point x="345.0327868852459" y="1241.4918032786886" type="line" smooth="yes"/>
      <point x="413.83606557377055" y="1241.4918032786886"/>
      <point x="460.08196721311475" y="1202.032786885246"/>
      <point x="460.08196721311475" y="1127.983606557377" type="curve" smooth="yes"/>
      <point x="460.08196721311475" y="1034.8360655737704"/>
      <point x="398.72131147540995" y="970.5737704918033"/>
      <point x="300.78688524590166" y="970.5737704918033" type="curve" smooth="yes"/>
      <point x="219.5737704918033" y="970.5737704918033"/>
      <point x="155.37704918032784" y="994.2295081967213"/>
      <point x="106.37704918032786" y="1035.655737704918" type="curve"/>
      <point x="106.37704918032786" y="887.1967213114755" type="line"/>
      <point x="151.14754098360655" y="854.6557377049181"/>
      <point x="214.91803278688522" y="836.0"/>
    </contour>
  </outline>
</glyph>
<glyph name="acute" format="2">
  <advance width="551.4098360655737"/>
  <unicode hex="00B4"/>
  <anchor x="341.0491803278689" y="1085.0" name="_top"/>
  <outline>
    <contour>
      <point x="229.2295081967213" y="1241.0" type="line"/>
      <point x="365.655737704918" y="1241.0" type="line"/>
      <point x="440.344262295082" y="1301.016393442623"/>
      <point x="623.639344262295" y="1476.5409836065573"/>
      <point x="681.5245901639345" y="1552.0" type="curve"/>
      <point x="683.5245901639345" y="1569.0" type="line"/>
      <point x="453.4590163934426" y="1569.0" type="line"/>
      <point x="398.4754098360656" y="1475.016393442623"/>
      <point x="321.1311475409836" y="1368.2295081967213"/>
      <point x="232.11475409836066" y="1260.8852459016393" type="curve"/>
    </contour>
  </outline>
</glyph>
<glyph name="micro" format="2">
  <advance width="880.0655737704918"/>
  <unicode hex="00B5"/>
  <outline>
    <contour>
      <point x="-112.63934426229508" y="-492.0" type="line"/>
      <point x="82.63934426229508" y="-492.0" type="line"/>
      <point x="166.21311475409837" y="-101.68852459016392" type="line" smooth="yes"/>
      <point x="177.09836065573776" y="-47.37704918032788"/>
      <point x="182.77049180327873" y="1.1475409836065529"/>
      <point x="184.77049180327867" y="49.91803278688525" type="curve"/>
      <point x="188.77049180327873" y="49.91803278688525" type="line"/>
      <point x="210.327868852459" y="5.34426229508197"/>
      <point x="245.55737704918033" y="-20.0"/>
      <point x="297.24590163934425" y="-20.0" type="curve" smooth="yes"/>
      <point x="371.49180327868856" y="-20.0"/>
      <point x="436.8360655737704" y="21.01639344262293"/>
      <point x="494.0655737704918" y="124.34426229508195" type="curve"/>
      <point x="498.0655737704918" y="124.34426229508195" type="line"/>
      <point x="492.72131147540983" y="0.0" type="line"/>
      <point x="647.3770491803278" y="0.0" type="line"/>
      <point x="881.1475409836065" y="1105.9672131147543" type="line"/>
      <point x="686.1967213114754" y="1105.9672131147543" type="line"/>
      <point x="557.1967213114752" y="505.3114754098361" type="line" smooth="yes"/>
      <point x="503.96721311475414" y="252.81967213114754"/>
      <point x="434.60655737704917" y="159.52459016393442"/>
      <point x="335.0983606557377" y="159.52459016393442" type="curve" smooth="yes"/>
      <point x="280.5245901639344" y="159.52459016393442"/>
      <point x="255.9508196721312" y="197.8688524590164"/>
      <point x="255.9508196721312" y="270.1147540983606" type="curve" smooth="yes"/>
      <point x="255.9508196721312" y="310.2295081967213"/>
      <point x="263.95081967213116" y="359.2295081967213"/>
      <point x="276.95081967213116" y="419.5573770491803" type="curve" smooth="yes"/>
      <point x="421.5245901639345" y="1105.9672131147543" type="line"/>
      <point x="225.45901639344262" y="1105.9672131147543" type="line"/>
    </contour>
  </outline>
</glyph>
<glyph name="cedilla" format="2">
  <advance width="363.3114754098361"/>
  <unicode hex="00B8"/>
  <outline>
    <contour>
      <point x="-40.70491803278689" y="-492.0" type="curve" smooth="yes"/>
      <point x="107.50819672131149" y="-492.0"/>
      <point x="222.37704918032793" y="-414.4262295081968"/>
      <point x="222.37704918032793" y="-254.68852459016398" type="curve" smooth="yes"/>
      <point x="222.37704918032793" y="-169.14754098360655"/>
      <point x="166.7213114754098" y="-113.70491803278688"/>
      <point x="80.49180327868852" y="-96.03278688524591" type="curve"/>
      <point x="144.9672131147541" y="0.0" type="line"/>
      <point x="33.24590163934425" y="0.0" type="line"/>
      <point x="-70.86885245901641" y="-164.88524590163934" type="line"/>
      <point x="18.934426229508183" y="-174.22950819672133"/>
      <point x="62.16393442622952" y="-206.344262295082"/>
      <point x="62.16393442622952" y="-260.91803278688525" type="curve" smooth="yes"/>
      <point x="62.16393442622952" y="-326.27868852459017"/>
      <point x="14.475409836065552" y="-367.9672131147541"/>
      <point x="-66.22950819672133" y="-367.9672131147541" type="curve" smooth="yes"/>
      <point x="-114.57377049180327" y="-367.9672131147541"/>
      <point x="-153.344262295082" y="-361.9672131147541"/>
      <point x="-179.0" y="-353.9672131147541" type="curve"/>
      <point x="-179.0" y="-475.2295081967213" type="line"/>
      <point x="-135.57377049180332" y="-487.0"/>
      <point x="-89.91803278688526" y="-492.0"/>
    </contour>
  </outline>
</glyph>
<glyph name="onesuperior" format="2">
  <advance width="592.016393442623"/>
  <unicode hex="00B9"/>
  <outline>
    <contour>
      <point x="305.8524590163934" y="852.0" type="line"/>
      <point x="460.2950819672131" y="852.0" type="line"/>
      <point x="647.4098360655738" y="1729.0" type="line"/>
      <point x="513.2622950819672" y="1729.0" type="line"/>
      <point x="224.77049180327867" y="1509.6229508196723" type="line"/>
      <point x="288.83606557377055" y="1410.7868852459014" type="line"/>
      <point x="408.29508196721315" y="1497.016393442623" type="line" smooth="yes"/>
      <point x="421.08196721311475" y="1506.1311475409834"/>
      <point x="439.3114754098361" y="1522.5737704918033"/>
      <point x="460.7704918032787" y="1542.4754098360656" type="curve"/>
      <point x="451.88524590163934" y="1510.5901639344263"/>
      <point x="442.8852459016394" y="1482.8196721311476"/>
      <point x="434.0" y="1442.049180327869" type="curve" smooth="yes"/>
    </contour>
  </outline>
</glyph>
<glyph name="ordmasculine" format="2">
  <advance width="588.9180327868852"/>
  <unicode hex="00BA"/>
  <anchor x="324.0655737704918" y="770.7213114754098" name="bottom"/>
  <anchor x="473.1475409836065" y="1491.0" name="top"/>
  <outline>
    <contour>
      <point x="342.3934426229507" y="770.7213114754098" type="curve" smooth="yes"/>
      <point x="552.0491803278688" y="770.7213114754098"/>
      <point x="661.1147540983607" y="1020.7377049180328"/>
      <point x="661.1147540983607" y="1235.2622950819673" type="curve" smooth="yes"/>
      <point x="661.1147540983607" y="1404.344262295082"/>
      <point x="574.9180327868853" y="1479.0"/>
      <point x="458.60655737704917" y="1479.0" type="curve" smooth="yes"/>
      <point x="246.19672131147544" y="1479.0"/>
      <point x="139.0" y="1233.8852459016393"/>
      <point x="139.0" y="1017.5737704918033" type="curve" smooth="yes"/>
      <point x="139.0" y="865.1475409836065"/>
      <point x="206.31147540983608" y="770.7213114754098"/>
    </contour>
    <contour>
      <point x="362.3770491803279" y="898.0819672131148" type="curve" smooth="yes"/>
      <point x="308.688524590164" y="898.0819672131148"/>
      <point x="284.34426229508193" y="936.655737704918"/>
      <point x="284.34426229508193" y="1026.4590163934424" type="curve" smooth="yes"/>
      <point x="284.34426229508193" y="1173.360655737705"/>
      <point x="337.13114754098365" y="1352.0819672131147"/>
      <point x="439.95081967213116" y="1352.0819672131147" type="curve" smooth="yes"/>
      <point x="496.42622950819674" y="1352.0819672131147"/>
      <point x="516.655737704918" y="1305.5081967213114"/>
      <point x="516.655737704918" y="1223.049180327869" type="curve" smooth="yes"/>
      <point x="516.655737704918" y="1079.8196721311476"/>
      <point x="469.655737704918" y="898.0819672131148"/>
    </contour>
  </outline>
</glyph>
<glyph name="AE" format="2">
  <advance width="1199.4098360655737"/>
  <unicode hex="00C6"/>
  <anchor x="484.4262295081968" y="0.0" name="bottom"/>
  <anchor x="794.983606557377" y="1462.0" name="top"/>
  <outline>
    <contour>
      <point x="-135.2295081967213" y="0.0" type="line"/>
      <point x="83.91803278688526" y="0.0" type="line"/>
      <point x="281.0" y="425.39344262295083" type="line"/>
      <point x="514.4426229508197" y="425.39344262295083" type="line"/>
      <point x="423.29508196721315" y="0.0" type="line"/>
      <point x="983.9508196721312" y="0.0" type="line"/>
      <point x="1021.4754098360655" y="181.52459016393445" type="line"/>
      <point x="665.2131147540983" y="181.52459016393445" type="line"/>
      <point x="768.5901639344263" y="670.9672131147541" type="line"/>
      <point x="1101.967213114754" y="670.9672131147541" type="line"/>
      <point x="1141.1639344262294" y="852.1639344262295" type="line"/>
      <point x="807.7868852459015" y="852.1639344262295" type="line"/>
      <point x="898.049180327869" y="1281.3606557377047" type="line"/>
      <point x="1254.8688524590164" y="1281.3606557377047" type="line"/>
      <point x="1292.9508196721313" y="1462.0" type="line"/>
      <point x="564.9672131147541" y="1462.0" type="line"/>
    </contour>
    <contour>
      <point x="365.3770491803279" y="608.9180327868853" type="line"/>
      <point x="671.9836065573771" y="1280.245901639344" type="line"/>
      <point x="696.7704918032788" y="1280.245901639344" type="line"/>
      <point x="554.5245901639344" y="608.9180327868853" type="line"/>
    </contour>
  </outline>
</glyph>
<glyph name="Eth" format="2">
  <advance width="989.1803278688526"/>
  <unicode hex="00D0"/>
  <anchor x="380.1475409836065" y="0.0" name="bottom"/>
  <anchor x="690.1475409836066" y="1462.0" name="top"/>
  <outline>
    <contour>
      <point x="-1.7704918032786878" y="0.0" type="line"/>
      <point x="270.7704918032787" y="0.0" type="line" smooth="yes"/>
      <point x="765.7540983606558" y="0.0"/>
      <point x="966.2622950819672" y="568.0491803278688"/>
      <point x="966.2622950819672" y="1022.9180327868852" type="curve" smooth="yes"/>
      <point x="966.2622950819672" y="1308.3606557377047"/>
      <point x="826.8524590163934" y="1462.0"/>
      <point x="568.9180327868852" y="1462.0" type="curve" smooth="yes"/>
      <point x="307.2295081967213" y="1462.0" type="line"/>
      <point x="174.88524590163934" y="840.7213114754098" type="line"/>
      <point x="74.2295081967213" y="840.7213114754098" type="line"/>
      <point x="39.918032786885234" y="678.7213114754098" type="line"/>
      <point x="140.57377049180326" y="678.7213114754098" type="line"/>
    </contour>
    <contour>
      <point x="241.03278688524594" y="184.96721311475412" type="line"/>
      <point x="343.29508196721315" y="678.7213114754098" type="line"/>
      <point x="508.672131147541" y="678.7213114754098" type="line"/>
      <point x="542.983606557377" y="840.7213114754098" type="line"/>
      <point x="379.60655737704917" y="840.7213114754098" type="line"/>
      <point x="472.983606557377" y="1278.4754098360654" type="line"/>
      <point x="547.2622950819672" y="1278.4754098360654" type="line" smooth="yes"/>
      <point x="682.1967213114754" y="1278.4754098360654"/>
      <point x="749.7704918032786" y="1194.672131147541"/>
      <point x="749.7704918032786" y="1006.2786885245902" type="curve" smooth="yes"/>
      <point x="749.7704918032786" y="721.1639344262295"/>
      <point x="637.8524590163934" y="184.96721311475412"/>
      <point x="300.5245901639345" y="184.96721311475412" type="curve" smooth="yes"/>
    </contour>
  </outline>
</glyph>
<glyph name="multiply" format="2">
  <advance width="919.9508196721312"/>
  <unicode hex="00D7"/>
  <outline>
    <contour>
      <point x="750.9508196721312" y="1116.3770491803277" type="line"/>
      <point x="478.03278688524586" y="844.672131147541" type="line"/>
      <point x="206.5573770491803" y="1113.2622950819673" type="line"/>
      <point x="88.65573770491802" y="991.9180327868854" type="line"/>
      <point x="356.6885245901639" y="723.0" type="line"/>
      <point x="88.65573770491804" y="452.40983606557376" type="line"/>
      <point x="205.67213114754105" y="331.6229508196721" type="line"/>
      <point x="478.03278688524586" y="602.2131147540985" type="line"/>
      <point x="748.9508196721312" y="332.73770491803276" type="line"/>
      <point x="867.2950819672133" y="451.5245901639344" type="line"/>
      <point x="599.4918032786886" y="723.0" type="line"/>
      <point x="873.4098360655739" y="997.5901639344262" type="line"/>
    </contour>
  </outline>
</glyph>
<glyph name="Oslash" format="2">
  <advance width="1053.1803278688524"/>
  <unicode hex="00D8"/>
  <anchor x="411.1475409836065" y="0.0" name="bottom"/>
  <anchor x="720.1475409836065" y="1462.0" name="top"/>
  <outline>
    <contour>
      <point x="92.34426229508195" y="-102.86885245901638" type="line"/>
      <point x="196.8032786885246" y="59.81967213114754" type="line"/>
      <point x="248.90163934426232" y="6.459016393442625"/>
      <point x="321.34426229508205" y="-20.0"/>
      <point x="414.45901639344265" y="-20.0" type="curve" smooth="yes"/>
      <point x="855.0655737704918" y="-20.0"/>
      <point x="1028.377049180328" y="664.967213114754"/>
      <point x="1028.377049180328" y="1050.8524590163936" type="curve" smooth="yes"/>
      <point x="1028.377049180328" y="1149.0327868852457"/>
      <point x="1015.7213114754097" y="1232.1147540983604"/>
      <point x="987.4098360655739" y="1295.5409836065573" type="curve"/>
      <point x="1111.0983606557377" y="1489.688524590164" type="line"/>
      <point x="1008.2622950819673" y="1550.8852459016393" type="line"/>
      <point x="912.6885245901638" y="1398.7377049180327" type="line"/>
      <point x="859.9180327868852" y="1455.5409836065573"/>
      <point x="786.1475409836064" y="1483.8852459016393"/>
      <point x="690.1475409836065" y="1483.8852459016393" type="curve" smooth="yes"/>
      <point x="278.18032786885243" y="1483.8852459016393"/>
      <point x="72.0" y="871.032786885246"/>
      <point x="72.0" y="425.0491803278689" type="curve" smooth="yes"/>
      <point x="72.0" y="314.75409836065575"/>
      <point x="87.7704918032787" y="226.11475409836066"/>
      <point x="119.19672131147541" y="159.57377049180326" type="curve"/>
      <point x="-9.377049180327862" y="-43.45901639344262" type="line"/>
    </contour>
    <contour>
      <point x="430.44262295081955" y="164.40983606557378" type="curve" smooth="yes"/>
      <point x="375.4098360655738" y="164.40983606557378"/>
      <point x="334.83606557377055" y="189.4262295081967"/>
      <point x="310.9344262295082" y="245.5737704918033" type="curve"/>
      <point x="811.8852459016393" y="1036.0819672131147" type="line"/>
      <point x="812.1147540983608" y="1015.6393442622949"/>
      <point x="812.1147540983608" y="993.0819672131147"/>
      <point x="809.2295081967214" y="968.409836065574" type="curve" smooth="yes"/>
      <point x="793.4754098360658" y="660.7704918032787"/>
      <point x="668.8852459016393" y="164.40983606557378"/>
    </contour>
    <contour>
      <point x="289.37704918032784" y="413.03278688524597" type="line"/>
      <point x="288.26229508196724" y="440.59016393442624"/>
      <point x="289.1475409836066" y="471.1475409836066"/>
      <point x="291.1475409836066" y="506.37704918032796" type="curve" smooth="yes"/>
      <point x="307.78688524590166" y="763.9508196721313"/>
      <point x="416.5737704918033" y="1300.4754098360656"/>
      <point x="671.3770491803278" y="1300.4754098360656" type="curve" smooth="yes"/>
      <point x="731.8524590163935" y="1300.4754098360656"/>
      <point x="772.4262295081967" y="1272.016393442623"/>
      <point x="796.7704918032784" y="1210.655737704918" type="curve"/>
    </contour>
  </outline>
</glyph>
<glyph name="ae" format="2">
  <advance width="1305.377049180328"/>
  <unicode hex="00E6"/>
  <anchor x="537.688524590164" y="0.0" name="bottom"/>
  <anchor x="767.1311475409836" y="1083.8852459016396" name="top"/>
  <outline>
    <contour>
      <point x="252.22950819672127" y="-20.0" type="curve" smooth="yes"/>
      <point x="357.11475409836066" y="-20.0"/>
      <point x="437.77049180327873" y="41.0"/>
      <point x="505.5409836065574" y="144.24590163934425" type="curve"/>
      <point x="509.5409836065573" y="144.24590163934425" type="line"/>
      <point x="486.7540983606558" y="0.0" type="line"/>
      <point x="628.0983606557377" y="0.0" type="line"/>
      <point x="651.9999999999999" y="114.19672131147539" type="line"/>
      <point x="676.4426229508198" y="30.803278688524586"/>
      <point x="746.4590163934425" y="-20.0"/>
      <point x="856.8032786885246" y="-20.0" type="curve" smooth="yes"/>
      <point x="954.1147540983607" y="-20.0"/>
      <point x="1024.8688524590164" y="-1.1147540983606548"/>
      <point x="1109.7213114754097" y="48.31147540983606" type="curve"/>
      <point x="1137.9016393442623" y="219.18032786885246" type="line"/>
      <point x="1046.9508196721313" y="166.8688524590164"/>
      <point x="972.5245901639345" y="142.655737704918"/>
      <point x="895.2131147540985" y="142.655737704918" type="curve" smooth="yes"/>
      <point x="779.0655737704918" y="142.655737704918"/>
      <point x="734.9508196721312" y="218.0327868852459"/>
      <point x="734.9508196721312" y="347.72131147540983" type="curve" smooth="yes"/>
      <point x="734.9508196721312" y="393.1967213114754"/>
      <point x="739.1803278688525" y="441.11475409836066"/>
      <point x="749.2950819672132" y="486.4754098360656" type="curve"/>
      <point x="765.0655737704918" y="486.4754098360656" type="line" smooth="yes"/>
      <point x="1083.393442622951" y="486.4754098360656"/>
      <point x="1283.0327868852457" y="628.1639344262296"/>
      <point x="1283.0327868852457" y="883.4754098360656" type="curve" smooth="yes"/>
      <point x="1283.0327868852457" y="1034.229508196721"/>
      <point x="1195.9508196721313" y="1125.5245901639346"/>
      <point x="1054.3278688524588" y="1125.5245901639346" type="curve" smooth="yes"/>
      <point x="951.8852459016392" y="1125.5245901639346"/>
      <point x="879.8688524590165" y="1064.9344262295083"/>
      <point x="824.4262295081969" y="996.4590163934427" type="curve"/>
      <point x="846.4426229508197" y="1105.9672131147543" type="line"/>
      <point x="704.2131147540983" y="1105.9672131147543" type="line"/>
      <point x="672.4262295081968" y="985.6065573770492" type="line"/>
      <point x="668.4262295081967" y="985.6065573770492" type="line"/>
      <point x="636.7704918032788" y="1083.1803278688526"/>
      <point x="568.5737704918033" y="1126.409836065574"/>
      <point x="488.01639344262304" y="1126.409836065574" type="curve" smooth="yes"/>
      <point x="218.37704918032784" y="1126.409836065574"/>
      <point x="44.57377049180328" y="674.2295081967212"/>
      <point x="44.57377049180328" y="292.9672131147541" type="curve" smooth="yes"/>
      <point x="44.57377049180328" y="93.31147540983606"/>
      <point x="124.11475409836065" y="-20.0"/>
    </contour>
    <contour>
      <point x="338.016393442623" y="148.4262295081967" type="curve" smooth="yes"/>
      <point x="277.42622950819674" y="148.4262295081967"/>
      <point x="248.4098360655738" y="202.32786885245903"/>
      <point x="248.4098360655738" y="311.1475409836066" type="curve" smooth="yes"/>
      <point x="248.4098360655738" y="584.4754098360656"/>
      <point x="368.34426229508205" y="952.655737704918"/>
      <point x="517.967213114754" y="952.655737704918" type="curve" smooth="yes"/>
      <point x="576.0983606557378" y="952.655737704918"/>
      <point x="608.0" y="902.0819672131147"/>
      <point x="608.0" y="806.3934426229507" type="curve" smooth="yes"/>
      <point x="608.0" y="722.1147540983605"/>
      <point x="595.7704918032787" y="627.9508196721312"/>
      <point x="565.655737704918" y="498.72131147540983" type="curve" smooth="yes"/>
      <point x="525.295081967213" y="323.0655737704918"/>
      <point x="455.26229508196724" y="148.4262295081967"/>
    </contour>
    <contour>
      <point x="777.4918032786885" y="633.2622950819672" type="line"/>
      <point x="825.0819672131148" y="815.9508196721312"/>
      <point x="904.4590163934427" y="965.0819672131147"/>
      <point x="1009.1475409836065" y="965.0819672131147" type="curve" smooth="yes"/>
      <point x="1070.5081967213116" y="965.0819672131147"/>
      <point x="1099.8360655737706" y="927.8524590163934"/>
      <point x="1099.8360655737706" y="869.2786885245903" type="curve" smooth="yes"/>
      <point x="1099.8360655737706" y="731.1967213114754"/>
      <point x="1011.3278688524591" y="633.2622950819672"/>
      <point x="783.9344262295082" y="633.2622950819672" type="curve" smooth="yes"/>
    </contour>
  </outline>
</glyph>
<glyph name="eth" format="2">
  <advance width="862.4098360655737"/>
  <unicode hex="00F0"/>
  <anchor x="317.1475409836066" y="0.0" name="bottom"/>
  <anchor x="651.1475409836066" y="1572.1147540983604" name="top"/>
  <outline>
    <contour>
      <point x="313.57377049180326" y="-20.0" type="curve" smooth="yes"/>
      <point x="699.27868852459" y="-20.0"/>
      <point x="807.377049180328" y="524.4590163934427"/>
      <point x="807.377049180328" y="870.8688524590165" type="curve" smooth="yes"/>
      <point x="807.377049180328" y="1050.344262295082"/>
      <point x="766.1475409836065" y="1208.6885245901638"/>
      <point x="676.5737704918033" y="1346.7049180327867" type="curve"/>
      <point x="858.1803278688526" y="1465.9344262295083" type="line"/>
      <point x="790.344262295082" y="1560.8688524590164" type="line"/>
      <point x="605.9508196721312" y="1439.0819672131147" type="line"/>
      <point x="552.4918032786885" y="1492.5409836065573"/>
      <point x="498.14754098360663" y="1536.0"/>
      <point x="438.1311475409837" y="1572.1147540983604" type="curve"/>
      <point x="337.09836065573774" y="1460.1967213114754" type="line"/>
      <point x="391.5737704918032" y="1419.8524590163936"/>
      <point x="437.2622950819672" y="1378.3934426229507"/>
      <point x="465.8196721311475" y="1344.27868852459" type="curve"/>
      <point x="278.77049180327873" y="1223.9344262295083" type="line"/>
      <point x="343.49180327868856" y="1127.7704918032787" type="line"/>
      <point x="525.4590163934427" y="1244.1311475409836" type="line"/>
      <point x="601.0819672131148" y="1137.737704918033"/>
      <point x="621.9836065573771" y="1010.2950819672133"/>
      <point x="621.983606557377" y="844.8360655737705" type="curve"/>
      <point x="619.983606557377" y="844.8360655737705" type="line"/>
      <point x="594.8852459016395" y="917.3442622950819"/>
      <point x="555.0" y="980.7377049180327"/>
      <point x="465.1639344262295" y="980.7377049180327" type="curve" smooth="yes"/>
      <point x="163.31147540983605" y="980.7377049180327"/>
      <point x="22.213114754098363" y="580.9508196721312"/>
      <point x="22.213114754098363" y="316.95081967213116" type="curve" smooth="yes"/>
      <point x="22.213114754098363" y="100.42622950819673"/>
      <point x="126.96721311475412" y="-20.0"/>
    </contour>
    <contour>
      <point x="333.327868852459" y="148.42622950819674" type="curve" smooth="yes"/>
      <point x="261.2950819672131" y="148.42622950819674"/>
      <point x="222.72131147540986" y="205.44262295081967"/>
      <point x="222.72131147540986" y="325.8360655737705" type="curve" smooth="yes"/>
      <point x="222.72131147540986" y="528.5901639344263"/>
      <point x="315.0819672131147" y="809.311475409836"/>
      <point x="471.37704918032784" y="809.311475409836" type="curve" smooth="yes"/>
      <point x="543.8524590163935" y="809.311475409836"/>
      <point x="581.5409836065573" y="746.2786885245902"/>
      <point x="581.5409836065573" y="632.1147540983607" type="curve" smooth="yes"/>
      <point x="581.5409836065573" y="437.4918032786885"/>
      <point x="487.4098360655738" y="148.42622950819674"/>
    </contour>
  </outline>
</glyph>
<glyph name="divide" format="2">
  <advance width="919.9508196721312"/>
  <unicode hex="00F7"/>
  <outline>
    <contour>
      <point x="84.65573770491804" y="635.7377049180328" type="line"/>
      <point x="874.0655737704918" y="635.7377049180328" type="line"/>
      <point x="874.0655737704918" y="809.8196721311475" type="line"/>
      <point x="84.65573770491804" y="809.8196721311475" type="line"/>
    </contour>
    <contour>
      <point x="482.03278688524597" y="205.54098360655735" type="curve" smooth="yes"/>
      <point x="552.0983606557377" y="205.54098360655735"/>
      <point x="597.5245901639346" y="252.73770491803273"/>
      <point x="597.5245901639346" y="346.2622950819672" type="curve" smooth="yes"/>
      <point x="597.5245901639346" y="437.344262295082"/>
      <point x="557.2131147540983" y="485.655737704918"/>
      <point x="482.03278688524597" y="485.655737704918" type="curve" smooth="yes"/>
      <point x="402.29508196721304" y="485.655737704918"/>
      <point x="361.09836065573774" y="437.34426229508193"/>
      <point x="361.09836065573774" y="346.26229508196724" type="curve" smooth="yes"/>
      <point x="361.09836065573774" y="253.85245901639342"/>
      <point x="405.1803278688524" y="205.54098360655735"/>
    </contour>
    <contour>
      <point x="482.03278688524597" y="957.9016393442623" type="curve" smooth="yes"/>
      <point x="552.0983606557377" y="957.9016393442623"/>
      <point x="597.5245901639346" y="1004.983606557377"/>
      <point x="597.5245901639346" y="1097.1803278688524" type="curve" smooth="yes"/>
      <point x="597.5245901639346" y="1189.1475409836069"/>
      <point x="557.2131147540983" y="1237.9016393442625"/>
      <point x="482.03278688524597" y="1237.9016393442625" type="curve" smooth="yes"/>
      <point x="402.29508196721304" y="1237.9016393442625"/>
      <point x="361.09836065573774" y="1189.1475409836069"/>
      <point x="361.09836065573774" y="1097.1803278688526" type="curve" smooth="yes"/>
      <point x="361.09836065573774" y="1006.655737704918"/>
      <point x="405.1803278688524" y="957.9016393442623"/>
    </contour>
  </outline>
</glyph>
<glyph name="oslash" format="2">
  <advance width="867.1967213114752"/>
  <unicode hex="00F8"/>
  <anchor x="320.2622950819672" y="0.0" name="bottom"/>
  <anchor x="549.2622950819673" y="1083.8852459016396" name="top"/>
  <outline>
    <contour>
      <point x="73.14754098360655" y="-124.77049180327872" type="line"/>
      <point x="173.2622950819672" y="29.688524590163933" type="line"/>
      <point x="216.03278688524588" y="-3.7704918032786896"/>
      <point x="269.03278688524597" y="-20.0"/>
      <point x="332.0327868852459" y="-20.0" type="curve" smooth="yes"/>
      <point x="687.0983606557377" y="-20.0"/>
      <point x="820.0655737704918" y="489.3934426229508"/>
      <point x="820.0655737704918" y="777.5737704918033" type="curve" smooth="yes"/>
      <point x="820.0655737704918" y="855.7704918032787"/>
      <point x="805.4098360655738" y="921.6393442622951"/>
      <point x="779.4262295081967" y="974.7377049180328" type="curve"/>
      <point x="888.5573770491803" y="1143.8852459016396" type="line"/>
      <point x="789.7213114754098" y="1205.295081967213" type="line"/>
      <point x="702.377049180328" y="1066.9344262295083" type="line"/>
      <point x="660.4918032786885" y="1105.7377049180327"/>
      <point x="605.4918032786886" y="1126.4098360655737"/>
      <point x="539.2622950819672" y="1126.4098360655737" type="curve" smooth="yes"/>
      <point x="171.5409836065574" y="1126.4098360655737"/>
      <point x="48.344262295081975" y="594.016393442623"/>
      <point x="48.344262295081975" y="324.72131147540983" type="curve" smooth="yes"/>
      <point x="48.344262295081975" y="240.29508196721312"/>
      <point x="64.67213114754098" y="170.4262295081967"/>
      <point x="92.65573770491801" y="116.77049180327867" type="curve"/>
      <point x="-23.245901639344268" y="-64.24590163934427" type="line"/>
    </contour>
    <contour>
      <point x="352.5737704918033" y="142.65573770491804" type="curve" smooth="yes"/>
      <point x="315.99999999999994" y="142.65573770491804"/>
      <point x="286.983606557377" y="159.32786885245906"/>
      <point x="267.42622950819674" y="191.45901639344262" type="curve"/>
      <point x="623.8852459016393" y="756.1147540983605" type="line"/>
      <point x="625.0" y="739.0"/>
      <point x="625.0" y="717.7704918032787"/>
      <point x="623.0" y="698.6557377049179" type="curve" smooth="yes"/>
      <point x="605.344262295082" y="464.5737704918033"/>
      <point x="510.4262295081967" y="142.65573770491804"/>
    </contour>
    <contour>
      <point x="243.75409836065572" y="330.83606557377044" type="line"/>
      <point x="242.6393442622951" y="347.7213114754098"/>
      <point x="243.52459016393445" y="368.7213114754099"/>
      <point x="244.40983606557378" y="389.8360655737705" type="curve" smooth="yes"/>
      <point x="258.8360655737705" y="619.9180327868852"/>
      <point x="357.1967213114754" y="963.311475409836"/>
      <point x="514.622950819672" y="963.311475409836" type="curve" smooth="yes"/>
      <point x="557.1967213114754" y="963.311475409836"/>
      <point x="587.7704918032787" y="943.967213114754"/>
      <point x="605.7704918032787" y="905.1639344262294" type="curve"/>
    </contour>
  </outline>
</glyph>
<glyph name="thorn" format="2">
  <advance width="886.7540983606557"/>
  <unicode hex="00FE"/>
  <anchor x="227.3770491803279" y="-479.655737704918" name="bottom"/>
  <anchor x="659.3770491803278" y="1557.327868852459" name="top"/>
  <outline>
    <contour>
      <point x="-105.52459016393442" y="-479.655737704918" type="line"/>
      <point x="88.86885245901641" y="-479.655737704918" type="line"/>
      <point x="186.7704918032787" y="-17.49180327868853" type="line" smooth="yes"/>
      <point x="193.65573770491804" y="19.50819672131147"/>
      <point x="204.09836065573774" y="76.9344262295082"/>
      <point x="210.98360655737704" y="131.4590163934426" type="curve"/>
      <point x="216.98360655737707" y="131.4590163934426" type="line"/>
      <point x="242.63934426229508" y="39.229508196721305"/>
      <point x="310.5245901639344" y="-20.0"/>
      <point x="403.0819672131148" y="-20.0" type="curve" smooth="yes"/>
      <point x="701.1967213114755" y="-20.0"/>
      <point x="847.2950819672129" y="496.45901639344265"/>
      <point x="847.2950819672129" y="812.1147540983607" type="curve" smooth="yes"/>
      <point x="847.2950819672129" y="1024.1967213114756"/>
      <point x="767.7540983606558" y="1126.409836065574"/>
      <point x="630.9836065573771" y="1126.409836065574" type="curve" smooth="yes"/>
      <point x="536.5409836065573" y="1126.409836065574"/>
      <point x="458.7540983606557" y="1070.5081967213114"/>
      <point x="399.1803278688525" y="979.2459016393443" type="curve"/>
      <point x="392.29508196721315" y="979.2459016393443" type="line"/>
      <point x="400.5081967213115" y="1004.4590163934427"/>
      <point x="407.0655737704918" y="1030.344262295082"/>
      <point x="413.9508196721312" y="1061.4426229508197" type="curve" smooth="yes"/>
      <point x="519.7540983606557" y="1557.327868852459" type="line"/>
      <point x="325.360655737705" y="1557.327868852459" type="line"/>
    </contour>
    <contour>
      <point x="374.5737704918033" y="152.63934426229505" type="curve" smooth="yes"/>
      <point x="306.983606557377" y="152.63934426229505"/>
      <point x="272.9672131147541" y="204.32786885245903"/>
      <point x="272.9672131147541" y="305.80327868852453" type="curve" smooth="yes"/>
      <point x="272.9672131147541" y="381.62295081967216"/>
      <point x="286.5245901639345" y="493.7704918032787"/>
      <point x="315.54098360655735" y="604.9180327868853" type="curve" smooth="yes"/>
      <point x="359.00000000000006" y="778.6229508196722"/>
      <point x="439.6885245901639" y="958.655737704918"/>
      <point x="554.7377049180328" y="958.655737704918" type="curve" smooth="yes"/>
      <point x="615.1147540983605" y="958.655737704918"/>
      <point x="644.5737704918033" y="906.0819672131148"/>
      <point x="644.5737704918033" y="793.9344262295083" type="curve" smooth="yes"/>
      <point x="644.5737704918033" y="593.7704918032788"/>
      <point x="553.0" y="152.63934426229505"/>
    </contour>
  </outline>
</glyph>
<glyph name="eogonek" format="2">
  <advance width="818.295081967213"/>
  <unicode hex="0119"/>
  <anchor x="200.37704918032787" y="-441.0655737704918" name="bottom"/>
  <anchor x="524.1475409836065" y="1083.8852459016396" name="top"/>
  <outline>
    <contour>
      <point x="383.88524590163945" y="-441.0655737704918" type="curve" smooth="yes"/>
      <point x="426.65573770491795" y="-441.0655737704918"/>
      <point x="466.0819672131148" y="-437.9508196721311"/>
      <point x="503.5081967213114" y="-421.7377049180328" type="curve"/>
      <point x="533.2622950819673" y="-287.2786885245901" type="line"/>
      <point x="503.6065573770493" y="-293.2786885245901"/>
      <point x="475.8360655737705" y="-298.60655737704917"/>
      <point x="454.83606557377044" y="-298.60655737704917" type="curve" smooth="yes"/>
      <point x="420.2622950819671" y="-298.60655737704917"/>
      <point x="398.0327868852459" y="-277.9344262295082"/>
      <point x="398.0327868852459" y="-237.36065573770492" type="curve" smooth="yes"/>
      <point x="400.9180327868853" y="-158.22950819672127"/>
      <point x="455.0327868852459" y="-58.34426229508197"/>
      <point x="595.3278688524589" y="38.77049180327869" type="curve"/>
      <point x="428.9180327868852" y="25.01639344262295" type="line"/>
      <point x="296.1147540983606" y="-74.2295081967213"/>
      <point x="225.81967213114757" y="-169.77049180327867"/>
      <point x="225.81967213114757" y="-287.1967213114754" type="curve" smooth="yes"/>
      <point x="225.81967213114757" y="-375.8524590163935"/>
      <point x="278.3606557377049" y="-441.0655737704918"/>
    </contour>
    <component base="e" xOffset="4.440892098500626e-16"/>
  </outline>
</glyph>
<glyph name="Hbar" format="2">
  <advance width="1023.0655737704919"/>
  <unicode hex="0126"/>
  <anchor x="398.03278688524597" y="0.0" name="bottom"/>
  <anchor x="707.032786885246" y="1462.0" name="top"/>
  <outline>
    <contour>
      <point x="-1.7704918032786878" y="0.0" type="line"/>
      <point x="202.95081967213116" y="0.0" type="line"/>
      <point x="344.4098360655738" y="671.8524590163935" type="line"/>
      <point x="707.655737704918" y="671.8524590163935" type="line"/>
      <point x="565.1967213114755" y="0.0" type="line"/>
      <point x="769.9180327868851" y="0.0" type="line"/>
      <point x="1000.4754098360656" y="1081.4590163934424" type="line"/>
      <point x="1123.0491803278687" y="1081.4590163934424" type="line"/>
      <point x="1154.9180327868853" y="1234.360655737705" type="line"/>
      <point x="1032.7868852459017" y="1234.360655737705" type="line"/>
      <point x="1081.3606557377047" y="1462.0" type="line"/>
      <point x="875.5245901639345" y="1462.0" type="line"/>
      <point x="826.0655737704916" y="1234.360655737705" type="line"/>
      <point x="463.3770491803279" y="1234.360655737705" type="line"/>
      <point x="511.9508196721313" y="1462.0" type="line"/>
      <point x="307.2295081967213" y="1462.0" type="line"/>
      <point x="258.65573770491807" y="1234.360655737705" type="line"/>
      <point x="130.96721311475412" y="1234.360655737705" type="line"/>
      <point x="98.65573770491802" y="1081.4590163934424" type="line"/>
      <point x="226.34426229508196" y="1081.4590163934424" type="line"/>
    </contour>
    <contour>
      <point x="381.6065573770492" y="845.5081967213115" type="line"/>
      <point x="431.0655737704918" y="1081.4590163934427" type="line"/>
      <point x="794.6393442622951" y="1081.4590163934427" type="line"/>
      <point x="744.2950819672132" y="845.5081967213115" type="line"/>
    </contour>
  </outline>
</glyph>
<glyph name="idotless" format="2">
  <advance width="421.32786885245906"/>
  <unicode hex="0131"/>
  <anchor x="93.72131147540983" y="0.0" name="bottom"/>
  <anchor x="328.49180327868856" y="1105.9672131147543" name="top"/>
  <outline>
    <contour>
      <point x="-6.426229508196725" y="0.0" type="line"/>
      <point x="189.19672131147544" y="0.0" type="line"/>
      <point x="424.40983606557376" y="1105.9672131147543" type="line"/>
      <point x="228.34426229508196" y="1105.9672131147543" type="line"/>
    </contour>
  </outline>
</glyph>
<glyph name="kgreenlandic" format="2">
  <advance width="798.0983606557379"/>
  <unicode hex="0138"/>
  <anchor x="285.21311475409834" y="0.0" name="bottom"/>
  <anchor x="514.2131147540982" y="1083.8852459016396" name="top"/>
  <outline>
    <contour>
      <point x="-6.196721311475409" y="0.0" type="line"/>
      <point x="190.31147540983608" y="0.0" type="line"/>
      <point x="265.8852459016394" y="368.8524590163934" type="line"/>
      <point x="380.1475409836065" y="489.6885245901639" type="line"/>
      <point x="468.0327868852459" y="0.0" type="line"/>
      <point x="678.8524590163935" y="0.0" type="line"/>
      <point x="551.3442622950819" y="650.3442622950819" type="line"/>
      <point x="892.7377049180328" y="1105.9672131147543" type="line"/>
      <point x="678.2459016393443" y="1105.9672131147543" type="line"/>
      <point x="317.0655737704918" y="617.4262295081967" type="line"/>
      <point x="312.0655737704918" y="617.4262295081967" type="line"/>
      <point x="337.06557377049177" y="704.7704918032788"/>
      <point x="352.8360655737705" y="776.7704918032786"/>
      <point x="367.8360655737705" y="838.4098360655737" type="curve" smooth="yes"/>
      <point x="426.63934426229514" y="1105.9672131147543" type="line"/>
      <point x="230.2459016393443" y="1105.9672131147543" type="line"/>
    </contour>
  </outline>
</glyph>
<glyph name="Lslash" format="2">
  <advance width="737.1803278688524"/>
  <unicode hex="0141"/>
  <anchor x="255.03278688524586" y="0.0" name="bottom"/>
  <anchor x="564.0327868852461" y="1462.0" name="top"/>
  <outline>
    <contour>
      <point x="18.8688524590164" y="0.0" type="line"/>
      <point x="580.6065573770492" y="0.0" type="line"/>
      <point x="616.1311475409835" y="181.52459016393445" type="line"/>
      <point x="260.78688524590166" y="181.52459016393445" type="line"/>
      <point x="369.01639344262304" y="695.0327868852459" type="line"/>
      <point x="675.311475409836" y="897.4098360655738" type="line"/>
      <point x="593.4918032786885" y="1020.1147540983607" type="line"/>
      <point x="415.09836065573774" y="908.8688524590164" type="line"/>
      <point x="532.5901639344263" y="1462.0" type="line"/>
      <point x="328.4262295081967" y="1462.0" type="line"/>
      <point x="175.96721311475414" y="745.5737704918032" type="line"/>
      <point x="-50.54098360655738" y="597.967213114754" type="line"/>
      <point x="27.721311475409834" y="471.4918032786885" type="line"/>
      <point x="131.0" y="532.8524590163935" type="line"/>
    </contour>
  </outline>
</glyph>
<glyph name="lslash" format="2">
  <advance width="484.27868852459017"/>
  <unicode hex="0142"/>
  <anchor x="128.91803278688522" y="0.0" name="bottom"/>
  <anchor x="457.91803278688525" y="1556.0" name="top"/>
  <outline>
    <contour>
      <point x="19.098360655737707" y="0.0" type="line"/>
      <point x="214.4918032786885" y="0.0" type="line"/>
      <point x="371.6065573770492" y="735.4590163934425" type="line"/>
      <point x="598.6065573770493" y="854.4918032786885" type="line"/>
      <point x="538.7540983606557" y="987.8360655737705" type="line"/>
      <point x="409.360655737705" y="917.344262295082" type="line"/>
      <point x="546.4918032786885" y="1556.0" type="line"/>
      <point x="349.5409836065574" y="1556.0" type="line"/>
      <point x="192.63934426229508" y="822.7213114754098" type="line"/>
      <point x="-12.885245901639346" y="716.1475409836066" type="line"/>
      <point x="44.967213114754095" y="581.360655737705" type="line"/>
      <point x="156.00000000000003" y="640.8360655737705" type="line"/>
    </contour>
  </outline>
</glyph>
<glyph name="eng" format="2">
  <advance width="878.0655737704918"/>
  <unicode hex="014B"/>
  <anchor x="220.0327868852459" y="-492.0" name="bottom"/>
  <anchor x="558.4590163934427" y="1101.1475409836066" name="top"/>
  <anchor x="951.0655737704918" y="1097.6065573770493" name="topright"/>
  <outline>
    <contour>
      <point x="309.57377049180326" y="-492.0" type="curve" smooth="yes"/>
      <point x="491.5409836065574" y="-492.0"/>
      <point x="565.8196721311475" y="-391.655737704918"/>
      <point x="628.2622950819671" y="-99.34426229508196" type="curve" smooth="yes"/>
      <point x="800.2622950819675" y="708.5409836065573" type="line" smooth="yes"/>
      <point x="814.2622950819672" y="778.4262295081967"/>
      <point x="826.9344262295083" y="852.2295081967212"/>
      <point x="826.9344262295083" y="905.6885245901639" type="curve" smooth="yes"/>
      <point x="826.9344262295083" y="1063.8524590163934"/>
      <point x="732.7540983606558" y="1126.409836065574"/>
      <point x="618.5409836065575" y="1126.409836065574" type="curve" smooth="yes"/>
      <point x="520.8688524590164" y="1126.409836065574"/>
      <point x="437.4262295081967" y="1066.967213114754"/>
      <point x="376.9836065573771" y="961.9508196721312" type="curve"/>
      <point x="370.9836065573771" y="961.9508196721312" type="line"/>
      <point x="386.55737704918033" y="1105.9672131147543" type="line"/>
      <point x="227.45901639344262" y="1105.9672131147543" type="line"/>
      <point x="-7.311475409836069" y="0.0" type="line"/>
      <point x="191.19672131147541" y="0.0" type="line"/>
      <point x="320.4098360655738" y="609.311475409836" type="line" smooth="yes"/>
      <point x="363.8852459016393" y="814.0983606557378"/>
      <point x="430.8032786885247" y="946.4426229508196"/>
      <point x="541.295081967213" y="946.4426229508196" type="curve" smooth="yes"/>
      <point x="596.4262295081967" y="946.4426229508196"/>
      <point x="621.8852459016393" y="913.655737704918"/>
      <point x="621.8852459016393" y="855.7540983606557" type="curve" smooth="yes"/>
      <point x="621.8852459016393" y="805.7377049180327"/>
      <point x="607.7704918032787" y="735.1639344262295"/>
      <point x="594.6557377049181" y="670.0491803278688" type="curve" smooth="yes"/>
      <point x="436.1967213114754" y="-84.68852459016395" type="line" smooth="yes"/>
      <point x="398.95081967213116" y="-263.7868852459016"/>
      <point x="370.83606557377044" y="-315.24590163934425"/>
      <point x="285.4918032786885" y="-315.24590163934425" type="curve" smooth="yes"/>
      <point x="258.3770491803279" y="-315.24590163934425"/>
      <point x="219.8360655737705" y="-310.3606557377049"/>
      <point x="194.83606557377047" y="-299.4754098360656" type="curve"/>
      <point x="194.83606557377047" y="-475.2295081967213" type="line"/>
      <point x="223.60655737704917" y="-485.0"/>
      <point x="260.1475409836066" y="-492.0"/>
    </contour>
  </outline>
</glyph>
<glyph name="OE" format="2">
  <advance width="1244.4426229508197"/>
  <unicode hex="0152"/>
  <anchor x="508.4426229508198" y="0.0" name="bottom"/>
  <anchor x="818.0000000000001" y="1462.0" name="top"/>
  <outline>
    <contour>
      <point x="403.83606557377044" y="-12.655737704918034" type="curve" smooth="yes"/>
      <point x="457.9508196721311" y="-12.655737704918034"/>
      <point x="507.50819672131155" y="-4.885245901639344"/>
      <point x="535.7213114754097" y="0.0" type="curve"/>
      <point x="1032.0983606557377" y="0.0" type="line"/>
      <point x="1070.1803278688524" y="181.52459016393445" type="line"/>
      <point x="713.3606557377049" y="181.52459016393445" type="line"/>
      <point x="818.4098360655736" y="670.9672131147541" type="line"/>
      <point x="1150.672131147541" y="670.9672131147541" type="line"/>
      <point x="1188.1967213114756" y="852.1639344262295" type="line"/>
      <point x="855.9344262295084" y="852.1639344262295" type="line"/>
      <point x="947.6393442622949" y="1281.3606557377047" type="line"/>
      <point x="1303.016393442623" y="1281.3606557377047" type="line"/>
      <point x="1341.0983606557377" y="1462.0" type="line"/>
      <point x="840.4918032786885" y="1462.0" type="line"/>
      <point x="803.4918032786884" y="1470.2131147540983"/>
      <point x="738.7213114754098" y="1475.655737704918"/>
      <point x="675.2786885245902" y="1475.655737704918" type="curve" smooth="yes"/>
      <point x="230.98360655737707" y="1475.655737704918"/>
      <point x="72.0" y="818.9508196721312"/>
      <point x="72.0" y="407.8688524590164" type="curve" smooth="yes"/>
      <point x="72.0" y="153.63934426229508"/>
      <point x="176.88524590163934" y="-12.655737704918034"/>
    </contour>
    <contour>
      <point x="445.91803278688514" y="172.6393442622951" type="curve" smooth="yes"/>
      <point x="331.0655737704918" y="172.6393442622951"/>
      <point x="285.37704918032784" y="252.90163934426235"/>
      <point x="285.37704918032784" y="429.2786885245902" type="curve" smooth="yes"/>
      <point x="285.37704918032784" y="740.704918032787"/>
      <point x="414.18032786885243" y="1293.1311475409839"/>
      <point x="672.2622950819673" y="1293.1311475409839" type="curve" smooth="yes"/>
      <point x="705.4918032786884" y="1293.1311475409839"/>
      <point x="727.1475409836065" y="1285.3606557377052"/>
      <point x="744.9180327868853" y="1278.704918032787" type="curve"/>
      <point x="512.4098360655738" y="179.29508196721312" type="line"/>
      <point x="499.7540983606557" y="175.52459016393442"/>
      <point x="476.88524590163934" y="172.6393442622951"/>
    </contour>
  </outline>
</glyph>
<glyph name="Tbar" format="2">
  <advance width="743.1639344262295"/>
  <unicode hex="0166"/>
  <anchor x="257.91803278688525" y="0.0" name="bottom"/>
  <anchor x="566.9180327868853" y="1462.0" name="top"/>
  <outline>
    <contour>
      <point x="138.5409836065574" y="0.0" type="line"/>
      <point x="344.3770491803279" y="0.0" type="line"/>
      <point x="482.95081967213116" y="660.5409836065572" type="line"/>
      <point x="665.7704918032787" y="660.5409836065572" type="line"/>
      <point x="696.9672131147541" y="817.1967213114754" type="line"/>
      <point x="516.1475409836065" y="817.1967213114754" type="line"/>
      <point x="613.8524590163935" y="1278.4754098360654" type="line"/>
      <point x="862.639344262295" y="1278.4754098360654" type="line"/>
      <point x="901.8360655737706" y="1462.0" type="line"/>
      <point x="201.1967213114754" y="1462.0" type="line"/>
      <point x="163.11475409836066" y="1278.4754098360654" type="line"/>
      <point x="409.13114754098353" y="1278.4754098360654" type="line"/>
      <point x="311.4262295081967" y="817.1967213114754" type="line"/>
      <point x="138.95081967213116" y="817.1967213114754" type="line"/>
      <point x="105.75409836065576" y="660.5409836065572" type="line"/>
      <point x="278.78688524590166" y="660.5409836065572" type="line"/>
    </contour>
  </outline>
</glyph>
<glyph name="tbar" format="2">
  <advance width="533.016393442623"/>
  <unicode hex="0167"/>
  <anchor x="152.2295081967213" y="0.0" name="bottom"/>
  <anchor x="438.344262295082" y="1350.655737704918" name="top"/>
  <outline>
    <contour>
      <point x="233.11475409836066" y="-20.0" type="curve" smooth="yes"/>
      <point x="286.7540983606558" y="-20.0"/>
      <point x="360.3606557377049" y="-9.114754098360654"/>
      <point x="412.44262295081967" y="15.75409836065574" type="curve"/>
      <point x="412.44262295081967" y="175.29508196721312" type="line"/>
      <point x="376.6885245901639" y="160.6393442622951"/>
      <point x="340.3770491803279" y="154.63934426229508"/>
      <point x="318.70491803278685" y="154.63934426229508" type="curve" smooth="yes"/>
      <point x="272.59016393442624" y="154.63934426229508"/>
      <point x="253.9180327868853" y="174.86885245901644"/>
      <point x="253.9180327868853" y="225.7704918032787" type="curve" smooth="yes"/>
      <point x="253.9180327868853" y="249.55737704918033"/>
      <point x="259.91803278688525" y="280.5737704918033"/>
      <point x="267.4754098360656" y="317.1475409836066" type="curve" smooth="yes"/>
      <point x="315.9672131147541" y="543.1147540983605" type="line"/>
      <point x="479.1803278688526" y="543.1147540983605" type="line"/>
      <point x="512.3770491803278" y="691.5737704918034" type="line"/>
      <point x="345.72131147540983" y="691.5737704918034" type="line"/>
      <point x="399.1803278688525" y="939.0983606557378" type="line"/>
      <point x="564.704918032787" y="939.0983606557378" type="line"/>
      <point x="599.9016393442624" y="1105.9672131147543" type="line"/>
      <point x="434.37704918032784" y="1105.9672131147543" type="line"/>
      <point x="486.93442622950823" y="1350.655737704918" type="line"/>
      <point x="347.4918032786885" y="1350.655737704918" type="line"/>
      <point x="252.85245901639345" y="1102.1967213114754" type="line"/>
      <point x="127.0" y="1047.2459016393443" type="line"/>
      <point x="105.01639344262296" y="939.0983606557378" type="line"/>
      <point x="204.34426229508196" y="939.0983606557378" type="line"/>
      <point x="151.7704918032787" y="691.5737704918034" type="line"/>
      <point x="47.42622950819673" y="691.5737704918034" type="line"/>
      <point x="15.114754098360658" y="543.1147540983605" type="line"/>
      <point x="119.45901639344264" y="543.1147540983605" type="line"/>
      <point x="74.85245901639345" y="330.21311475409834" type="line" smooth="yes"/>
      <point x="61.40983606557377" y="267.4590163934426"/>
      <point x="55.409836065573764" y="219.57377049180332"/>
      <point x="55.409836065573764" y="180.14754098360655" type="curve" smooth="yes"/>
      <point x="55.409836065573764" y="59.18032786885246"/>
      <point x="107.06557377049182" y="-20.0"/>
    </contour>
  </outline>
</glyph>
<glyph name="longs" format="2">
  <advance width="459.1475409836066"/>
  <unicode hex="017F"/>
  <anchor x="10.573770491803291" y="-492.0" name="bottom"/>
  <anchor x="447.6885245901639" y="1567.0" name="top"/>
  <outline>
    <contour>
      <point x="-141.4262295081967" y="-492.0" type="curve" smooth="yes"/>
      <point x="59.31147540983606" y="-492.0"/>
      <point x="122.49180327868855" y="-337.3114754098361"/>
      <point x="170.14754098360658" y="-118.80327868852457" type="curve" smooth="yes"/>
      <point x="446.7213114754099" y="1172.9344262295083" type="line" smooth="yes"/>
      <point x="470.06557377049177" y="1294.622950819672"/>
      <point x="495.95081967213116" y="1394.4590163934429"/>
      <point x="579.7704918032786" y="1394.4590163934429" type="curve" smooth="yes"/>
      <point x="605.8852459016395" y="1394.4590163934429"/>
      <point x="636.0983606557378" y="1387.5737704918033"/>
      <point x="662.6557377049179" y="1372.2459016393445" type="curve"/>
      <point x="733.6065573770491" y="1528.688524590164" type="line"/>
      <point x="679.7540983606558" y="1555.1147540983607"/>
      <point x="621.2295081967214" y="1567.0"/>
      <point x="562.032786885246" y="1567.0" type="curve" smooth="yes"/>
      <point x="365.0655737704918" y="1567.0"/>
      <point x="297.655737704918" y="1408.344262295082"/>
      <point x="257.54098360655735" y="1210.4590163934427" type="curve" smooth="yes"/>
      <point x="-22.360655737704917" y="-102.81967213114753" type="line" smooth="yes"/>
      <point x="-51.2622950819672" y="-239.655737704918"/>
      <point x="-72.9344262295082" y="-315.24590163934425"/>
      <point x="-165.39344262295083" y="-315.24590163934425" type="curve" smooth="yes"/>
      <point x="-194.6229508196721" y="-315.24590163934425"/>
      <point x="-234.04918032786887" y="-310.3606557377049"/>
      <point x="-256.49180327868856" y="-299.4754098360656" type="curve"/>
      <point x="-256.49180327868856" y="-475.2295081967213" type="line"/>
      <point x="-219.62295081967213" y="-487.88524590163934"/>
      <point x="-183.08196721311475" y="-492.0"/>
    </contour>
  </outline>
</glyph>
<glyph name="uni0180" format="2">
  <advance width="886.7540983606558"/>
  <unicode hex="0180"/>
  <anchor x="329.37704918032784" y="0.0" name="bottom"/>
  <anchor x="659.3770491803278" y="1556.0" name="top"/>
  <outline>
    <contour>
      <point x="399.3114754098361" y="-20.0" type="curve" smooth="yes"/>
      <point x="691.7540983606558" y="-20.0"/>
      <point x="848.1803278688523" y="471.2295081967213"/>
      <point x="848.1803278688523" y="815.0" type="curve" smooth="yes"/>
      <point x="848.1803278688523" y="1015.7704918032786"/>
      <point x="767.5245901639345" y="1126.409836065574"/>
      <point x="633.639344262295" y="1126.409836065574" type="curve" smooth="yes"/>
      <point x="537.6393442622951" y="1126.409836065574"/>
      <point x="458.0655737704918" y="1074.4918032786886"/>
      <point x="391.1803278688525" y="969.9180327868853" type="curve"/>
      <point x="387.18032786885254" y="969.9180327868853" type="line"/>
      <point x="403.0655737704918" y="1015.8032786885245"/>
      <point x="409.9508196721311" y="1051.4590163934427"/>
      <point x="449.65573770491807" y="1233.737704918033" type="curve"/>
      <point x="631.0327868852459" y="1233.737704918033" type="line"/>
      <point x="663.3442622950819" y="1382.4098360655737" type="line"/>
      <point x="481.4098360655738" y="1382.4098360655737" type="line"/>
      <point x="518.639344262295" y="1556.0" type="line"/>
      <point x="322.24590163934425" y="1556.0" type="line"/>
      <point x="285.4590163934426" y="1382.4098360655737" type="line"/>
      <point x="168.22950819672133" y="1382.4098360655737" type="line"/>
      <point x="136.80327868852459" y="1233.737704918033" type="line"/>
      <point x="254.0327868852459" y="1233.737704918033" type="line"/>
      <point x="-7.311475409836069" y="0.0" type="line"/>
      <point x="151.11475409836063" y="0.0" type="line"/>
      <point x="203.2131147540984" y="131.4590163934426" type="line"/>
      <point x="209.21311475409834" y="131.4590163934426" type="line"/>
      <point x="236.63934426229505" y="38.34426229508196"/>
      <point x="301.63934426229514" y="-20.0"/>
    </contour>
    <contour>
      <point x="375.9016393442623" y="148.4262295081967" type="curve" smooth="yes"/>
      <point x="305.8688524590164" y="148.4262295081967"/>
      <point x="271.8524590163934" y="201.44262295081967"/>
      <point x="271.8524590163934" y="307.1475409836066" type="curve" smooth="yes"/>
      <point x="271.8524590163934" y="526.4098360655737"/>
      <point x="373.86885245901635" y="953.7704918032786"/>
      <point x="551.8524590163935" y="953.7704918032786" type="curve" smooth="yes"/>
      <point x="613.9999999999999" y="953.7704918032786"/>
      <point x="643.4590163934427" y="903.1967213114754"/>
      <point x="643.4590163934427" y="791.049180327869" type="curve" smooth="yes"/>
      <point x="643.4590163934427" y="582.4262295081968"/>
      <point x="539.8852459016395" y="148.4262295081967"/>
    </contour>
  </outline>
</glyph>
<glyph name="uni0181" format="2">
  <advance width="1153.2950819672133"/>
  <unicode hex="0181"/>
  <anchor x="463.86885245901635" y="0.0" name="bottom"/>
  <anchor x="772.8688524590165" y="1462.0" name="top"/>
  <outline>
    <contour>
      <point x="233.80327868852464" y="0.0" type="line"/>
      <point x="586.4426229508197" y="0.0" type="line" smooth="yes"/>
      <point x="874.0983606557378" y="0.0"/>
      <point x="1056.27868852459" y="224.54098360655735"/>
      <point x="1056.27868852459" y="508.42622950819674" type="curve" smooth="yes"/>
      <point x="1056.27868852459" y="624.7704918032787"/>
      <point x="1004.1639344262294" y="732.1147540983607"/>
      <point x="898.9344262295083" y="766.0" type="curve"/>
      <point x="899.8196721311476" y="772.8852459016393" type="line"/>
      <point x="1090.3934426229507" y="827.8688524590164"/>
      <point x="1172.8360655737704" y="998.1147540983608"/>
      <point x="1172.8360655737704" y="1183.3442622950818" type="curve" smooth="yes"/>
      <point x="1172.8360655737704" y="1376.1967213114754"/>
      <point x="1015.2295081967213" y="1462.0"/>
      <point x="842.5737704918032" y="1462.0" type="curve" smooth="yes"/>
      <point x="478.0655737704918" y="1462.0" type="line" smooth="yes"/>
      <point x="271.2950819672131" y="1462.0"/>
      <point x="159.34426229508196" y="1340.344262295082"/>
      <point x="159.34426229508196" y="1173.393442622951" type="curve" smooth="yes"/>
      <point x="159.34426229508196" y="1131.737704918033"/>
      <point x="164.22950819672133" y="1095.1967213114754"/>
      <point x="173.11475409836066" y="1073.1967213114756" type="curve"/>
      <point x="348.8688524590164" y="1073.1967213114756" type="line"/>
      <point x="341.0983606557377" y="1097.1967213114756"/>
      <point x="337.09836065573774" y="1128.8524590163934"/>
      <point x="337.09836065573774" y="1158.9672131147543" type="curve" smooth="yes"/>
      <point x="337.09836065573774" y="1233.5409836065573"/>
      <point x="371.4426229508197" y="1287.1311475409836"/>
      <point x="480.4918032786885" y="1287.1311475409836" type="curve" smooth="yes"/>
      <point x="503.6065573770492" y="1287.1311475409836" type="line"/>
    </contour>
    <contour>
      <point x="475.72131147540983" y="177.75409836065575" type="line"/>
      <point x="581.0983606557377" y="676.7377049180327" type="line"/>
      <point x="690.3770491803278" y="676.7377049180327" type="line" smooth="yes"/>
      <point x="787.4262295081967" y="676.7377049180327"/>
      <point x="845.7868852459015" y="617.7049180327868"/>
      <point x="845.7868852459015" y="501.5409836065574" type="curve" smooth="yes"/>
      <point x="845.7868852459015" y="324.03278688524586"/>
      <point x="770.6393442622951" y="177.75409836065575"/>
      <point x="590.1147540983607" y="177.75409836065575" type="curve" smooth="yes"/>
    </contour>
    <contour>
      <point x="617.1803278688525" y="847.2786885245903" type="line"/>
      <point x="710.327868852459" y="1287.1311475409836" type="line"/>
      <point x="802.4918032786885" y="1287.1311475409836" type="line" smooth="yes"/>
      <point x="907.7704918032788" y="1287.1311475409836"/>
      <point x="957.4590163934427" y="1237.4426229508197"/>
      <point x="957.4590163934427" y="1138.3934426229507" type="curve" smooth="yes"/>
      <point x="957.4590163934427" y="985.655737704918"/>
      <point x="870.311475409836" y="847.2786885245903"/>
      <point x="719.5737704918034" y="847.2786885245903" type="curve" smooth="yes"/>
    </contour>
  </outline>
</glyph>
<glyph name="uni0185" format="2">
  <advance width="886.7540983606557"/>
  <unicode hex="0185"/>
  <anchor x="329.3770491803279" y="0.0" name="bottom"/>
  <anchor x="659.3770491803278" y="1556.0" name="top"/>
  <outline>
    <contour>
      <point x="364.8032786885246" y="-20.0" type="curve" smooth="yes"/>
      <point x="720.950819672131" y="-20.0"/>
      <point x="847.2950819672132" y="505.5737704918032"/>
      <point x="847.2950819672132" y="814.9999999999999" type="curve" smooth="yes"/>
      <point x="847.2950819672132" y="1015.7704918032787"/>
      <point x="767.7540983606557" y="1126.409836065574"/>
      <point x="633.8688524590165" y="1126.409836065574" type="curve" smooth="yes"/>
      <point x="537.6393442622951" y="1126.409836065574"/>
      <point x="459.1803278688525" y="1074.4918032786884"/>
      <point x="392.2950819672131" y="969.9180327868854" type="curve"/>
      <point x="388.29508196721315" y="969.9180327868854" type="line"/>
      <point x="403.0655737704918" y="1019.327868852459"/>
      <point x="415.7213114754099" y="1067.4098360655735"/>
      <point x="421.7213114754099" y="1102.409836065574" type="curve" smooth="yes"/>
      <point x="518.6393442622951" y="1556.0" type="line"/>
      <point x="322.2459016393442" y="1556.0" type="line"/>
      <point x="108.1311475409836" y="537.5245901639344" type="line" smooth="yes"/>
      <point x="90.45901639344262" y="455.95081967213116"/>
      <point x="76.45901639344262" y="358.6065573770491"/>
      <point x="76.45901639344262" y="297.39344262295083" type="curve" smooth="yes"/>
      <point x="76.45901639344262" y="81.34426229508196"/>
      <point x="180.8360655737705" y="-20.0"/>
    </contour>
    <contour>
      <point x="375.9016393442623" y="148.4262295081967" type="curve" smooth="yes"/>
      <point x="305.8688524590164" y="148.4262295081967"/>
      <point x="272.96721311475414" y="198.99999999999997"/>
      <point x="272.96721311475414" y="312.26229508196724" type="curve" smooth="yes"/>
      <point x="272.96721311475414" y="518.0"/>
      <point x="369.0" y="953.7704918032786"/>
      <point x="551.8524590163935" y="953.7704918032786" type="curve" smooth="yes"/>
      <point x="614.0" y="953.7704918032786"/>
      <point x="643.4590163934425" y="903.1967213114754"/>
      <point x="643.4590163934425" y="791.0491803278688" type="curve" smooth="yes"/>
      <point x="643.4590163934425" y="569.1803278688524"/>
      <point x="536.7704918032786" y="148.4262295081967"/>
    </contour>
  </outline>
</glyph>
<glyph name="uni0187" format="2">
  <advance width="830.8360655737705"/>
  <unicode hex="0187"/>
  <anchor x="302.0327868852459" y="0.0" name="bottom"/>
  <anchor x="611.9180327868852" y="1462.0" name="top"/>
  <outline>
    <contour>
      <point x="411.1803278688525" y="-20.0" type="curve" smooth="yes"/>
      <point x="496.0327868852459" y="-20.0"/>
      <point x="589.7540983606557" y="-4.22950819672131"/>
      <point x="671.9508196721313" y="33.19672131147541" type="curve"/>
      <point x="671.9508196721313" y="217.6065573770492" type="line"/>
      <point x="598.4098360655738" y="185.0655737704918"/>
      <point x="529.655737704918" y="162.40983606557378"/>
      <point x="461.9016393442622" y="162.40983606557378" type="curve" smooth="yes"/>
      <point x="341.9508196721312" y="162.40983606557378"/>
      <point x="287.37704918032784" y="252.90163934426235"/>
      <point x="287.37704918032784" y="465.0" type="curve" smooth="yes"/>
      <point x="287.37704918032784" y="720.4262295081967"/>
      <point x="421.7540983606558" y="1300.4754098360654"/>
      <point x="724.0491803278688" y="1300.4754098360654" type="curve" smooth="yes"/>
      <point x="792.1475409836065" y="1300.4754098360654"/>
      <point x="850.8196721311476" y="1278.704918032787"/>
      <point x="924.4590163934427" y="1222.8360655737706" type="curve"/>
      <point x="980.5573770491804" y="1478.9180327868853" type="line" smooth="yes"/>
      <point x="997.1147540983605" y="1549.590163934426"/>
      <point x="1023.7868852459017" y="1583.7049180327867"/>
      <point x="1084.229508196721" y="1583.7049180327867" type="curve" smooth="yes"/>
      <point x="1109.7868852459017" y="1583.7049180327867"/>
      <point x="1143.4426229508197" y="1577.7049180327867"/>
      <point x="1174.655737704918" y="1562.262295081967" type="curve"/>
      <point x="1174.655737704918" y="1736.344262295082" type="line"/>
      <point x="1143.44262295082" y="1749.2295081967216"/>
      <point x="1114.4426229508194" y="1758.1147540983604"/>
      <point x="1055.918032786885" y="1758.1147540983604" type="curve" smooth="yes"/>
      <point x="925.0819672131146" y="1758.1147540983604"/>
      <point x="844.8852459016392" y="1686.0"/>
      <point x="809.4590163934425" y="1543.6065573770493" type="curve" smooth="yes"/>
      <point x="794.1147540983609" y="1472.2131147540983" type="line"/>
      <point x="769.7704918032789" y="1479.8852459016393"/>
      <point x="742.9836065573771" y="1484.1147540983607"/>
      <point x="712.967213114754" y="1484.1147540983607" type="curve" smooth="yes"/>
      <point x="289.8524590163935" y="1484.1147540983607"/>
      <point x="73.11475409836066" y="875.2622950819672"/>
      <point x="73.11475409836066" y="451.00000000000006" type="curve" smooth="yes"/>
      <point x="73.11475409836066" y="144.75409836065577"/>
      <point x="187.98360655737707" y="-20.0"/>
    </contour>
  </outline>
</glyph>
<glyph name="uni018A" format="2">
  <advance width="1222.7540983606557"/>
  <unicode hex="018A"/>
  <anchor x="497.0983606557377" y="0.0" name="bottom"/>
  <anchor x="807.2131147540983" y="1462.0" name="top"/>
  <outline>
    <contour>
      <point x="230.68852459016398" y="0.0" type="line"/>
      <point x="503.2295081967213" y="0.0" type="line" smooth="yes"/>
      <point x="1004.8688524590165" y="0.0"/>
      <point x="1198.1639344262296" y="575.8196721311475"/>
      <point x="1198.1639344262296" y="1022.9180327868852" type="curve" smooth="yes"/>
      <point x="1198.1639344262296" y="1308.3606557377047"/>
      <point x="1058.0819672131147" y="1462.0"/>
      <point x="801.377049180328" y="1462.0" type="curve" smooth="yes"/>
      <point x="478.0655737704918" y="1462.0" type="line" smooth="yes"/>
      <point x="271.29508196721315" y="1462.0"/>
      <point x="159.34426229508196" y="1340.344262295082"/>
      <point x="159.34426229508196" y="1173.393442622951" type="curve" smooth="yes"/>
      <point x="159.34426229508196" y="1131.737704918033"/>
      <point x="164.22950819672133" y="1095.1967213114754"/>
      <point x="173.11475409836066" y="1073.1967213114756" type="curve"/>
      <point x="348.86885245901647" y="1073.1967213114756" type="line"/>
      <point x="341.0983606557377" y="1097.1967213114756"/>
      <point x="337.0983606557377" y="1128.8524590163934"/>
      <point x="337.0983606557377" y="1158.9672131147543" type="curve" smooth="yes"/>
      <point x="337.0983606557377" y="1233.5409836065573"/>
      <point x="371.44262295081967" y="1287.1311475409836"/>
      <point x="480.49180327868856" y="1287.1311475409836" type="curve" smooth="yes"/>
      <point x="502.49180327868856" y="1287.1311475409836" type="line"/>
    </contour>
    <contour>
      <point x="472.9344262295082" y="184.96721311475412" type="line"/>
      <point x="705.4426229508196" y="1278.4754098360654" type="line"/>
      <point x="779.7213114754098" y="1278.4754098360654" type="line" smooth="yes"/>
      <point x="914.655737704918" y="1278.4754098360654"/>
      <point x="981.6721311475409" y="1194.672131147541"/>
      <point x="981.6721311475409" y="1006.2786885245902" type="curve" smooth="yes"/>
      <point x="981.6721311475409" y="677.7868852459017"/>
      <point x="852.1803278688525" y="184.96721311475412"/>
      <point x="532.9836065573771" y="184.96721311475412" type="curve" smooth="yes"/>
    </contour>
  </outline>
</glyph>
<glyph name="uni018B" format="2">
  <advance width="865.2950819672132"/>
  <unicode hex="018B"/>
  <anchor x="319.1475409836065" y="0.0" name="bottom"/>
  <anchor x="628.1475409836065" y="1462.0" name="top"/>
  <outline>
    <contour>
      <point x="356.6065573770492" y="0.0" type="curve" smooth="yes"/>
      <point x="608.5901639344263" y="0.0" type="line"/>
      <point x="917.5901639344261" y="1462.0" type="line"/>
      <point x="291.19672131147536" y="1462.0" type="line"/>
      <point x="251.1147540983607" y="1278.4754098360654" type="line"/>
      <point x="673.344262295082" y="1278.4754098360654" type="line"/>
      <point x="596.8524590163934" y="910.0327868852459" type="line"/>
      <point x="507.5081967213115" y="910.0327868852459" type="line" smooth="yes"/>
      <point x="180.68852459016398" y="910.0327868852459"/>
      <point x="8.885245901639335" y="641.4590163934427"/>
      <point x="8.885245901639335" y="326.52459016393436" type="curve" smooth="yes"/>
      <point x="8.885245901639335" y="128.5409836065574"/>
      <point x="123.00000000000003" y="0.0"/>
    </contour>
    <contour>
      <point x="391.80327868852464" y="180.6393442622951" type="line" smooth="yes"/>
      <point x="279.6393442622951" y="180.6393442622951"/>
      <point x="221.6065573770492" y="236.4590163934426"/>
      <point x="221.6065573770492" y="352.8360655737705" type="curve" smooth="yes"/>
      <point x="221.6065573770492" y="576.0163934426231"/>
      <point x="321.3114754098361" y="728.8360655737706"/>
      <point x="508.8524590163934" y="728.8360655737706" type="curve" smooth="yes"/>
      <point x="559.8852459016395" y="728.8360655737706" type="line"/>
      <point x="441.9508196721312" y="180.6393442622951" type="line"/>
    </contour>
  </outline>
</glyph>
